<svg width="800" height="600" viewBox="0 0 800 600" fill="none" xmlns="http://www.w3.org/2000/svg">
<rect width="800" height="600" fill="white"/>
<g clip-path="url(#clip0_535_387)">
<path d="M785 43H14V557H785V43Z" fill="white"/>
<path d="M279.111 454.615C251.161 446.317 224.259 435.53 200.958 420.664C100.306 356.45 122.43 207.705 201.412 135.43C226.18 112.766 258.268 96.9521 291.965 94.149C329.68 91.0118 369.162 102.846 397.548 128.195C423.34 151.228 438.49 182.833 472.039 196.482C510.952 212.314 554.107 206.113 594.893 210.803C675.062 220.022 727.453 290.268 709.745 370.425C689.223 463.323 603.834 484 521.067 487.236C473.08 489.113 425.093 484.298 377.847 476.138C346.25 470.681 311.957 464.367 279.111 454.615Z" fill="#D9F3FF"/>
<path d="M185.928 342.519C181.825 346.121 175.718 347.27 170.586 345.404C165.455 343.538 161.512 338.735 160.681 333.338C159.704 326.989 162.406 319.359 157.919 314.762C155.663 312.453 152.078 311.66 150.167 309.059C148.562 306.875 148.527 303.951 148.557 301.241C148.61 296.429 148.663 291.617 148.716 286.804C146.575 284.133 142.255 284.295 139.698 282.018C137.169 279.766 136.62 276.09 136.166 272.734C134.827 262.822 132.951 252.982 130.55 243.271C138.054 245.477 145.483 247.868 152.597 251.121C156.567 252.936 160.717 255.151 162.71 259.036C164.714 262.944 164.073 267.604 164.012 271.996C163.992 273.415 164.049 274.881 164.649 276.167C166.194 279.481 170.447 280.244 173.617 282.066C177.119 284.08 179.561 287.835 179.981 291.853C180.363 295.5 179.178 299.221 179.867 302.822C181.395 310.806 190.961 314.492 194.784 321.666C198.781 329.167 192.315 336.91 185.928 342.519Z" fill="#38BDF8"/>
<path d="M205.62 413.865C205.49 413.865 205.374 413.772 205.352 413.638C203.847 404.921 198.585 381.356 189.445 354.557C182.737 334.89 174.969 316.3 166.357 299.305C155.595 278.066 143.477 259.272 130.339 243.446C130.243 243.329 130.259 243.157 130.375 243.061C130.491 242.965 130.663 242.981 130.76 243.097C143.924 258.956 156.066 277.786 166.848 299.064C175.471 316.083 183.249 334.698 189.965 354.391C199.115 381.22 204.383 404.817 205.89 413.546C205.916 413.694 205.816 413.836 205.667 413.861C205.651 413.864 205.636 413.865 205.62 413.865Z" fill="#122C38"/>
<path d="M67.416 320.011C69.9953 322.086 71.0878 325.433 72.3992 328.472C73.7107 331.511 75.7089 334.687 78.9258 335.466C82.414 336.311 86.0776 334.007 89.5802 334.79C92.4172 335.424 94.428 337.918 95.9268 340.408C97.4257 342.899 98.7289 345.637 101.044 347.394C104.638 350.123 109.628 349.77 114.098 349.152C118.568 348.535 123.434 347.853 127.333 350.125C132.077 352.889 133.845 359.183 138.555 362.006C140.558 363.206 142.923 363.66 145.253 363.833C152.192 364.348 159.286 362.484 165.075 358.623C164.742 352.294 162.54 345.453 158.563 340.518C154.585 335.584 148.61 332.155 142.281 331.818C140.261 331.711 138.22 331.907 136.225 331.575C127.844 330.179 123.488 320.449 115.721 317.004C112.421 315.541 108.585 315.326 105.143 316.414C101.774 317.478 98.7664 319.733 95.2535 320.106C91.8213 320.471 88.5059 318.982 85.1832 318.048C78.8101 316.257 73.6439 317.765 67.416 320.011Z" fill="#38BDF8"/>
<path d="M203.27 411.627C203.149 411.627 203.038 411.545 203.006 411.421C199.016 395.824 190.087 380.879 177.184 368.203C166.097 357.31 151.859 347.879 134.864 340.172C116.578 331.879 95.4831 325.591 68.4783 320.383C68.33 320.355 68.2331 320.211 68.2619 320.063C68.2907 319.915 68.4346 319.819 68.5819 319.846C95.6301 325.063 116.763 331.363 135.09 339.675C152.143 347.408 166.434 356.876 177.567 367.813C190.541 380.559 199.521 395.592 203.535 411.285C203.573 411.432 203.485 411.58 203.338 411.618C203.316 411.624 203.293 411.627 203.27 411.627Z" fill="#122C38"/>
<path d="M214.016 319.733C210.031 320.502 205.728 319.423 202.579 316.863C199.43 314.304 197.494 310.312 197.432 306.255C197.386 303.172 198.357 300.171 199.418 297.276C199.78 296.286 200.161 295.251 200.029 294.205C199.925 293.375 199.505 292.619 199.049 291.917C197.333 289.279 194.941 286.987 194.037 283.973C192.431 278.623 196.004 272.863 194.884 267.391C194.494 265.484 193.554 263.741 192.883 261.914C190.522 255.479 191.758 247.852 196.031 242.492C202.047 244.906 205.972 251.32 206.032 257.801C206.062 261.032 205.174 264.455 206.548 267.38C207.369 269.128 208.891 270.426 210.315 271.731C212.81 274.017 215.218 276.635 216.101 279.902C217.487 285.034 214.833 290.697 216.554 295.728C218.261 300.719 223.821 303.689 225.331 308.743C225.736 310.097 225.82 311.533 225.706 312.942C225.53 315.108 224.817 317.344 223.185 318.78C220.645 321.016 217.339 319.092 214.016 319.733Z" fill="#38BDF8"/>
<path d="M216.277 412.971C216.137 412.971 216.018 412.863 216.005 412.721C214.825 398.853 215.149 384.661 215.462 370.935C215.895 351.949 216.342 332.316 212.792 313.394C210.956 303.607 208.02 293.87 205.182 284.453C201.232 271.353 197.149 257.807 195.981 243.96C195.968 243.81 196.08 243.678 196.23 243.665C196.378 243.653 196.513 243.764 196.525 243.914C197.688 257.704 201.763 271.223 205.705 284.296C208.547 293.726 211.487 303.478 213.329 313.293C216.89 332.272 216.441 351.934 216.008 370.948C215.695 384.659 215.372 398.837 216.55 412.675C216.563 412.825 216.451 412.957 216.301 412.97C216.293 412.97 216.285 412.971 216.277 412.971Z" fill="#122C38"/>
<path d="M186.22 500.291C186.22 500.291 160.978 414.995 165.043 412.738C169.108 410.48 268.752 410.391 268.752 410.391C268.752 410.391 257.325 500.099 254.153 500.291C250.98 500.482 194.623 500.68 186.22 500.291Z" fill="#5776CF"/>
<mask id="mask0_535_387" style="mask-type:luminance" maskUnits="userSpaceOnUse" x="164" y="410" width="105" height="91">
<path d="M186.22 500.291C186.22 500.291 160.978 414.995 165.043 412.738C169.108 410.48 268.752 410.391 268.752 410.391C268.752 410.391 257.325 500.099 254.153 500.291C250.98 500.482 194.623 500.68 186.22 500.291Z" fill="white"/>
</mask>
<g mask="url(#mask0_535_387)">
<path d="M210.821 403.793C210.821 403.793 181.67 441.035 183.326 442.028C184.983 443.022 266.872 459.916 266.838 458.923C266.804 457.929 275.165 410.391 275.165 410.391L210.821 403.793Z" fill="#122C38"/>
</g>
<path d="M450.359 427.031H379.06V487.623H450.359V427.031Z" fill="#3D525C"/>
<path d="M473.866 500.511H357.274C354.314 500.511 351.915 498.112 351.915 495.152V492.982C351.915 490.022 354.314 487.623 357.274 487.623H473.866C476.826 487.623 479.225 490.022 479.225 492.982V495.152C479.225 498.112 476.826 500.511 473.866 500.511Z" fill="#122C38"/>
<path d="M235.564 215.716C235.715 215.415 236.022 215.227 236.359 215.225C250.738 215.128 581.054 212.93 595.687 215.228C601.456 216.134 600.022 435.755 595.687 444.145C592.499 450.316 239.97 444.89 235.875 444.145C230.826 443.227 228.325 230.144 235.564 215.716Z" fill="#2E303A"/>
<path d="M244.258 225.82C244.258 225.82 243.128 413.341 247.649 413.853C252.169 414.366 581.621 416.415 584.447 413.853C587.273 411.291 588.403 224.283 584.447 224.283C580.491 224.283 244.258 225.82 244.258 225.82Z" fill="#38BDF8"/>
<mask id="mask1_535_387" style="mask-type:luminance" maskUnits="userSpaceOnUse" x="244" y="224" width="344" height="192">
<path d="M244.258 225.82C244.258 225.82 243.128 413.341 247.649 413.853C252.169 414.366 581.621 416.415 584.447 413.853C587.273 411.291 588.403 224.283 584.447 224.283C580.491 224.283 244.258 225.82 244.258 225.82Z" fill="white"/>
</mask>
<g mask="url(#mask1_535_387)">
<path opacity="0.46" d="M460.634 220.029L332.599 418.812H237.958L244.258 225.821L460.634 220.029Z" fill="#2E303A"/>
</g>
<mask id="mask2_535_387" style="mask-type:luminance" maskUnits="userSpaceOnUse" x="244" y="224" width="344" height="192">
<path d="M244.258 225.82C244.258 225.82 243.128 413.341 247.649 413.853C252.169 414.366 581.621 416.415 584.447 413.853C587.273 411.291 588.403 224.283 584.447 224.283C580.491 224.283 244.258 225.82 244.258 225.82Z" fill="white"/>
</mask>
<g mask="url(#mask2_535_387)">
<path opacity="0.46" d="M361.829 420.434L484.887 218.963H538.889L420.329 419.38L361.829 420.434Z" fill="#2E303A"/>
</g>
<mask id="mask3_535_387" style="mask-type:luminance" maskUnits="userSpaceOnUse" x="244" y="224" width="344" height="192">
<path d="M244.258 225.82C244.258 225.82 243.128 413.341 247.649 413.853C252.169 414.366 581.621 416.415 584.447 413.853C587.273 411.291 588.403 224.283 584.447 224.283C580.491 224.283 244.258 225.82 244.258 225.82Z" fill="white"/>
</mask>
<g mask="url(#mask3_535_387)">
<path opacity="0.46" d="M561.727 219.711L442.583 420.608L516.386 419.673L595.645 273.795L594.048 220.978L561.727 219.711Z" fill="#2E303A"/>
</g>
<path d="M418.04 440.731C422.462 438.899 424.561 433.83 422.73 429.409C420.898 424.987 415.829 422.887 411.408 424.719C406.986 426.55 404.887 431.62 406.718 436.041C408.55 440.463 413.619 442.562 418.04 440.731Z" fill="#3D525C"/>
<path d="M332.98 306.839C333.405 304.856 334.237 303.35 335.478 302.322C336.717 301.296 338.081 300.765 339.569 300.728C341.057 300.693 342.474 301.137 343.821 302.057C345.166 302.978 346.122 304.395 346.69 306.308C346.76 310.914 346.796 315.466 346.796 319.965C346.796 324.465 346.866 328.982 347.009 333.515C350.125 333.515 353.154 333.48 356.096 333.409C359.035 333.339 361.851 333.303 364.545 333.303C366.458 333.87 367.874 334.774 368.796 336.013C369.716 337.253 370.159 338.547 370.124 339.892C370.088 341.238 369.556 342.479 368.53 343.612C367.502 344.746 365.996 345.525 364.013 345.95C361.25 345.95 358.487 345.968 355.724 346.003C352.96 346.039 350.197 346.021 347.434 345.95C347.575 349.494 347.663 353.336 347.7 357.481C347.735 361.626 347.788 365.47 347.859 369.012C347.716 371.351 346.956 373.088 345.574 374.22C344.192 375.354 342.652 375.921 340.951 375.921C339.251 375.921 337.638 375.336 336.115 374.167C334.591 372.998 333.688 371.281 333.405 369.012C333.334 365.399 333.387 361.591 333.565 357.587C333.741 353.585 333.759 349.776 333.618 346.163C330.571 346.093 327.294 345.933 323.787 345.684C320.28 345.437 316.879 344.924 313.584 344.143C310.29 343.365 307.26 342.267 304.497 340.849C301.734 339.432 299.502 337.554 297.802 335.216C296.243 333.021 295.357 330.646 295.145 328.095C294.932 325.544 295.18 322.924 295.889 320.23C296.596 317.539 297.659 314.81 299.077 312.047C300.494 309.284 302.035 306.627 303.7 304.076C305.364 301.526 307.03 299.134 308.695 296.902C310.359 294.671 311.83 292.704 313.106 291.004C315.939 287.178 318.845 283.458 321.821 279.845C324.796 276.231 327.772 272.583 330.748 268.898C332.306 267.623 333.918 266.969 335.584 266.932C337.248 266.897 338.683 267.304 339.888 268.154C341.092 269.004 341.924 270.21 342.386 271.767C342.846 273.327 342.721 275.062 342.014 276.975C339.604 279.951 336.77 283.335 333.512 287.125C330.252 290.916 327.045 294.883 323.893 299.028C320.74 303.173 317.87 307.389 315.285 311.675C312.698 315.963 310.874 320.124 309.811 324.163C309.386 325.581 309.546 326.803 310.289 327.829C311.033 328.857 312.131 329.707 313.584 330.38C315.035 331.054 316.719 331.602 318.632 332.027C320.546 332.452 322.44 332.771 324.318 332.984C326.195 333.196 327.932 333.356 329.526 333.462C331.12 333.568 332.342 333.658 333.193 333.728C333.05 329.264 332.98 324.784 332.98 320.283C332.98 315.785 332.98 311.303 332.98 306.839Z" fill="white"/>
<path d="M384.525 355.834C383.604 352.788 382.682 348.979 381.762 344.409C380.84 339.839 380.15 334.896 379.689 329.583C379.228 324.269 379.068 318.814 379.211 313.216C379.352 307.62 379.972 302.269 381.071 297.168C382.169 292.066 383.851 287.427 386.119 283.245C388.386 279.066 391.397 275.771 395.153 273.361C399.829 270.386 404.647 268.26 409.607 266.985C414.566 265.71 419.419 265.215 424.167 265.497C428.913 265.781 433.43 266.79 437.718 268.526C442.004 270.263 445.758 272.617 448.983 275.593C452.206 278.569 454.792 282.148 456.742 286.327C458.689 290.509 459.734 295.185 459.877 300.356C459.947 305.245 460.124 310.471 460.408 316.032C460.69 321.595 460.709 327.175 460.461 332.771C460.212 338.369 459.486 343.771 458.282 348.979C457.077 354.186 455.094 358.881 452.331 363.06C449.993 366.604 446.857 369.474 442.925 371.669C438.993 373.866 434.742 375.407 430.172 376.292C425.601 377.177 420.907 377.408 416.09 376.983C411.271 376.558 406.754 375.478 402.539 373.741C398.323 372.006 394.603 369.65 391.38 366.674C388.155 363.698 385.87 360.085 384.525 355.834ZM402.274 285.583C400.43 287.001 398.783 289.074 397.332 291.801C395.879 294.529 395.047 297.417 394.834 300.462C394.55 304.714 394.267 309.018 393.984 313.375C393.7 317.733 393.594 322.037 393.665 326.288C393.735 330.539 394.09 334.721 394.728 338.829C395.366 342.939 396.534 346.871 398.235 350.626C399.298 353.107 400.874 355.196 402.965 356.896C405.053 358.597 407.392 359.909 409.979 360.829C412.564 361.75 415.309 362.263 418.215 362.37C421.12 362.476 423.954 362.194 426.718 361.519C429.481 360.847 432.085 359.766 434.529 358.278C436.973 356.79 439.046 354.877 440.746 352.539C441.95 351.051 442.925 348.979 443.669 346.321C444.413 343.664 444.961 340.707 445.317 337.447C445.67 334.189 445.883 330.823 445.954 327.351C446.024 323.88 446.024 320.585 445.954 317.467C445.883 314.35 445.811 311.568 445.742 309.124C445.67 306.679 445.636 304.891 445.636 303.757C445.705 300.356 445.157 297.186 443.988 294.244C442.819 291.305 441.207 288.736 439.152 286.539C437.096 284.344 434.67 282.572 431.872 281.225C429.072 279.881 426.062 279.1 422.839 278.887C419.614 278.675 416.249 279.1 412.742 280.162C409.235 281.226 405.744 283.033 402.274 285.583Z" fill="white"/>
<path d="M510.041 306.839C510.466 304.856 511.298 303.35 512.538 302.322C513.777 301.296 515.142 300.765 516.63 300.728C518.118 300.693 519.534 301.137 520.881 302.057C522.226 302.978 523.183 304.395 523.75 306.308C523.82 310.914 523.857 315.466 523.857 319.965C523.857 324.465 523.926 328.982 524.069 333.515C527.186 333.515 530.215 333.48 533.156 333.409C536.095 333.339 538.912 333.303 541.605 333.303C543.518 333.87 544.935 334.774 545.856 336.013C546.776 337.253 547.22 338.547 547.185 339.892C547.148 341.238 546.617 342.479 545.591 343.612C544.562 344.746 543.056 345.525 541.074 345.95C538.31 345.95 535.547 345.968 532.784 346.003C530.021 346.039 527.257 346.021 524.494 345.95C524.635 349.494 524.723 353.336 524.76 357.481C524.795 361.626 524.848 365.47 524.919 369.012C524.776 371.351 524.016 373.088 522.634 374.22C521.253 375.354 519.712 375.921 518.011 375.921C516.311 375.921 514.698 375.336 513.176 374.167C511.651 372.998 510.748 371.281 510.465 369.012C510.394 365.399 510.447 361.591 510.625 357.587C510.801 353.585 510.819 349.776 510.678 346.163C507.631 346.093 504.355 345.933 500.847 345.684C497.34 345.437 493.939 344.924 490.645 344.143C487.35 343.365 484.321 342.267 481.558 340.849C478.795 339.432 476.563 337.554 474.863 335.216C473.303 333.021 472.418 330.646 472.206 328.095C471.993 325.544 472.24 322.924 472.949 320.23C473.657 317.539 474.72 314.81 476.138 312.047C477.554 309.284 479.095 306.627 480.761 304.076C482.425 301.526 484.091 299.134 485.756 296.902C487.42 294.671 488.891 292.704 490.167 291.004C492.999 287.178 495.906 283.458 498.881 279.845C501.857 276.231 504.833 272.583 507.809 268.898C509.366 267.623 510.979 266.969 512.645 266.932C514.309 266.897 515.743 267.304 516.949 268.154C518.153 269.004 518.985 270.21 519.447 271.767C519.906 273.327 519.782 275.062 519.075 276.975C516.665 279.951 513.83 283.335 510.572 287.125C507.313 290.916 504.106 294.883 500.954 299.028C497.8 303.173 494.931 307.389 492.345 311.675C489.758 315.963 487.935 320.124 486.872 324.163C486.447 325.581 486.606 326.803 487.35 327.829C488.094 328.857 489.192 329.707 490.645 330.38C492.096 331.054 493.78 331.602 495.693 332.027C497.606 332.452 499.501 332.771 501.379 332.984C503.255 333.196 504.992 333.356 506.587 333.462C508.181 333.568 509.403 333.658 510.253 333.728C510.11 329.264 510.04 324.784 510.04 320.283C510.041 315.785 510.041 311.303 510.041 306.839Z" fill="white"/>
<path opacity="0.54" d="M312.249 445.605L278.174 349.807L286.827 351.197C287.315 351.275 287.723 351.612 287.892 352.078L321.994 445.696C322.002 445.717 321.986 445.739 321.964 445.739L312.249 445.605Z" fill="#3D525C"/>
<path d="M202.702 449.675C204.141 449.42 274.838 349.073 278.174 349.807C281.51 350.541 320.358 468.471 318.914 468.242C317.471 468.013 199.127 450.308 202.702 449.675Z" fill="#FC476A"/>
<path d="M267.183 433.444C266.633 433.937 266.077 434.255 265.511 434.4C264.944 434.546 264.402 434.542 263.884 434.386C263.366 434.232 262.896 433.94 262.475 433.511C262.055 433.083 261.736 432.525 261.52 431.839C261.864 427.623 262.127 423.34 262.312 418.989C262.496 414.639 262.73 410.314 263.015 406.016C263.299 401.718 263.709 397.485 264.245 393.317C264.78 389.149 265.571 385.14 266.617 381.288C266.702 380.976 266.991 380.696 267.484 380.448C267.975 380.2 268.573 380.024 269.278 379.919C269.982 379.813 270.749 379.772 271.578 379.795C272.406 379.818 273.205 379.918 273.973 380.094C274.741 380.271 275.424 380.533 276.02 380.881C276.616 381.229 277.051 381.678 277.326 382.228C277.772 382.842 278.038 383.898 278.126 385.396C278.214 386.894 278.18 388.699 278.027 390.809C277.872 392.921 277.59 395.265 277.181 397.842C276.772 400.419 276.287 403.066 275.729 405.782C275.171 408.499 274.557 411.225 273.888 413.959C273.218 416.695 272.508 419.278 271.761 421.711C271.012 424.144 270.262 426.36 269.511 428.358C268.759 430.356 268.032 431.969 267.33 433.196C267.325 433.232 267.275 433.315 267.183 433.444ZM259.864 449.439C259.09 448.845 258.466 448.158 257.993 447.377C257.519 446.596 257.247 445.801 257.177 444.994C257.106 444.187 257.276 443.399 257.688 442.632C258.099 441.865 258.785 441.196 259.744 440.624C261.066 439.82 262.391 439.515 263.717 439.708C265.044 439.9 266.065 440.705 266.782 442.122C267.455 443.351 267.778 444.678 267.751 446.103C267.723 447.529 267.102 448.76 265.888 449.798C265.001 450.598 263.998 450.928 262.881 450.786C261.763 450.645 260.757 450.195 259.864 449.439Z" fill="white"/>
<path d="M658.712 500.129H573.163C571.449 500.129 570.059 498.739 570.059 497.024V397.096C570.059 395.382 571.448 393.992 573.163 393.992H658.712C660.426 393.992 661.816 395.382 661.816 397.096V497.024C661.817 498.739 660.426 500.129 658.712 500.129Z" fill="black"/>
<mask id="mask4_535_387" style="mask-type:luminance" maskUnits="userSpaceOnUse" x="570" y="393" width="92" height="108">
<path d="M658.712 500.129H573.163C571.449 500.129 570.059 498.739 570.059 497.024V397.096C570.059 395.382 571.448 393.992 573.163 393.992H658.712C660.426 393.992 661.816 395.382 661.816 397.096V497.024C661.817 498.739 660.426 500.129 658.712 500.129Z" fill="white"/>
</mask>
<g mask="url(#mask4_535_387)">
<path d="M664.399 409.021C664.399 409.021 628.46 459.625 563.418 473.631V504.605H666.665C666.665 504.605 669.361 410.834 664.399 409.021Z" fill="#122C38"/>
</g>
<path d="M594.313 393.993C594.313 393.993 593.095 306.621 594.719 305.607C596.342 304.592 608.722 303.577 609.736 306.012C610.751 308.448 609.736 393.993 609.736 393.993H594.313V393.993Z" fill="#FC476A"/>
<mask id="mask5_535_387" style="mask-type:luminance" maskUnits="userSpaceOnUse" x="593" y="304" width="18" height="90">
<path d="M594.313 393.993C594.313 393.993 593.095 306.621 594.719 305.607C596.342 304.592 608.722 303.577 609.736 306.012C610.751 308.448 609.736 393.993 609.736 393.993H594.313V393.993Z" fill="white"/>
</mask>
<g mask="url(#mask5_535_387)">
<path d="M604.929 318.07V395.718H599.133V318.227L604.929 318.07Z" fill="#D40221"/>
</g>
<mask id="mask6_535_387" style="mask-type:luminance" maskUnits="userSpaceOnUse" x="593" y="304" width="18" height="90">
<path d="M594.313 393.993C594.313 393.993 593.095 306.621 594.719 305.607C596.342 304.592 608.722 303.577 609.736 306.012C610.751 308.448 609.736 393.993 609.736 393.993H594.313V393.993Z" fill="white"/>
</mask>
<g mask="url(#mask6_535_387)">
<path d="M591.468 321.427C591.468 321.427 609.481 320.06 611.991 321.316C611.991 321.316 611.866 303.363 610.861 302.986C609.857 302.609 592.657 302.512 592.281 304.507C591.904 306.501 591.468 321.427 591.468 321.427Z" fill="#38BDF8"/>
</g>
<path d="M654.662 393.993H618.815V267.89C618.815 267.359 619.245 266.93 619.775 266.93H653.703C654.233 266.93 654.663 267.359 654.663 267.89V393.993H654.662Z" fill="#38BDF8"/>
<mask id="mask7_535_387" style="mask-type:luminance" maskUnits="userSpaceOnUse" x="618" y="266" width="37" height="128">
<path d="M654.662 393.993H618.815V267.89C618.815 267.359 619.245 266.93 619.775 266.93H653.703C654.233 266.93 654.663 267.359 654.663 267.89V393.993H654.662Z" fill="white"/>
</mask>
<g mask="url(#mask7_535_387)">
<path opacity="0.46" d="M628.234 262.285H615.938V398.618H628.234V262.285Z" fill="#6880E4"/>
</g>
<mask id="mask8_535_387" style="mask-type:luminance" maskUnits="userSpaceOnUse" x="618" y="266" width="37" height="128">
<path d="M654.662 393.993H618.815V267.89C618.815 267.359 619.245 266.93 619.775 266.93H653.703C654.233 266.93 654.663 267.359 654.663 267.89V393.993H654.662Z" fill="white"/>
</mask>
<g mask="url(#mask8_535_387)">
<path d="M623.332 276.678H618.815V278.251H623.332V276.678Z" fill="#6880E4"/>
</g>
<mask id="mask9_535_387" style="mask-type:luminance" maskUnits="userSpaceOnUse" x="618" y="266" width="37" height="128">
<path d="M654.662 393.993H618.815V267.89C618.815 267.359 619.245 266.93 619.775 266.93H653.703C654.233 266.93 654.663 267.359 654.663 267.89V393.993H654.662Z" fill="white"/>
</mask>
<g mask="url(#mask9_535_387)">
<path d="M623.332 283.92H618.815V285.493H623.332V283.92Z" fill="#6880E4"/>
</g>
<mask id="mask10_535_387" style="mask-type:luminance" maskUnits="userSpaceOnUse" x="618" y="266" width="37" height="128">
<path d="M654.662 393.993H618.815V267.89C618.815 267.359 619.245 266.93 619.775 266.93H653.703C654.233 266.93 654.663 267.359 654.663 267.89V393.993H654.662Z" fill="white"/>
</mask>
<g mask="url(#mask10_535_387)">
<path d="M623.332 291.164H618.815V292.737H623.332V291.164Z" fill="#6880E4"/>
</g>
<mask id="mask11_535_387" style="mask-type:luminance" maskUnits="userSpaceOnUse" x="618" y="266" width="37" height="128">
<path d="M654.662 393.993H618.815V267.89C618.815 267.359 619.245 266.93 619.775 266.93H653.703C654.233 266.93 654.663 267.359 654.663 267.89V393.993H654.662Z" fill="white"/>
</mask>
<g mask="url(#mask11_535_387)">
<path d="M623.332 298.408H618.815V299.982H623.332V298.408Z" fill="#6880E4"/>
</g>
<mask id="mask12_535_387" style="mask-type:luminance" maskUnits="userSpaceOnUse" x="618" y="266" width="37" height="128">
<path d="M654.662 393.993H618.815V267.89C618.815 267.359 619.245 266.93 619.775 266.93H653.703C654.233 266.93 654.663 267.359 654.663 267.89V393.993H654.662Z" fill="white"/>
</mask>
<g mask="url(#mask12_535_387)">
<path d="M623.332 305.65H618.815V307.224H623.332V305.65Z" fill="#6880E4"/>
</g>
<mask id="mask13_535_387" style="mask-type:luminance" maskUnits="userSpaceOnUse" x="618" y="266" width="37" height="128">
<path d="M654.662 393.993H618.815V267.89C618.815 267.359 619.245 266.93 619.775 266.93H653.703C654.233 266.93 654.663 267.359 654.663 267.89V393.993H654.662Z" fill="white"/>
</mask>
<g mask="url(#mask13_535_387)">
<path d="M623.332 312.895H618.815V314.468H623.332V312.895Z" fill="#6880E4"/>
</g>
<mask id="mask14_535_387" style="mask-type:luminance" maskUnits="userSpaceOnUse" x="618" y="266" width="37" height="128">
<path d="M654.662 393.993H618.815V267.89C618.815 267.359 619.245 266.93 619.775 266.93H653.703C654.233 266.93 654.663 267.359 654.663 267.89V393.993H654.662Z" fill="white"/>
</mask>
<g mask="url(#mask14_535_387)">
<path d="M623.332 320.137H618.815V321.71H623.332V320.137Z" fill="#6880E4"/>
</g>
<mask id="mask15_535_387" style="mask-type:luminance" maskUnits="userSpaceOnUse" x="618" y="266" width="37" height="128">
<path d="M654.662 393.993H618.815V267.89C618.815 267.359 619.245 266.93 619.775 266.93H653.703C654.233 266.93 654.663 267.359 654.663 267.89V393.993H654.662Z" fill="white"/>
</mask>
<g mask="url(#mask15_535_387)">
<path d="M623.332 327.381H618.815V328.954H623.332V327.381Z" fill="#6880E4"/>
</g>
<mask id="mask16_535_387" style="mask-type:luminance" maskUnits="userSpaceOnUse" x="618" y="266" width="37" height="128">
<path d="M654.662 393.993H618.815V267.89C618.815 267.359 619.245 266.93 619.775 266.93H653.703C654.233 266.93 654.663 267.359 654.663 267.89V393.993H654.662Z" fill="white"/>
</mask>
<g mask="url(#mask16_535_387)">
<path d="M623.332 334.623H618.815V336.196H623.332V334.623Z" fill="#6880E4"/>
</g>
<mask id="mask17_535_387" style="mask-type:luminance" maskUnits="userSpaceOnUse" x="618" y="266" width="37" height="128">
<path d="M654.662 393.993H618.815V267.89C618.815 267.359 619.245 266.93 619.775 266.93H653.703C654.233 266.93 654.663 267.359 654.663 267.89V393.993H654.662Z" fill="white"/>
</mask>
<g mask="url(#mask17_535_387)">
<path d="M623.332 341.867H618.815V343.441H623.332V341.867Z" fill="#6880E4"/>
</g>
<mask id="mask18_535_387" style="mask-type:luminance" maskUnits="userSpaceOnUse" x="618" y="266" width="37" height="128">
<path d="M654.662 393.993H618.815V267.89C618.815 267.359 619.245 266.93 619.775 266.93H653.703C654.233 266.93 654.663 267.359 654.663 267.89V393.993H654.662Z" fill="white"/>
</mask>
<g mask="url(#mask18_535_387)">
<path d="M623.332 349.109H618.815V350.683H623.332V349.109Z" fill="#6880E4"/>
</g>
<mask id="mask19_535_387" style="mask-type:luminance" maskUnits="userSpaceOnUse" x="618" y="266" width="37" height="128">
<path d="M654.662 393.993H618.815V267.89C618.815 267.359 619.245 266.93 619.775 266.93H653.703C654.233 266.93 654.663 267.359 654.663 267.89V393.993H654.662Z" fill="white"/>
</mask>
<g mask="url(#mask19_535_387)">
<path d="M623.332 356.354H618.815V357.927H623.332V356.354Z" fill="#6880E4"/>
</g>
<mask id="mask20_535_387" style="mask-type:luminance" maskUnits="userSpaceOnUse" x="618" y="266" width="37" height="128">
<path d="M654.662 393.993H618.815V267.89C618.815 267.359 619.245 266.93 619.775 266.93H653.703C654.233 266.93 654.663 267.359 654.663 267.89V393.993H654.662Z" fill="white"/>
</mask>
<g mask="url(#mask20_535_387)">
<path d="M623.332 363.596H618.815V365.169H623.332V363.596Z" fill="#6880E4"/>
</g>
<mask id="mask21_535_387" style="mask-type:luminance" maskUnits="userSpaceOnUse" x="618" y="266" width="37" height="128">
<path d="M654.662 393.993H618.815V267.89C618.815 267.359 619.245 266.93 619.775 266.93H653.703C654.233 266.93 654.663 267.359 654.663 267.89V393.993H654.662Z" fill="white"/>
</mask>
<g mask="url(#mask21_535_387)">
<path d="M623.332 370.84H618.815V372.413H623.332V370.84Z" fill="#6880E4"/>
</g>
<mask id="mask22_535_387" style="mask-type:luminance" maskUnits="userSpaceOnUse" x="618" y="266" width="37" height="128">
<path d="M654.662 393.993H618.815V267.89C618.815 267.359 619.245 266.93 619.775 266.93H653.703C654.233 266.93 654.663 267.359 654.663 267.89V393.993H654.662Z" fill="white"/>
</mask>
<g mask="url(#mask22_535_387)">
<path d="M623.332 378.082H618.815V379.655H623.332V378.082Z" fill="#6880E4"/>
</g>
<mask id="mask23_535_387" style="mask-type:luminance" maskUnits="userSpaceOnUse" x="618" y="266" width="37" height="128">
<path d="M654.662 393.993H618.815V267.89C618.815 267.359 619.245 266.93 619.775 266.93H653.703C654.233 266.93 654.663 267.359 654.663 267.89V393.993H654.662Z" fill="white"/>
</mask>
<g mask="url(#mask23_535_387)">
<path d="M623.332 385.326H618.815V386.9H623.332V385.326Z" fill="#6880E4"/>
</g>
<mask id="mask24_535_387" style="mask-type:luminance" maskUnits="userSpaceOnUse" x="618" y="266" width="37" height="128">
<path d="M654.662 393.993H618.815V267.89C618.815 267.359 619.245 266.93 619.775 266.93H653.703C654.233 266.93 654.663 267.359 654.663 267.89V393.993H654.662Z" fill="white"/>
</mask>
<g mask="url(#mask24_535_387)">
<path opacity="0.17" d="M646.908 262.136C636.961 270.657 633.472 285.898 638.722 297.897C641.221 303.608 645.491 308.702 646.293 314.884C647.07 320.881 644.432 326.714 642.346 332.39C640.291 337.983 638.708 343.892 639.126 349.837C639.809 359.559 645.772 368.653 644.798 378.35C643.862 387.664 636.618 395.773 637.035 405.124C637.155 405.124 636.91 405.536 637.029 405.536H660.318L660.307 261.539L663.172 261.568L646.908 262.136Z" fill="#6880E4"/>
</g>
<path d="M724.303 501.605H135.9C135.297 501.605 134.808 501.116 134.808 500.512C134.808 499.909 135.297 499.42 135.9 499.42H724.303C724.907 499.42 725.396 499.909 725.396 500.512C725.396 501.116 724.907 501.605 724.303 501.605Z" fill="#122C38"/>
<path d="M315.311 200.551L301.696 202.312C294.2 198.8 286.941 196.525 280.174 197.232C273.375 197.943 269.47 205.06 271.147 209.853C272.623 214.068 284.854 218.391 290.13 218.492C295.407 218.594 303.423 217.376 306.365 214.765C306.369 214.762 306.372 214.757 306.376 214.753H315.311V200.551H315.311Z" fill="#FE8E9C"/>
<mask id="mask25_535_387" style="mask-type:luminance" maskUnits="userSpaceOnUse" x="270" y="197" width="46" height="22">
<path d="M315.311 200.551L301.696 202.312C294.2 198.8 286.941 196.525 280.174 197.232C273.375 197.943 269.47 205.06 271.147 209.853C272.623 214.068 284.854 218.391 290.13 218.492C295.407 218.594 303.423 217.376 306.365 214.765C306.369 214.762 306.372 214.757 306.376 214.753H315.311V200.551H315.311Z" fill="white"/>
</mask>
<g mask="url(#mask25_535_387)">
<path d="M285.392 219.141C285.392 219.141 288.012 214.02 287.893 210.091C287.774 206.161 282.373 200.037 282.373 200.037L277.89 200.266C277.89 200.266 279.352 214.616 278.055 217.147L285.392 219.141Z" fill="#E57492"/>
</g>
<path d="M306.365 214.766C306.365 214.766 309.062 210.626 302.794 206.447C302.794 206.447 308.384 207.351 310.304 211.078C312.224 214.805 311.829 214.861 311.829 214.861L306.365 214.766Z" fill="#E57492"/>
<path d="M301.696 202.313C301.696 202.313 297.332 202.7 296.488 202.721C293.431 202.795 290.368 202.963 290.368 202.963C290.368 202.963 288.465 196.783 285.665 198.049C281.553 199.909 286.253 202.795 286.253 202.795C286.253 202.795 278.945 201.577 278.231 201.535C277.517 201.493 283.701 214.537 277.104 218.499C270.506 222.461 263.157 220.373 262.239 210.101C261.32 199.829 271.843 189.975 281.53 190.309C291.217 190.643 301.696 202.313 301.696 202.313Z" fill="black"/>
<mask id="mask26_535_387" style="mask-type:luminance" maskUnits="userSpaceOnUse" x="262" y="190" width="40" height="31">
<path d="M301.696 202.313C301.696 202.313 297.332 202.7 296.488 202.721C293.431 202.795 290.368 202.963 290.368 202.963C290.368 202.963 288.465 196.783 285.665 198.049C281.553 199.909 286.253 202.795 286.253 202.795C286.253 202.795 278.945 201.577 278.231 201.535C277.517 201.493 283.701 214.537 277.104 218.499C270.506 222.461 263.157 220.373 262.239 210.101C261.32 199.829 271.843 189.975 281.53 190.309C291.217 190.643 301.696 202.313 301.696 202.313Z" fill="white"/>
</mask>
<g mask="url(#mask26_535_387)">
<path d="M271.495 220.375C271.495 220.375 276.517 216.168 276.269 211.517C276.021 206.867 274.522 199.587 275.258 199.104C275.995 198.621 283.731 201.709 283.731 201.709C283.731 201.709 282.306 199.62 284.788 198.551C284.788 198.551 288.72 202.855 288.442 203.307C288.164 203.758 279.131 202.855 279.131 202.855C279.131 202.855 282.675 211.558 280.138 216.7C277.602 221.842 271.495 220.375 271.495 220.375Z" fill="#122C38"/>
</g>
<path d="M301.409 214.861C301.409 214.861 299.33 214.264 299.33 210.655C299.33 207.045 299.33 210.294 299.33 210.294C299.33 210.294 301.443 214.135 301.409 214.861Z" fill="#F6F9FF"/>
<path d="M284.505 210.459C284.505 210.459 292.797 214.969 293.575 214.49C294.353 214.011 292.947 208.952 292.947 208.952C292.947 208.952 293.845 208.892 294.054 209.701C294.263 210.509 295.431 215.268 294.054 215.358C292.677 215.448 285.851 212.085 284.505 210.459Z" fill="#E57492"/>
<path d="M332.459 296.129C332.459 296.129 330.425 298.864 329.753 300.218C329.082 301.571 328.865 308.339 329.006 308.316C329.147 308.293 330.651 308.213 330.962 307.318L332.625 301.604C332.625 301.604 332.739 307.731 332.536 308.164C332.333 308.599 328.806 315.63 329.116 315.853C329.427 316.076 330.763 316.891 331.804 315.138C332.845 313.386 335.306 308.849 335.609 308.124C335.911 307.4 330.788 317.686 330.994 317.768C331.2 317.85 332.512 318.53 333.032 317.86C333.552 317.189 338.138 309.888 338.289 309.301C338.44 308.713 335.431 316.296 335.588 316.293C335.745 316.289 336.345 317.069 337.166 316.034C337.986 314.999 340.742 309.438 340.874 309.147C341.006 308.855 340.965 305.313 340.965 305.313C340.965 305.313 341.652 309.473 341.491 310.015C341.331 310.557 340.068 313.708 340.654 313.818C341.099 313.902 341.872 313.047 342.481 311.931C343.089 310.814 343.862 309.142 343.804 307.554C343.746 305.966 340.821 297.075 340.821 297.075L332.459 296.129Z" fill="#FE8E9C"/>
<mask id="mask27_535_387" style="mask-type:luminance" maskUnits="userSpaceOnUse" x="328" y="296" width="16" height="23">
<path d="M332.459 296.129C332.459 296.129 330.425 298.864 329.753 300.218C329.082 301.571 328.865 308.339 329.006 308.316C329.147 308.293 330.651 308.213 330.962 307.318L332.625 301.604C332.625 301.604 332.739 307.731 332.536 308.164C332.333 308.599 328.806 315.63 329.116 315.853C329.427 316.076 330.763 316.891 331.804 315.138C332.845 313.386 335.306 308.849 335.609 308.124C335.911 307.4 330.788 317.686 330.994 317.768C331.2 317.85 332.512 318.53 333.032 317.86C333.552 317.189 338.138 309.888 338.289 309.301C338.44 308.713 335.431 316.296 335.588 316.293C335.745 316.289 336.345 317.069 337.166 316.034C337.986 314.999 340.742 309.438 340.874 309.147C341.006 308.855 340.965 305.313 340.965 305.313C340.965 305.313 341.652 309.473 341.491 310.015C341.331 310.557 340.068 313.708 340.654 313.818C341.099 313.902 341.872 313.047 342.481 311.931C343.089 310.814 343.862 309.142 343.804 307.554C343.746 305.966 340.821 297.075 340.821 297.075L332.459 296.129Z" fill="white"/>
</mask>
<g mask="url(#mask27_535_387)">
<path d="M328.221 302.592C328.349 303.055 334.582 299.597 343.074 300.925C343.074 300.925 341.931 295.768 341.005 295.305C340.079 294.842 332.791 294.842 331.68 295.367C330.568 295.891 327.635 300.461 328.221 302.592Z" fill="#E57492"/>
</g>
<path d="M408.655 194.653C408.655 194.108 408.265 193.641 407.728 193.545L363.552 185.6C326.494 182.43 315.311 198.834 315.311 198.834V214.76L319.646 214.742C322.855 224.116 331.988 250.977 332.917 255.857C334.047 261.789 326.757 297.507 327.513 297.981C328.268 298.454 344.633 300.468 346.144 300.217C347.655 299.965 355.208 260.629 354.705 255.875C354.318 252.225 353.19 227.195 350.408 214.62L408.655 214.388V194.653Z" fill="#FC476A"/>
<path d="M350.408 214.62C350.408 214.62 349.304 208.779 344.405 204.725C344.405 204.725 370.592 209.962 378.194 210.469C385.797 210.975 408.655 208.965 408.655 208.965V214.388L350.408 214.62Z" fill="#D40221"/>
<path d="M540.013 230.342C540.013 230.342 549.22 228.156 549.451 228.578C549.681 228.999 550.985 233.219 550.487 234.754C549.988 236.289 540.934 239.588 540.934 239.588L540.013 230.342Z" fill="#E57492"/>
<path d="M547.186 202.344C547.186 202.344 459.972 195.188 441.858 191.387C423.744 187.585 408.655 195.849 408.655 195.849V214.389C408.655 214.389 455.524 254.32 476.54 254.845C497.556 255.37 541.516 243.636 541.866 241.71C542.216 239.783 541.866 228.399 540.115 227.699C538.363 226.998 480.218 233.654 479.167 232.428C478.484 231.631 468.64 221.748 459.999 214.389H547.186V202.344H547.186Z" fill="black"/>
<mask id="mask28_535_387" style="mask-type:luminance" maskUnits="userSpaceOnUse" x="408" y="190" width="140" height="65">
<path d="M547.186 202.344C547.186 202.344 459.972 195.188 441.858 191.387C423.744 187.585 408.655 195.849 408.655 195.849V214.389C408.655 214.389 455.524 254.32 476.54 254.845C497.556 255.37 541.516 243.636 541.866 241.71C542.216 239.783 541.866 228.399 540.115 227.699C538.363 226.998 480.218 233.654 479.167 232.428C478.484 231.631 468.64 221.748 459.999 214.389H547.186V202.344H547.186Z" fill="white"/>
</mask>
<g mask="url(#mask28_535_387)">
<path d="M480.824 244.323C480.515 244.323 480.27 244.312 480.073 244.29C480.025 244.285 479.975 244.278 479.923 244.269C479.701 244.23 479.551 244.018 479.59 243.795C479.629 243.572 479.842 243.422 480.064 243.462C480.099 243.468 480.132 243.473 480.163 243.476C480.422 243.505 480.828 243.511 481.345 243.495C481.573 243.488 481.76 243.665 481.767 243.891C481.774 244.117 481.597 244.306 481.371 244.314C481.172 244.32 480.99 244.323 480.824 244.323ZM482.727 244.24C482.514 244.24 482.334 244.075 482.319 243.859C482.303 243.634 482.473 243.437 482.699 243.422C483.114 243.392 483.569 243.356 484.058 243.312C484.28 243.292 484.482 243.458 484.502 243.684C484.522 243.909 484.356 244.108 484.131 244.128C483.636 244.172 483.176 244.21 482.756 244.239C482.746 244.24 482.737 244.24 482.727 244.24ZM485.459 244C485.251 244 485.073 243.842 485.052 243.631C485.029 243.406 485.193 243.205 485.418 243.182C485.851 243.138 486.305 243.091 486.777 243.039C487.001 243.015 487.204 243.177 487.229 243.402C487.253 243.627 487.091 243.829 486.866 243.854C486.391 243.905 485.936 243.954 485.501 243.997C485.486 243.999 485.472 244 485.459 244ZM478.696 243.845C478.643 243.845 478.589 243.835 478.537 243.813C478.167 243.656 477.74 243.457 477.27 243.221C477.068 243.12 476.986 242.873 477.087 242.671C477.189 242.469 477.435 242.387 477.637 242.488C478.092 242.717 478.502 242.908 478.856 243.058C479.065 243.146 479.162 243.387 479.074 243.595C479.007 243.751 478.856 243.845 478.696 243.845ZM488.182 243.704C487.976 243.704 487.799 243.55 487.775 243.341C487.749 243.116 487.91 242.913 488.135 242.887C488.574 242.836 489.028 242.783 489.493 242.727C489.717 242.699 489.921 242.861 489.948 243.085C489.975 243.31 489.815 243.514 489.59 243.541C489.124 243.597 488.67 243.65 488.229 243.701C488.213 243.703 488.197 243.704 488.182 243.704ZM490.9 243.378C490.696 243.378 490.52 243.226 490.494 243.019C490.466 242.794 490.626 242.59 490.85 242.562C491.294 242.507 491.746 242.45 492.207 242.391C492.43 242.362 492.636 242.522 492.665 242.746C492.693 242.971 492.534 243.176 492.31 243.204C491.848 243.263 491.395 243.32 490.951 243.375C490.934 243.377 490.917 243.378 490.9 243.378ZM493.614 243.033C493.412 243.033 493.235 242.883 493.209 242.676C493.18 242.452 493.338 242.246 493.562 242.217C494.008 242.159 494.46 242.1 494.918 242.039C495.142 242.01 495.348 242.167 495.378 242.391C495.408 242.616 495.25 242.822 495.025 242.852C494.566 242.912 494.114 242.972 493.668 243.03C493.65 243.032 493.632 243.033 493.614 243.033ZM496.328 242.674C496.126 242.674 495.95 242.525 495.922 242.319C495.892 242.094 496.049 241.888 496.273 241.858L497.628 241.675C497.852 241.643 498.059 241.801 498.09 242.025C498.12 242.25 497.963 242.456 497.739 242.487L496.383 242.67C496.364 242.673 496.346 242.674 496.328 242.674ZM476.238 242.628C476.172 242.628 476.105 242.612 476.043 242.579C475.662 242.372 475.26 242.148 474.839 241.908C474.642 241.796 474.573 241.546 474.685 241.349C474.797 241.153 475.047 241.084 475.244 241.196C475.66 241.433 476.057 241.654 476.434 241.858C476.633 241.966 476.707 242.215 476.599 242.414C476.525 242.551 476.384 242.628 476.238 242.628ZM499.039 242.304C498.837 242.304 498.661 242.156 498.633 241.95C498.602 241.726 498.759 241.519 498.983 241.489L500.337 241.301C500.56 241.271 500.769 241.426 500.8 241.65C500.831 241.874 500.675 242.081 500.451 242.112L499.095 242.3C499.076 242.303 499.057 242.304 499.039 242.304ZM501.748 241.926C501.547 241.926 501.371 241.778 501.343 241.574C501.311 241.35 501.467 241.142 501.691 241.111L503.045 240.919C503.267 240.885 503.476 241.043 503.508 241.267C503.54 241.491 503.384 241.699 503.16 241.73L501.805 241.922C501.786 241.925 501.767 241.926 501.748 241.926ZM504.456 241.541C504.255 241.541 504.08 241.394 504.051 241.189C504.019 240.965 504.174 240.758 504.398 240.726L505.752 240.531C505.978 240.499 506.184 240.654 506.216 240.878C506.248 241.102 506.093 241.31 505.869 241.342L504.514 241.537C504.495 241.54 504.475 241.541 504.456 241.541ZM473.856 241.275C473.785 241.275 473.713 241.257 473.648 241.219C473.267 240.994 472.874 240.76 472.469 240.515C472.275 240.398 472.212 240.146 472.329 239.952C472.446 239.759 472.699 239.696 472.892 239.813C473.294 240.056 473.685 240.289 474.064 240.512C474.259 240.627 474.324 240.878 474.209 241.073C474.133 241.203 473.996 241.275 473.856 241.275ZM507.163 241.15C506.962 241.15 506.787 241.003 506.757 240.799C506.725 240.575 506.88 240.367 507.104 240.335L508.457 240.137C508.683 240.105 508.889 240.259 508.922 240.483C508.955 240.707 508.8 240.915 508.576 240.948L507.222 241.146C507.202 241.149 507.182 241.15 507.163 241.15ZM509.869 240.753C509.669 240.753 509.494 240.607 509.464 240.403C509.431 240.179 509.586 239.971 509.81 239.938L511.163 239.739C511.386 239.705 511.595 239.86 511.628 240.084C511.661 240.308 511.507 240.516 511.283 240.549L509.929 240.749C509.909 240.752 509.889 240.753 509.869 240.753ZM512.58 240.352C512.38 240.352 512.205 240.206 512.175 240.003C512.142 239.779 512.296 239.57 512.52 239.537L513.874 239.335C514.1 239.301 514.306 239.456 514.34 239.679C514.373 239.903 514.219 240.112 513.995 240.145L512.64 240.348C512.62 240.351 512.6 240.352 512.58 240.352ZM515.284 239.947C515.085 239.947 514.91 239.801 514.88 239.598C514.846 239.375 515 239.166 515.224 239.132L516.576 238.929C516.801 238.894 517.009 239.049 517.042 239.273C517.076 239.496 516.922 239.705 516.699 239.739L515.345 239.943C515.325 239.946 515.305 239.947 515.284 239.947ZM471.51 239.861C471.437 239.861 471.363 239.842 471.296 239.801C470.916 239.567 470.527 239.326 470.131 239.078C469.939 238.958 469.881 238.705 470.001 238.513C470.12 238.321 470.372 238.263 470.565 238.383C470.96 238.63 471.347 238.87 471.726 239.103C471.919 239.221 471.978 239.474 471.86 239.666C471.783 239.792 471.648 239.861 471.51 239.861ZM517.989 239.539C517.79 239.539 517.616 239.394 517.585 239.191C517.551 238.967 517.705 238.758 517.929 238.724L519.28 238.518C519.503 238.486 519.713 238.638 519.747 238.862C519.781 239.086 519.627 239.295 519.404 239.329L518.051 239.534C518.031 239.537 518.01 239.539 517.989 239.539ZM520.693 239.127C520.494 239.127 520.32 238.982 520.289 238.779C520.255 238.555 520.408 238.346 520.632 238.312L521.983 238.105C522.209 238.071 522.416 238.224 522.451 238.448C522.485 238.671 522.331 238.88 522.108 238.915L520.756 239.122C520.735 239.125 520.714 239.127 520.693 239.127ZM523.397 238.712C523.199 238.712 523.024 238.567 522.993 238.364C522.958 238.14 523.112 237.931 523.336 237.897L524.687 237.689C524.909 237.655 525.12 237.807 525.154 238.031C525.189 238.255 525.036 238.464 524.812 238.499L523.46 238.707C523.439 238.71 523.418 238.712 523.397 238.712ZM469.189 238.411C469.114 238.411 469.038 238.391 468.97 238.348C468.591 238.108 468.205 237.862 467.814 237.612C467.624 237.49 467.568 237.236 467.69 237.046C467.812 236.855 468.066 236.799 468.256 236.922C468.646 237.171 469.03 237.416 469.408 237.655C469.6 237.776 469.657 238.029 469.535 238.221C469.458 238.344 469.325 238.411 469.189 238.411ZM526.101 238.294C525.902 238.294 525.728 238.149 525.697 237.947C525.662 237.723 525.815 237.514 526.039 237.479L527.39 237.269C527.615 237.235 527.824 237.388 527.858 237.611C527.893 237.835 527.74 238.044 527.516 238.079L526.164 238.289C526.143 238.292 526.122 238.294 526.101 238.294ZM528.804 237.873C528.606 237.873 528.431 237.729 528.4 237.526C528.365 237.303 528.518 237.093 528.742 237.058L530.094 236.847C530.316 236.814 530.527 236.965 530.562 237.189C530.597 237.412 530.444 237.622 530.22 237.657L528.868 237.868C528.846 237.872 528.825 237.873 528.804 237.873ZM531.508 237.45C531.31 237.45 531.136 237.306 531.104 237.104C531.069 236.88 531.222 236.671 531.445 236.636L532.797 236.423C533.023 236.388 533.23 236.541 533.265 236.764C533.3 236.988 533.148 237.198 532.924 237.233L531.572 237.446C531.551 237.448 531.529 237.45 531.508 237.45ZM534.212 237.024C534.014 237.024 533.84 236.88 533.808 236.678C533.773 236.455 533.925 236.245 534.149 236.21L535.501 235.996C535.722 235.96 535.934 236.113 535.969 236.337C536.005 236.56 535.852 236.77 535.629 236.805L534.277 237.019C534.255 237.023 534.233 237.024 534.212 237.024ZM466.884 236.936C466.808 236.936 466.731 236.915 466.662 236.871C466.284 236.626 465.9 236.378 465.513 236.125C465.324 236.002 465.27 235.748 465.394 235.558C465.517 235.369 465.771 235.315 465.961 235.439C466.347 235.69 466.729 235.939 467.107 236.183C467.297 236.305 467.351 236.559 467.229 236.749C467.15 236.87 467.019 236.936 466.884 236.936ZM536.917 236.596C536.719 236.596 536.545 236.452 536.513 236.25C536.477 236.027 536.629 235.817 536.853 235.781L538.206 235.566C538.429 235.529 538.639 235.683 538.675 235.906C538.711 236.13 538.558 236.34 538.335 236.375L536.981 236.59C536.96 236.594 536.938 236.596 536.917 236.596ZM539.624 236.164C539.426 236.164 539.252 236.021 539.22 235.819C539.184 235.596 539.336 235.386 539.559 235.35L540.914 235.133C541.136 235.098 541.348 235.249 541.383 235.473C541.419 235.696 541.267 235.906 541.044 235.942L539.689 236.159C539.667 236.163 539.645 236.164 539.624 236.164ZM542.336 235.729C542.138 235.729 541.964 235.586 541.932 235.384C541.896 235.161 542.047 234.951 542.271 234.915L543.637 234.694C543.86 234.659 544.071 234.809 544.107 235.033C544.144 235.256 543.992 235.467 543.769 235.503L542.401 235.724C542.379 235.727 542.357 235.729 542.336 235.729ZM464.592 235.443C464.514 235.443 464.436 235.422 464.367 235.376C463.989 235.128 463.608 234.877 463.224 234.623C463.035 234.498 462.983 234.244 463.108 234.055C463.232 233.867 463.487 233.815 463.676 233.94C464.059 234.193 464.44 234.443 464.817 234.691C465.006 234.815 465.058 235.069 464.935 235.258C464.856 235.378 464.725 235.443 464.592 235.443ZM462.309 233.935C462.231 233.935 462.153 233.913 462.083 233.867C461.705 233.616 461.326 233.363 460.944 233.108C460.756 232.982 460.705 232.728 460.831 232.54C460.956 232.352 461.211 232.301 461.399 232.427C461.78 232.682 462.16 232.934 462.536 233.184C462.725 233.31 462.776 233.564 462.651 233.752C462.572 233.871 462.442 233.935 462.309 233.935ZM460.034 232.416C459.955 232.416 459.876 232.394 459.806 232.347L458.67 231.583C458.483 231.456 458.433 231.202 458.559 231.014C458.686 230.827 458.941 230.776 459.128 230.903L460.263 231.666C460.45 231.792 460.501 232.047 460.374 232.235C460.295 232.353 460.166 232.416 460.034 232.416ZM457.766 230.887C457.687 230.887 457.607 230.865 457.537 230.817L456.404 230.049C456.217 229.922 456.169 229.667 456.296 229.48C456.423 229.292 456.678 229.244 456.865 229.371L457.996 230.138C458.183 230.265 458.233 230.52 458.106 230.707C458.026 230.824 457.898 230.887 457.766 230.887ZM455.504 229.351C455.424 229.351 455.344 229.327 455.273 229.279L454.146 228.51C453.959 228.382 453.911 228.127 454.039 227.94C454.166 227.753 454.421 227.705 454.608 227.833L455.735 228.602C455.922 228.73 455.97 228.985 455.843 229.171C455.763 229.288 455.635 229.351 455.504 229.351ZM453.248 227.808C453.168 227.808 453.088 227.785 453.017 227.736L451.886 226.959C451.7 226.831 451.653 226.576 451.781 226.39C451.91 226.203 452.165 226.157 452.351 226.284L453.481 227.06C453.667 227.188 453.715 227.444 453.587 227.63C453.507 227.746 453.379 227.808 453.248 227.808ZM450.992 226.255C450.911 226.255 450.83 226.232 450.759 226.183L449.634 225.406C449.448 225.277 449.401 225.022 449.53 224.836C449.659 224.649 449.914 224.603 450.1 224.731L451.225 225.508C451.411 225.637 451.458 225.892 451.33 226.078C451.25 226.194 451.122 226.255 450.992 226.255ZM448.742 224.7C448.662 224.7 448.58 224.676 448.509 224.627L447.385 223.847C447.199 223.718 447.153 223.463 447.282 223.277C447.412 223.091 447.667 223.046 447.853 223.175L448.976 223.954C449.162 224.083 449.208 224.338 449.079 224.524C448.999 224.639 448.872 224.7 448.742 224.7ZM446.495 223.14C446.415 223.14 446.333 223.116 446.261 223.066L445.139 222.284C444.953 222.155 444.908 221.899 445.037 221.714C445.167 221.528 445.422 221.483 445.608 221.612L446.73 222.394C446.916 222.523 446.961 222.778 446.832 222.964C446.752 223.078 446.625 223.14 446.495 223.14ZM444.252 221.575C444.171 221.575 444.089 221.551 444.018 221.501L442.904 220.722C442.718 220.593 442.67 220.334 442.799 220.149C442.929 219.964 443.181 219.916 443.366 220.046L444.487 220.829C444.672 220.959 444.718 221.214 444.588 221.4C444.508 221.514 444.381 221.575 444.252 221.575ZM442.011 220.007C441.929 220.007 441.847 219.982 441.776 219.932L440.656 219.146C440.471 219.016 440.426 218.761 440.556 218.576C440.686 218.39 440.942 218.346 441.127 218.476L442.246 219.261C442.431 219.391 442.476 219.646 442.347 219.832C442.267 219.946 442.14 220.007 442.011 220.007ZM439.772 218.434C439.691 218.434 439.608 218.41 439.537 218.36L438.418 217.572C438.233 217.442 438.188 217.186 438.318 217.002C438.449 216.817 438.704 216.772 438.889 216.903L440.008 217.69C440.193 217.82 440.238 218.075 440.108 218.26C440.028 218.374 439.901 218.434 439.772 218.434ZM437.535 216.859C437.453 216.859 437.371 216.835 437.299 216.784L436.181 215.996C435.996 215.865 435.951 215.61 436.082 215.425C436.213 215.24 436.469 215.196 436.653 215.326L437.771 216.115C437.956 216.245 438 216.501 437.87 216.685C437.79 216.799 437.663 216.859 437.535 216.859ZM435.299 215.281C435.217 215.281 435.135 215.257 435.063 215.206L433.945 214.416C433.76 214.285 433.717 214.03 433.847 213.845C433.978 213.66 434.233 213.617 434.418 213.747L435.536 214.537C435.721 214.667 435.765 214.923 435.634 215.108C435.554 215.221 435.428 215.281 435.299 215.281ZM433.064 213.701C432.982 213.701 432.9 213.677 432.828 213.626L431.71 212.835C431.525 212.704 431.481 212.448 431.612 212.264C431.743 212.079 431.999 212.035 432.183 212.166L433.301 212.957C433.486 213.088 433.529 213.343 433.399 213.528C433.319 213.641 433.193 213.701 433.064 213.701ZM430.829 212.119C430.747 212.119 430.664 212.095 430.592 212.044L429.474 211.252C429.289 211.122 429.246 210.866 429.376 210.681C429.507 210.496 429.763 210.453 429.947 210.584L431.066 211.375C431.25 211.506 431.294 211.761 431.163 211.946C431.084 212.059 430.957 212.119 430.829 212.119ZM428.591 210.537C428.509 210.537 428.427 210.512 428.355 210.462L427.235 209.671C427.05 209.541 427.005 209.285 427.136 209.1C427.266 208.915 427.522 208.871 427.707 209.001L428.828 209.793C429.013 209.923 429.057 210.179 428.926 210.364C428.846 210.476 428.72 210.537 428.591 210.537ZM426.346 208.956C426.265 208.956 426.183 208.932 426.111 208.883C425.598 208.524 425.217 208.261 424.984 208.107C424.795 207.981 424.743 207.727 424.869 207.539C424.993 207.35 425.248 207.299 425.437 207.424C425.673 207.58 426.06 207.847 426.58 208.211C426.766 208.34 426.811 208.596 426.682 208.781C426.602 208.895 426.475 208.956 426.346 208.956Z" fill="#122C38"/>
</g>
<mask id="mask29_535_387" style="mask-type:luminance" maskUnits="userSpaceOnUse" x="408" y="190" width="140" height="65">
<path d="M547.186 202.344C547.186 202.344 459.972 195.188 441.858 191.387C423.744 187.585 408.655 195.849 408.655 195.849V214.389C408.655 214.389 455.524 254.32 476.54 254.845C497.556 255.37 541.516 243.636 541.866 241.71C542.216 239.783 541.866 228.399 540.115 227.699C538.363 226.998 480.218 233.654 479.167 232.428C478.484 231.631 468.64 221.748 459.999 214.389H547.186V202.344H547.186Z" fill="white"/>
</mask>
<g mask="url(#mask29_535_387)">
<path d="M411.736 193.416C411.736 193.416 412.504 217.889 412.12 218.273C411.736 218.657 407.417 215.49 407.417 215.49C407.417 215.49 406.914 195.973 407.321 194.76C407.728 193.546 411.736 193.416 411.736 193.416Z" fill="#122C38"/>
</g>
<mask id="mask30_535_387" style="mask-type:luminance" maskUnits="userSpaceOnUse" x="408" y="190" width="140" height="65">
<path d="M547.186 202.344C547.186 202.344 459.972 195.188 441.858 191.387C423.744 187.585 408.655 195.849 408.655 195.849V214.389C408.655 214.389 455.524 254.32 476.54 254.845C497.556 255.37 541.516 243.636 541.866 241.71C542.216 239.783 541.866 228.399 540.115 227.699C538.363 226.998 480.218 233.654 479.167 232.428C478.484 231.631 468.64 221.748 459.999 214.389H547.186V202.344H547.186Z" fill="white"/>
</mask>
<g mask="url(#mask30_535_387)">
<path d="M459.999 214.389C459.999 214.389 441.25 198.952 438.362 198.203C438.362 198.203 457.296 202.482 471.952 206.654C486.607 210.826 548.651 209.97 548.651 209.97V216.175L459.999 214.389Z" fill="#122C38"/>
</g>
<path d="M549.111 228.526C549.111 228.526 550.602 226.148 553.389 225.759C556.175 225.37 557.083 225.759 557.083 225.759C557.083 225.759 564.566 246.036 563.208 246.465C561.851 246.893 558.78 246.965 557.851 246.107C556.922 245.25 549.877 235.447 549.877 235.447C549.877 235.447 550.331 230.146 549.111 228.526Z" fill="black"/>
<mask id="mask31_535_387" style="mask-type:luminance" maskUnits="userSpaceOnUse" x="549" y="225" width="15" height="22">
<path d="M549.111 228.526C549.111 228.526 550.602 226.148 553.389 225.759C556.175 225.37 557.083 225.759 557.083 225.759C557.083 225.759 564.566 246.036 563.208 246.465C561.851 246.893 558.78 246.965 557.851 246.107C556.922 245.25 549.877 235.447 549.877 235.447C549.877 235.447 550.331 230.146 549.111 228.526Z" fill="white"/>
</mask>
<g mask="url(#mask31_535_387)">
<path d="M551.213 238.146C551.213 238.146 553.202 235.88 554.159 235.931C554.751 235.962 555.006 236.37 555.114 236.676C555.181 236.867 555.136 237.079 555.002 237.231C554.445 237.869 552.825 239.679 552.472 239.589C552.044 239.481 551.213 238.146 551.213 238.146Z" fill="#122C38"/>
</g>
<mask id="mask32_535_387" style="mask-type:luminance" maskUnits="userSpaceOnUse" x="549" y="225" width="15" height="22">
<path d="M549.111 228.526C549.111 228.526 550.602 226.148 553.389 225.759C556.175 225.37 557.083 225.759 557.083 225.759C557.083 225.759 564.566 246.036 563.208 246.465C561.851 246.893 558.78 246.965 557.851 246.107C556.922 245.25 549.877 235.447 549.877 235.447C549.877 235.447 550.331 230.146 549.111 228.526Z" fill="white"/>
</mask>
<g mask="url(#mask32_535_387)">
<path d="M553.215 241.084C553.215 241.084 555.204 238.818 556.161 238.868C556.753 238.899 557.008 239.307 557.116 239.613C557.183 239.805 557.138 240.016 557.004 240.169C556.447 240.807 554.827 242.617 554.474 242.527C554.046 242.418 553.215 241.084 553.215 241.084Z" fill="#122C38"/>
</g>
<mask id="mask33_535_387" style="mask-type:luminance" maskUnits="userSpaceOnUse" x="549" y="225" width="15" height="22">
<path d="M549.111 228.526C549.111 228.526 550.602 226.148 553.389 225.759C556.175 225.37 557.083 225.759 557.083 225.759C557.083 225.759 564.566 246.036 563.208 246.465C561.851 246.893 558.78 246.965 557.851 246.107C556.922 245.25 549.877 235.447 549.877 235.447C549.877 235.447 550.331 230.146 549.111 228.526Z" fill="white"/>
</mask>
<g mask="url(#mask33_535_387)">
<path d="M555.054 225.258C555.054 225.258 562.074 246.271 562.026 247.149C562.026 247.149 564.366 247.003 564.366 246.418C564.366 245.833 558.613 225.356 557.881 225.258C557.15 225.161 555.054 225.258 555.054 225.258Z" fill="#122C38"/>
</g>
<path d="M547.187 206.52C547.187 206.52 555.806 207.718 555.967 208.149C556.129 208.58 556.16 214.398 556.16 214.398L547.187 214.414V206.52Z" fill="#E57492"/>
<path d="M555.612 207.977C555.612 207.977 556.626 205.428 559.591 205.265C562.555 205.102 569.492 208.794 570.111 209.054C570.73 209.315 579.084 211.563 579.229 211.636C581.016 212.541 579.425 214.673 579.425 214.673L556.16 214.399L555.612 207.977Z" fill="black"/>
<mask id="mask34_535_387" style="mask-type:luminance" maskUnits="userSpaceOnUse" x="555" y="205" width="26" height="10">
<path d="M555.612 207.977C555.612 207.977 556.626 205.428 559.591 205.265C562.555 205.102 569.492 208.794 570.111 209.054C570.73 209.315 579.084 211.563 579.229 211.636C581.016 212.541 579.425 214.673 579.425 214.673L556.16 214.399L555.612 207.977Z" fill="white"/>
</mask>
<g mask="url(#mask34_535_387)">
<path d="M557.988 205.261C558.272 205.522 568.274 210.277 569.76 210.469C571.246 210.66 580.398 213.124 580.398 213.124C580.398 213.124 580.892 211.873 580.078 211.403C579.264 210.934 570.425 208.822 569.721 208.431C569.017 208.04 560.491 204.599 559.787 204.716C559.083 204.833 557.988 205.261 557.988 205.261Z" fill="#122C38"/>
</g>
<mask id="mask35_535_387" style="mask-type:luminance" maskUnits="userSpaceOnUse" x="555" y="205" width="26" height="10">
<path d="M555.612 207.977C555.612 207.977 556.626 205.428 559.591 205.265C562.555 205.102 569.492 208.794 570.111 209.054C570.73 209.315 579.084 211.563 579.229 211.636C581.016 212.541 579.425 214.673 579.425 214.673L556.16 214.399L555.612 207.977Z" fill="white"/>
</mask>
<g mask="url(#mask35_535_387)">
<path d="M560.514 214.871C560.697 214.212 561.351 211.024 561.848 210.915C562.346 210.805 563.555 211.134 563.518 211.318C563.481 211.501 563.225 214.981 562.419 214.981C561.613 214.981 560.514 214.871 560.514 214.871Z" fill="#122C38"/>
</g>
<mask id="mask36_535_387" style="mask-type:luminance" maskUnits="userSpaceOnUse" x="555" y="205" width="26" height="10">
<path d="M555.612 207.977C555.612 207.977 556.626 205.428 559.591 205.265C562.555 205.102 569.492 208.794 570.111 209.054C570.73 209.315 579.084 211.563 579.229 211.636C581.016 212.541 579.425 214.673 579.425 214.673L556.16 214.399L555.612 207.977Z" fill="white"/>
</mask>
<g mask="url(#mask36_535_387)">
<path d="M565.251 215.787C565.435 215.128 566.088 211.94 566.586 211.831C567.083 211.721 568.293 212.05 568.256 212.234C568.219 212.417 567.963 215.897 567.157 215.897C566.351 215.897 565.251 215.787 565.251 215.787Z" fill="#122C38"/>
</g>
</g>
<defs>
<clipPath id="clip0_535_387">
<rect width="771" height="514" fill="white" transform="translate(14 43)"/>
</clipPath>
</defs>
</svg>
