<svg width="800" height="600" viewBox="0 0 800 600" fill="none" xmlns="http://www.w3.org/2000/svg">
<g clip-path="url(#clip0_535_386)">
<rect width="800" height="600" fill="white"/>
<path d="M120.488 354.302C120.488 354.302 125.304 453.052 208.703 516.433C292.102 579.815 406.235 581.067 498.67 584.519C591.106 587.97 661.158 533.415 670.535 453.88C679.912 374.344 608.975 353.237 569.203 264.234C529.431 175.231 532.347 145.49 450.434 92.4953C368.52 39.5008 242.38 77.4043 177.522 174.428C112.663 271.454 120.488 354.302 120.488 354.302Z" fill="#38BDF8"/>
<path opacity="0.7" d="M120.488 354.302C120.488 354.302 125.304 453.052 208.703 516.433C292.102 579.815 406.235 581.067 498.67 584.519C591.106 587.97 661.158 533.415 670.535 453.88C679.912 374.344 608.975 353.237 569.203 264.234C529.431 175.231 532.347 145.49 450.434 92.4953C368.52 39.5008 242.38 77.4043 177.522 174.428C112.663 271.454 120.488 354.302 120.488 354.302Z" fill="white"/>
<path d="M626.045 493.67C626.045 493.67 621.541 474.528 624.918 457.638C628.296 440.747 636.179 452.008 645.187 440.747C654.196 429.487 649.691 408.092 659.825 399.085C669.959 390.076 684.597 391.203 687.976 374.313C691.354 357.423 693.606 343.91 700.362 346.162C707.119 348.414 694.733 368.682 694.733 381.069C694.733 393.457 701.489 401.338 696.985 413.724C692.48 426.11 673.338 421.606 673.338 436.244C673.338 450.882 681.22 465.521 674.463 475.656C667.707 485.79 649.69 488.042 647.439 493.673C645.187 499.302 639.558 509.438 633.927 509.438C628.297 509.435 626.045 493.67 626.045 493.67Z" fill="#BFBFBF"/>
<path d="M622.381 493.871C623.507 490.492 621.256 461.216 611.121 455.586C600.987 449.957 589.726 452.209 584.097 442.073C578.467 431.94 578.467 427.435 572.836 426.309C567.206 425.183 540.181 420.679 543.56 426.309C546.939 431.938 567.206 422.931 567.206 434.19C567.206 445.451 564.954 463.467 571.711 467.971C578.467 472.475 596.483 471.348 595.357 481.484C594.232 491.617 590.853 494.996 596.483 498.374C602.112 501.751 617.877 516.391 620.129 505.13C622.381 493.871 622.381 493.871 622.381 493.871Z" fill="#BFBFBF"/>
<path d="M634.913 518.697C634.913 518.697 629.668 502.305 644.094 472.143C658.519 441.981 669.01 419.031 675.568 407.229" stroke="#263238" stroke-width="1.2565" stroke-miterlimit="10"/>
<path d="M623.11 521.32C623.11 521.32 621.142 513.452 614.586 491.813C608.029 470.175 600.161 464.274 589.013 457.061C577.866 449.848 577.211 438.046 575.243 434.768" stroke="#263238" stroke-width="1.2565" stroke-miterlimit="10"/>
<path d="M650.65 509.518C650.65 509.518 651.962 497.716 662.453 494.436C672.944 491.158 682.78 492.469 684.746 485.257C686.714 478.044 686.714 470.832 691.302 466.897C695.893 462.963 701.794 460.996 702.449 462.963C703.105 464.931 695.893 466.241 695.893 472.799C695.893 479.357 705.729 495.748 691.302 502.306C676.878 508.864 665.074 502.961 659.828 507.552C654.583 512.142 651.304 515.42 651.304 515.42L650.65 509.518Z" fill="#BFBFBF"/>
<path d="M649.338 521.32C649.338 521.32 653.928 504.272 665.075 500.337C676.222 496.404 688.681 504.927 693.926 497.059C699.172 489.19 695.238 481.322 694.582 476.076" stroke="#263238" stroke-width="1.2565" stroke-miterlimit="10"/>
<path d="M656.714 518.697H616.061C614.251 518.697 612.783 520.166 612.783 521.976C612.783 523.787 614.251 525.254 616.061 525.254H616.389L619.555 533.555C620.058 534.874 621.322 535.745 622.733 535.745H650.045C651.457 535.745 652.721 534.874 653.223 533.555L656.387 525.254H656.716C658.527 525.254 659.994 523.785 659.994 521.976C659.994 520.166 658.526 518.697 656.714 518.697Z" fill="#263238"/>
<path d="M670.376 369.1H475.909C472.448 369.1 469.643 366.294 469.643 362.833V338.242C469.643 334.782 472.448 331.975 475.91 331.975H670.377C673.838 331.975 676.645 334.78 676.645 338.242V362.833C676.643 366.294 673.838 369.1 670.376 369.1Z" fill="#38BDF8"/>
<path d="M485.63 355.646C485.438 355.48 485.343 355.251 485.343 354.959V342.91C485.343 342.618 485.442 342.387 485.641 342.218C485.839 342.048 486.071 341.965 486.337 341.965C486.603 341.965 486.832 342.048 487.024 342.214C487.216 342.379 487.312 342.612 487.312 342.911V354.96C487.312 355.259 487.214 355.489 487.019 355.652C486.824 355.815 486.59 355.896 486.317 355.896C486.05 355.895 485.821 355.811 485.63 355.646Z" fill="#263238"/>
<path d="M491.005 355.685C490.836 355.538 490.752 355.332 490.752 355.065V347.052C490.752 346.793 490.84 346.589 491.016 346.443C491.192 346.296 491.4 346.223 491.639 346.223C491.879 346.223 492.086 346.293 492.258 346.432C492.43 346.572 492.516 346.769 492.516 347.022V347.87C492.762 347.279 493.167 346.824 493.73 346.505C494.293 346.188 494.947 346.027 495.695 346.027C496.767 346.027 497.621 346.34 498.258 346.963C498.895 347.587 499.213 348.532 499.213 349.801V355.065C499.213 355.331 499.127 355.538 498.955 355.685C498.783 355.83 498.576 355.904 498.336 355.904C498.095 355.904 497.889 355.832 497.717 355.685C497.545 355.538 497.459 355.332 497.459 355.065V349.782C497.459 348.951 497.265 348.317 496.879 347.881C496.492 347.445 495.948 347.228 495.246 347.228C494.499 347.228 493.868 347.494 493.355 348.028C492.842 348.56 492.562 349.286 492.517 350.202V355.066C492.517 355.326 492.427 355.531 492.249 355.681C492.07 355.83 491.861 355.904 491.62 355.904C491.379 355.904 491.175 355.832 491.005 355.685Z" fill="#263238"/>
<path d="M503.434 355.313C502.992 354.828 502.771 354.083 502.771 353.075V347.46H501.582C501.367 347.46 501.203 347.409 501.089 347.304C500.975 347.199 500.918 347.06 500.918 346.884C500.918 346.715 500.974 346.577 501.084 346.47C501.194 346.363 501.357 346.31 501.571 346.31H502.771L503.005 343.541C503.018 343.333 503.111 343.155 503.283 343.005C503.455 342.855 503.646 342.781 503.854 342.781C504.048 342.781 504.211 342.842 504.341 342.961C504.471 343.082 504.536 343.255 504.536 343.483V346.31H506.33C506.544 346.31 506.704 346.365 506.812 346.475C506.919 346.585 506.973 346.728 506.973 346.904C506.973 347.275 506.759 347.46 506.33 347.46H504.536V352.773C504.536 353.442 504.63 353.925 504.819 354.221C505.007 354.516 505.306 354.664 505.715 354.664H505.823L506.486 354.635H506.544C506.759 354.635 506.928 354.704 507.051 354.84C507.174 354.977 507.237 355.135 507.237 355.318C507.237 355.481 507.201 355.612 507.129 355.713C507.058 355.813 506.949 355.886 506.802 355.933C506.655 355.978 506.51 356.007 506.364 356.02C506.218 356.033 506.028 356.04 505.793 356.04H505.219C504.471 356.04 503.876 355.797 503.434 355.313Z" fill="#263238"/>
<path d="M511.038 355.474C510.316 355.078 509.743 354.494 509.318 353.724C508.892 352.953 508.68 352.056 508.68 351.028C508.68 350.125 508.858 349.299 509.216 348.552C509.573 347.805 510.112 347.198 510.834 346.729C511.555 346.262 512.396 346.027 513.359 346.027C514.119 346.027 514.785 346.154 515.357 346.407C515.929 346.66 516.384 347.01 516.722 347.456C517.059 347.901 517.313 348.399 517.482 348.947C517.651 349.496 517.745 350.099 517.765 350.755C517.765 350.943 517.713 351.1 517.609 351.223C517.504 351.346 517.349 351.408 517.141 351.408H510.454C510.467 352.526 510.766 353.373 511.35 353.948C511.935 354.522 512.686 354.817 513.602 354.829C514.181 354.829 514.7 354.725 515.162 354.517C515.624 354.309 516.087 354.026 516.556 353.668C516.673 353.577 516.797 353.532 516.927 353.532C517.083 353.532 517.214 353.591 517.321 353.712C517.429 353.832 517.483 353.974 517.483 354.136C517.483 354.343 517.392 354.529 517.21 354.692C516.184 355.614 514.942 356.076 513.487 356.076C512.575 356.073 511.759 355.87 511.038 355.474ZM516.224 350.328C516.166 349.418 515.909 348.674 515.453 348.095C514.998 347.517 514.332 347.228 513.455 347.228C513 347.228 512.588 347.316 512.217 347.492C511.847 347.668 511.543 347.902 511.306 348.199C511.069 348.494 510.88 348.822 510.741 349.184C510.601 349.544 510.515 349.927 510.483 350.329H516.224V350.328Z" fill="#263238"/>
<path d="M520.464 355.689C520.295 355.546 520.211 355.344 520.211 355.085V347.043C520.211 346.783 520.299 346.583 520.475 346.443C520.651 346.303 520.859 346.234 521.098 346.234C521.339 346.234 521.546 346.304 521.717 346.443C521.889 346.582 521.975 346.775 521.975 347.023L521.964 348.193C522.127 347.59 522.454 347.084 522.944 346.677C523.435 346.271 524.025 346.068 524.713 346.068C524.921 346.068 525.085 346.146 525.206 346.303C525.326 346.459 525.386 346.64 525.386 346.848C525.386 347.043 525.33 347.211 525.22 347.35C525.11 347.489 524.95 347.559 524.742 347.559C523.864 347.559 523.184 347.787 522.701 348.241C522.216 348.696 521.975 349.303 521.975 350.064V355.085C521.975 355.344 521.885 355.546 521.706 355.689C521.527 355.832 521.318 355.903 521.077 355.903C520.838 355.903 520.632 355.832 520.464 355.689Z" fill="#263238"/>
<path d="M527.541 355.685C527.372 355.538 527.289 355.332 527.289 355.065V347.052C527.289 346.793 527.376 346.589 527.552 346.443C527.728 346.296 527.936 346.223 528.176 346.223C528.417 346.223 528.622 346.293 528.794 346.432C528.966 346.572 529.052 346.769 529.052 347.022V347.87C529.298 347.279 529.704 346.824 530.266 346.505C530.829 346.188 531.483 346.027 532.231 346.027C533.304 346.027 534.157 346.34 534.794 346.963C535.431 347.587 535.749 348.532 535.749 349.801V355.065C535.749 355.331 535.663 355.538 535.491 355.685C535.319 355.83 535.112 355.904 534.871 355.904C534.631 355.904 534.425 355.832 534.253 355.685C534.081 355.538 533.995 355.332 533.995 355.065V349.782C533.995 348.951 533.801 348.317 533.415 347.881C533.028 347.445 532.484 347.228 531.782 347.228C531.035 347.228 530.405 347.494 529.892 348.028C529.378 348.56 529.098 349.286 529.053 350.202V355.066C529.053 355.326 528.963 355.531 528.786 355.681C528.607 355.83 528.398 355.904 528.157 355.904C527.915 355.904 527.711 355.832 527.541 355.685Z" fill="#263238"/>
<path d="M538.742 355.348C538.105 354.861 537.788 354.169 537.788 353.272C537.788 352.902 537.826 352.577 537.904 352.298C537.982 352.018 538.092 351.773 538.235 351.562C538.378 351.351 538.579 351.172 538.84 351.025C539.1 350.878 539.386 350.759 539.698 350.664C540.011 350.57 540.406 350.498 540.887 350.449C541.368 350.401 541.863 350.366 542.374 350.348C542.884 350.328 543.499 350.318 544.221 350.318V349.255C544.221 348.56 544.036 348.046 543.665 347.715C543.294 347.384 542.778 347.218 542.114 347.218C541.719 347.218 541.321 347.26 540.925 347.345C540.53 347.429 540.217 347.514 539.989 347.598C539.762 347.682 539.482 347.799 539.151 347.948C539.086 347.982 539.008 347.997 538.917 347.997C538.747 347.997 538.602 347.927 538.479 347.788C538.356 347.649 538.293 347.494 538.293 347.325C538.293 347.13 538.385 346.981 538.566 346.876C539.574 346.311 540.772 346.027 542.163 346.027C543.352 346.027 544.284 346.304 544.956 346.856C545.628 347.408 545.965 348.26 545.965 349.41V355.093C545.965 355.346 545.875 355.546 545.696 355.693C545.517 355.838 545.311 355.912 545.078 355.912C544.843 355.912 544.643 355.842 544.478 355.703C544.312 355.563 544.229 355.367 544.229 355.113V354.177C543.625 355.444 542.624 356.078 541.226 356.078C540.207 356.08 539.379 355.837 538.742 355.348ZM543.376 353.985C543.938 353.368 544.22 352.581 544.22 351.625V351.333C543.413 351.333 542.758 351.347 542.251 351.376C541.744 351.405 541.295 351.457 540.906 351.533C540.515 351.607 540.224 351.718 540.028 351.864C539.833 352.01 539.689 352.187 539.594 352.394C539.5 352.602 539.452 352.868 539.452 353.194C539.452 353.786 539.628 354.219 539.979 354.496C540.33 354.772 540.808 354.91 541.411 354.91C542.159 354.91 542.815 354.602 543.376 353.985Z" fill="#263238"/>
<path d="M549.202 355.674C549.033 355.522 548.949 355.302 548.949 355.016V342.86C548.949 342.587 549.039 342.373 549.217 342.217C549.395 342.061 549.605 341.982 549.846 341.982C550.08 341.982 550.282 342.061 550.455 342.217C550.627 342.373 550.713 342.587 550.713 342.86V355.016C550.713 355.289 550.624 355.504 550.445 355.665C550.267 355.823 550.057 355.903 549.816 355.903C549.575 355.903 549.37 355.826 549.202 355.674Z" fill="#263238"/>
<path d="M559.28 354.442C559.202 354.371 559.164 354.273 559.164 354.15C559.164 353.942 559.263 353.727 559.46 353.506C559.659 353.285 559.859 353.175 560.06 353.175C560.151 353.175 560.232 353.202 560.304 353.253C561.409 354.111 562.688 354.54 564.144 354.54C565.094 354.54 565.868 354.352 566.469 353.975C567.071 353.597 567.371 353.052 567.371 352.337C567.371 351.993 567.327 351.699 567.24 351.455C567.153 351.212 567.006 350.998 566.802 350.817C566.597 350.636 566.365 350.482 566.105 350.359C565.846 350.236 565.507 350.102 565.091 349.959L562.294 349.023C561.261 348.672 560.49 348.23 559.983 347.698C559.476 347.165 559.223 346.431 559.223 345.495C559.223 344.741 559.443 344.078 559.881 343.506C560.319 342.934 560.911 342.502 561.655 342.21C562.399 341.917 563.239 341.771 564.175 341.771C565.091 341.771 565.966 341.92 566.802 342.215C567.637 342.51 568.275 342.857 568.718 343.253C568.867 343.383 568.941 343.546 568.941 343.74C568.941 343.942 568.867 344.124 568.718 344.286C568.568 344.449 568.389 344.529 568.181 344.529C568.032 344.529 567.889 344.484 567.752 344.393C567.356 344.133 566.857 343.894 566.256 343.677C565.655 343.458 565.013 343.35 564.331 343.35C563.357 343.35 562.577 343.528 561.992 343.886C561.406 344.243 561.114 344.76 561.114 345.436C561.114 345.943 561.265 346.347 561.567 346.65C561.869 346.952 562.352 347.214 563.014 347.434L565.821 348.341C566.386 348.523 566.865 348.715 567.259 348.916C567.652 349.117 568.009 349.362 568.331 349.652C568.653 349.942 568.894 350.287 569.053 350.69C569.211 351.092 569.292 351.557 569.292 352.084C569.292 353.358 568.822 354.349 567.883 355.056C566.945 355.765 565.67 356.12 564.057 356.12C562.075 356.118 560.484 355.56 559.28 354.442Z" fill="#263238"/>
<path d="M573.63 355.474C572.908 355.078 572.335 354.494 571.909 353.724C571.484 352.953 571.271 352.056 571.271 351.028C571.271 350.125 571.449 349.299 571.807 348.552C572.164 347.805 572.703 347.198 573.425 346.729C574.146 346.262 574.987 346.027 575.95 346.027C576.709 346.027 577.375 346.154 577.947 346.407C578.519 346.66 578.974 347.01 579.312 347.456C579.65 347.901 579.904 348.399 580.072 348.947C580.242 349.496 580.336 350.099 580.356 350.755C580.356 350.943 580.304 351.1 580.2 351.223C580.096 351.346 579.94 351.408 579.732 351.408H573.045C573.058 352.526 573.357 353.373 573.941 353.948C574.526 354.522 575.277 354.817 576.193 354.829C576.772 354.829 577.292 354.725 577.753 354.517C578.215 354.309 578.68 354.026 579.147 353.668C579.264 353.577 579.387 353.532 579.518 353.532C579.674 353.532 579.805 353.591 579.912 353.712C580.02 353.832 580.074 353.974 580.074 354.136C580.074 354.343 579.982 354.529 579.801 354.692C578.774 355.614 577.533 356.076 576.077 356.076C575.167 356.073 574.351 355.87 573.63 355.474ZM578.816 350.328C578.758 349.418 578.501 348.674 578.045 348.095C577.59 347.517 576.924 347.228 576.048 347.228C575.592 347.228 575.18 347.316 574.81 347.492C574.439 347.668 574.136 347.902 573.897 348.199C573.66 348.494 573.472 348.822 573.332 349.184C573.193 349.544 573.106 349.927 573.074 350.329H578.816V350.328Z" fill="#263238"/>
<path d="M583.057 355.689C582.887 355.546 582.804 355.344 582.804 355.085V347.043C582.804 346.783 582.891 346.583 583.067 346.443C583.243 346.303 583.451 346.234 583.691 346.234C583.932 346.234 584.137 346.304 584.31 346.443C584.483 346.582 584.569 346.775 584.569 347.023L584.559 348.193C584.722 347.59 585.048 347.084 585.539 346.677C586.03 346.271 586.619 346.068 587.308 346.068C587.516 346.068 587.68 346.146 587.8 346.303C587.921 346.459 587.981 346.64 587.981 346.848C587.981 347.043 587.925 347.211 587.815 347.35C587.705 347.489 587.545 347.559 587.337 347.559C586.459 347.559 585.779 347.787 585.295 348.241C584.811 348.696 584.569 349.303 584.569 350.064V355.085C584.569 355.344 584.48 355.546 584.301 355.689C584.122 355.832 583.913 355.903 583.672 355.903C583.43 355.903 583.225 355.832 583.057 355.689Z" fill="#263238"/>
<path d="M592.624 355.617C592.413 355.418 592.207 355.079 592.004 354.598L588.963 347.316C588.923 347.232 588.905 347.142 588.905 347.044C588.905 346.823 588.997 346.629 589.183 346.464C589.368 346.298 589.575 346.215 589.801 346.215C590.139 346.215 590.38 346.4 590.523 346.771L593.506 354.111L596.479 346.771C596.622 346.4 596.863 346.215 597.201 346.215C597.429 346.215 597.634 346.298 597.819 346.464C598.005 346.629 598.097 346.823 598.097 347.044C598.097 347.142 598.077 347.232 598.039 347.316L594.998 354.598C594.797 355.079 594.59 355.419 594.38 355.617C594.168 355.815 593.878 355.914 593.507 355.914C593.13 355.913 592.836 355.814 592.624 355.617Z" fill="#263238"/>
<path d="M601.762 355.474C601.04 355.078 600.467 354.494 600.042 353.724C599.616 352.953 599.404 352.056 599.404 351.028C599.404 350.125 599.583 349.299 599.94 348.552C600.298 347.805 600.836 347.198 601.558 346.729C602.28 346.262 603.122 346.027 604.083 346.027C604.843 346.027 605.509 346.154 606.081 346.407C606.653 346.66 607.108 347.01 607.446 347.456C607.783 347.901 608.038 348.399 608.206 348.947C608.375 349.496 608.469 350.099 608.489 350.755C608.489 350.943 608.437 351.1 608.333 351.223C608.228 351.346 608.073 351.408 607.864 351.408H601.177C601.19 352.526 601.489 353.373 602.073 353.948C602.658 354.522 603.409 354.817 604.325 354.829C604.904 354.829 605.423 354.725 605.885 354.517C606.346 354.309 606.81 354.026 607.279 353.668C607.395 353.577 607.52 353.532 607.65 353.532C607.806 353.532 607.937 353.591 608.044 353.712C608.151 353.832 608.206 353.974 608.206 354.136C608.206 354.343 608.114 354.529 607.933 354.692C606.906 355.614 605.665 356.076 604.209 356.076C603.299 356.073 602.483 355.87 601.762 355.474ZM606.948 350.328C606.89 349.418 606.633 348.674 606.177 348.095C605.722 347.517 605.056 347.228 604.179 347.228C603.724 347.228 603.312 347.316 602.942 347.492C602.571 347.668 602.268 347.902 602.031 348.199C601.794 348.494 601.604 348.822 601.465 349.184C601.325 349.544 601.239 349.927 601.207 350.329H606.948V350.328Z" fill="#263238"/>
<path d="M611.189 355.689C611.019 355.546 610.936 355.344 610.936 355.085V347.043C610.936 346.783 611.023 346.583 611.2 346.443C611.376 346.303 611.583 346.234 611.823 346.234C612.064 346.234 612.269 346.304 612.441 346.443C612.614 346.582 612.7 346.775 612.7 347.023L612.69 348.193C612.853 347.59 613.179 347.084 613.67 346.677C614.161 346.271 614.75 346.068 615.439 346.068C615.647 346.068 615.811 346.146 615.932 346.303C616.052 346.459 616.112 346.64 616.112 346.848C616.112 347.043 616.056 347.211 615.946 347.35C615.836 347.489 615.676 347.559 615.468 347.559C614.59 347.559 613.91 347.787 613.426 348.241C612.942 348.696 612.701 349.303 612.701 350.064V355.085C612.701 355.344 612.611 355.546 612.433 355.689C612.255 355.832 612.046 355.903 611.805 355.903C611.562 355.903 611.358 355.832 611.189 355.689Z" fill="#263238"/>
<path d="M624.217 355.616C624.019 355.424 623.919 355.201 623.919 354.949V342.929C623.919 342.676 624.009 342.454 624.188 342.262C624.367 342.07 624.587 341.975 624.846 341.975H632.07C632.316 341.975 632.508 342.051 632.645 342.204C632.781 342.356 632.849 342.54 632.849 342.754C632.849 342.969 632.781 343.154 632.645 343.311C632.508 343.467 632.316 343.545 632.07 343.545H625.89V347.98H631.739C631.992 347.98 632.188 348.054 632.324 348.204C632.461 348.354 632.529 348.532 632.529 348.74C632.529 348.948 632.459 349.128 632.32 349.282C632.181 349.434 631.987 349.511 631.74 349.511H625.891V354.337H632.324C632.57 354.337 632.762 354.415 632.899 354.571C633.035 354.727 633.104 354.913 633.104 355.127C633.104 355.342 633.035 355.526 632.899 355.678C632.762 355.83 632.57 355.907 632.324 355.907H624.897C624.641 355.903 624.416 355.808 624.217 355.616Z" fill="#263238"/>
<path d="M636.047 355.689C635.877 355.546 635.794 355.344 635.794 355.085V347.043C635.794 346.783 635.881 346.583 636.057 346.443C636.233 346.303 636.441 346.234 636.681 346.234C636.922 346.234 637.129 346.304 637.299 346.443C637.471 346.582 637.558 346.775 637.558 347.023L637.548 348.193C637.711 347.59 638.037 347.084 638.528 346.677C639.019 346.271 639.608 346.068 640.297 346.068C640.505 346.068 640.669 346.146 640.789 346.303C640.91 346.459 640.969 346.64 640.969 346.848C640.969 347.043 640.914 347.211 640.804 347.35C640.694 347.489 640.534 347.559 640.326 347.559C639.448 347.559 638.768 347.787 638.283 348.241C637.798 348.696 637.558 349.303 637.558 350.064V355.085C637.558 355.344 637.467 355.546 637.289 355.689C637.11 355.832 636.901 355.903 636.66 355.903C636.42 355.903 636.215 355.832 636.047 355.689Z" fill="#263238"/>
<path d="M643.143 355.689C642.973 355.546 642.89 355.344 642.89 355.085V347.043C642.89 346.783 642.977 346.583 643.153 346.443C643.328 346.303 643.536 346.234 643.777 346.234C644.018 346.234 644.223 346.304 644.395 346.443C644.567 346.582 644.653 346.775 644.653 347.023L644.644 348.193C644.807 347.59 645.133 347.084 645.624 346.677C646.115 346.271 646.704 346.068 647.393 346.068C647.6 346.068 647.765 346.146 647.885 346.303C648.006 346.459 648.065 346.64 648.065 346.848C648.065 347.043 648.01 347.211 647.9 347.35C647.79 347.489 647.63 347.559 647.422 347.559C646.544 347.559 645.863 347.787 645.379 348.241C644.894 348.695 644.653 349.303 644.653 350.064V355.085C644.653 355.344 644.563 355.546 644.384 355.689C644.206 355.832 643.997 355.903 643.756 355.903C643.517 355.903 643.312 355.832 643.143 355.689Z" fill="#263238"/>
<path d="M650.624 354.665C649.744 353.722 649.303 352.52 649.303 351.059C649.303 349.59 649.744 348.384 650.624 347.441C651.505 346.499 652.692 346.027 654.187 346.027C655.682 346.027 656.869 346.497 657.75 347.436C658.63 348.375 659.071 349.582 659.071 351.057C659.071 352.519 658.633 353.721 657.755 354.664C656.877 355.606 655.688 356.078 654.187 356.078C652.692 356.079 651.505 355.608 650.624 354.665ZM656.492 353.851C657.042 353.172 657.316 352.241 657.316 351.059C657.316 349.883 657.038 348.949 656.483 348.261C655.927 347.572 655.161 347.228 654.187 347.228C653.206 347.228 652.439 347.571 651.886 348.257C651.334 348.943 651.057 349.876 651.057 351.06C651.057 352.23 651.331 353.157 651.881 353.843C652.43 354.529 653.191 354.872 654.167 354.872C655.168 354.87 655.944 354.53 656.492 353.851Z" fill="#263238"/>
<path d="M661.527 355.689C661.358 355.546 661.274 355.344 661.274 355.085V347.043C661.274 346.783 661.362 346.583 661.538 346.443C661.713 346.303 661.922 346.234 662.161 346.234C662.402 346.234 662.608 346.304 662.78 346.443C662.952 346.582 663.038 346.775 663.038 347.023L663.029 348.193C663.192 347.59 663.517 347.084 664.008 346.677C664.5 346.271 665.089 346.068 665.777 346.068C665.985 346.068 666.149 346.146 666.27 346.303C666.39 346.459 666.45 346.64 666.45 346.848C666.45 347.043 666.394 347.211 666.284 347.35C666.175 347.489 666.014 347.559 665.806 347.559C664.929 347.559 664.248 347.787 663.764 348.241C663.279 348.696 663.038 349.303 663.038 350.064V355.085C663.038 355.344 662.948 355.546 662.771 355.689C662.592 355.832 662.383 355.903 662.142 355.903C661.901 355.903 661.697 355.832 661.527 355.689Z" fill="#263238"/>
<path d="M488.438 311.3C487.367 310.328 486.833 309.113 486.833 307.655C486.833 306.132 487.392 304.73 488.51 303.45C489.628 302.17 490.884 301.53 492.278 301.53C492.731 301.53 493.186 301.611 493.639 301.774C494.092 301.936 494.531 302.18 494.952 302.503C499.327 305.906 503.994 307.606 508.952 307.606C512.744 307.606 515.661 306.61 517.703 304.616C519.745 302.624 520.765 299.682 520.765 295.794C520.765 292.067 519.671 289.16 517.483 287.068C515.296 284.977 512.548 283.933 509.245 283.933C505.453 283.933 501.791 285.262 498.258 287.919C497.608 288.47 496.701 288.744 495.535 288.744C493.753 288.744 492.099 288.144 490.576 286.946C489.053 285.747 488.293 284.126 488.293 282.086V254.475C488.293 251.721 488.956 249.841 490.286 248.836C491.613 247.831 493.835 247.328 496.946 247.328H526.209C527.797 247.328 529.069 247.815 530.026 248.787C530.981 249.759 531.459 251.088 531.459 252.774C531.459 254.459 530.957 255.781 529.952 256.735C528.946 257.691 527.539 258.169 525.723 258.169H500.689L500.446 276.69L501.905 275.815C502.876 275.231 504.48 274.648 506.716 274.065C508.952 273.481 511.317 273.19 513.813 273.19C520.165 273.19 525.341 275.184 529.344 279.169C533.346 283.156 535.348 288.617 535.348 295.551C535.348 300.251 534.197 304.383 531.897 307.947C529.595 311.512 526.483 314.218 522.563 316.066C518.641 317.913 514.234 318.836 509.341 318.836C501.368 318.835 494.4 316.324 488.438 311.3Z" fill="#263238"/>
<path d="M560.309 317.183C557.182 315.887 554.605 314.128 552.581 311.908C550.555 309.689 548.878 307.008 547.55 303.865C546.22 300.722 545.28 297.406 544.731 293.923C544.179 290.439 543.903 286.671 543.903 282.62C543.903 278.633 544.177 274.923 544.731 271.489C545.28 268.053 546.212 264.764 547.524 261.62C548.838 258.477 550.498 255.802 552.508 253.599C554.517 251.396 557.093 249.638 560.236 248.324C563.379 247.012 566.945 246.355 570.931 246.355C574.852 246.355 578.362 246.996 581.456 248.275C584.55 249.557 587.109 251.29 589.136 253.477C591.162 255.665 592.848 258.323 594.193 261.449C595.537 264.578 596.494 267.874 597.061 271.342C597.627 274.81 597.912 278.57 597.912 282.62C597.912 286.639 597.635 290.39 597.084 293.874C596.534 297.357 595.594 300.671 594.266 303.816C592.936 306.959 591.259 309.64 589.234 311.859C587.209 314.079 584.64 315.846 581.53 317.159C578.419 318.472 574.885 319.128 570.933 319.128C566.977 319.128 563.436 318.478 560.309 317.183ZM576.958 305.88C578.578 304.6 579.785 302.73 580.579 300.265C581.374 297.803 581.925 295.194 582.232 292.439C582.54 289.685 582.695 286.412 582.695 282.62C582.695 279.638 582.614 277.022 582.452 274.77C582.289 272.518 581.958 270.266 581.456 268.013C580.953 265.761 580.28 263.914 579.438 262.471C578.595 261.029 577.461 259.863 576.034 258.971C574.608 258.081 572.907 257.635 570.931 257.635C569.279 257.635 567.82 257.926 566.556 258.51C565.291 259.092 564.239 259.961 563.395 261.111C562.552 262.262 561.848 263.558 561.282 265C560.713 266.442 560.277 268.151 559.97 270.128C559.662 272.105 559.45 274.065 559.339 276.01C559.225 277.955 559.168 280.159 559.168 282.621C559.168 285.084 559.225 287.296 559.339 289.256C559.451 291.217 559.662 293.193 559.97 295.187C560.277 297.18 560.714 298.906 561.282 300.364C561.848 301.823 562.553 303.127 563.395 304.278C564.239 305.428 565.291 306.304 566.556 306.903C567.82 307.503 569.279 307.801 570.931 307.801C573.329 307.801 575.336 307.16 576.958 305.88Z" fill="#263238"/>
<path d="M621.851 317.183C618.724 315.887 616.147 314.128 614.123 311.908C612.097 309.689 610.42 307.008 609.092 303.865C607.762 300.722 606.822 297.406 606.273 293.923C605.721 290.439 605.447 286.671 605.447 282.62C605.447 278.633 605.721 274.923 606.273 271.489C606.822 268.053 607.755 264.764 609.068 261.62C610.381 258.477 612.042 255.802 614.05 253.599C616.059 251.396 618.635 249.638 621.778 248.324C624.922 247.012 628.487 246.355 632.474 246.355C636.394 246.355 639.903 246.996 642.998 248.275C646.091 249.557 648.652 251.29 650.677 253.477C652.703 255.665 654.388 258.323 655.734 261.449C657.078 264.578 658.033 267.874 658.601 271.342C659.168 274.81 659.453 278.57 659.453 282.62C659.453 286.639 659.176 290.39 658.625 293.874C658.074 297.357 657.134 300.671 655.806 303.816C654.477 306.959 652.8 309.64 650.774 311.859C648.748 314.079 646.18 315.846 643.07 317.159C639.958 318.472 636.424 319.128 632.472 319.128C628.519 319.128 624.978 318.478 621.851 317.183ZM638.5 305.88C640.12 304.6 641.327 302.73 642.122 300.265C642.916 297.803 643.467 295.194 643.774 292.439C644.082 289.685 644.237 286.412 644.237 282.62C644.237 279.638 644.157 277.022 643.994 274.77C643.831 272.518 643.5 270.266 642.998 268.013C642.495 265.761 641.822 263.914 640.98 262.471C640.137 261.029 639.004 259.863 637.576 258.971C636.15 258.081 634.449 257.635 632.474 257.635C630.821 257.635 629.362 257.926 628.098 258.51C626.833 259.092 625.781 259.961 624.937 261.111C624.094 262.262 623.39 263.558 622.824 265C622.255 266.442 621.818 268.151 621.511 270.128C621.202 272.105 620.991 274.065 620.879 276.01C620.765 277.955 620.709 280.159 620.709 282.621C620.709 285.084 620.765 287.296 620.879 289.256C620.992 291.217 621.202 293.193 621.511 295.187C621.818 297.18 622.255 298.906 622.824 300.364C623.39 301.823 624.095 303.127 624.937 304.278C625.781 305.428 626.833 306.304 628.098 306.903C629.362 307.503 630.821 307.801 632.474 307.801C634.871 307.801 636.879 307.16 638.5 305.88Z" fill="#263238"/>
<path d="M271.58 448.23C271.58 448.23 284.179 445.733 294.992 454.052C305.805 462.371 314.035 483.516 318.284 513.112C322.533 542.708 324.939 555.535 349.893 559.694C374.848 563.853 434.741 562.19 470.508 561.358C506.278 560.527 504.613 527.253 474.667 523.926C444.721 520.599 424.002 528.59 392.77 521.683C361.538 514.776 420.598 505.626 465.517 512.28C510.436 518.935 530.4 520.599 554.523 518.103" stroke="#263238" stroke-width="2.5131" stroke-miterlimit="10" stroke-linecap="round" stroke-linejoin="round"/>
<path d="M271.58 403.947C271.58 403.947 295.824 404.143 302.48 429.098C309.134 454.053 311.63 488.99 312.461 516.441C313.293 543.891 314.126 567.182 345.735 573.838C377.344 580.492 463.023 577.996 486.314 573.006C509.606 568.015 535.392 545.556 516.261 540.564C497.129 535.573 470.51 540.564 480.491 547.219C490.473 553.873 517.092 552.21 548.701 548.05" stroke="#263238" stroke-width="2.5131" stroke-miterlimit="10" stroke-linecap="round" stroke-linejoin="round"/>
<path d="M276.552 490.789C276.552 490.789 291.362 489.5 297.157 506.242C302.952 522.984 295.869 526.848 299.089 535.219C302.309 543.591 322.624 535.774 322.53 542.709C322.445 549.038 314.419 550.819 268.18 548.098C207.725 544.539 167.727 553.893 170.947 559.69C174.167 565.485 222.461 560.978 210.871 569.993C199.28 579.008 170.947 568.705 149.053 568.061C127.159 567.418 123.296 572.569 123.296 572.569" stroke="#263238" stroke-width="2.5131" stroke-miterlimit="10" stroke-linecap="round" stroke-linejoin="round"/>
<path d="M278.347 254.268H132.778C130.175 254.268 128.065 256.378 128.065 258.981V534.744C128.065 537.347 130.175 539.457 132.778 539.457H278.347C280.95 539.457 283.06 537.347 283.06 534.744V258.981C283.059 256.378 280.949 254.268 278.347 254.268Z" fill="#263238" stroke="#263238" stroke-width="1.2565" stroke-miterlimit="10" stroke-linecap="round" stroke-linejoin="round"/>
<path d="M279.28 296.992H131.77V406.239H279.28V296.992Z" fill="#616161"/>
<path d="M279.28 423.984H131.77V533.232H279.28V423.984Z" fill="#616161"/>
<path d="M260.98 437.295H177.242V522.696H260.98V437.295Z" fill="#38BDF8" stroke="#263238" stroke-width="1.2565" stroke-miterlimit="10" stroke-linecap="round" stroke-linejoin="round"/>
<path d="M260.98 309.193H177.242V330.266H260.98V309.193Z" fill="#38BDF8" stroke="#263238" stroke-width="1.2565" stroke-miterlimit="10" stroke-linecap="round" stroke-linejoin="round"/>
<path d="M260.98 349.676H177.242V370.749H260.98V349.676Z" fill="#38BDF8" stroke="#263238" stroke-width="1.2565" stroke-miterlimit="10" stroke-linecap="round" stroke-linejoin="round"/>
<path d="M258.178 299.438L256.56 303.866H182.375L180.757 299.438H165.042V318.923H180.757L182.375 314.494H256.56L258.178 318.923H275.974V299.438H258.178Z" fill="#263238" stroke="#263238" stroke-width="1.2565" stroke-miterlimit="10" stroke-linecap="round" stroke-linejoin="round"/>
<path d="M258.178 320.693L256.56 325.121H182.375L180.757 320.693H165.042V340.177H180.757L182.375 335.75H256.56L258.178 340.177H275.974V320.693H258.178Z" fill="#263238" stroke="#263238" stroke-width="1.2565" stroke-miterlimit="10" stroke-linecap="round" stroke-linejoin="round"/>
<path d="M258.178 341.949L256.56 346.378H182.375L180.757 341.949H165.042V361.435H180.757L182.375 357.006H256.56L258.178 361.435H275.974V341.949H258.178Z" fill="#263238" stroke="#263238" stroke-width="1.2565" stroke-miterlimit="10" stroke-linecap="round" stroke-linejoin="round"/>
<path d="M258.178 363.207L256.56 367.636H182.375L180.757 363.207H165.042V382.692H180.757L182.375 378.264H256.56L258.178 382.692H275.974V363.207H258.178Z" fill="#263238" stroke="#263238" stroke-width="1.2565" stroke-miterlimit="10" stroke-linecap="round" stroke-linejoin="round"/>
<path d="M258.178 384.461L256.56 388.89H182.375L180.757 384.461H165.042V403.946H180.757L182.375 399.517H256.56L258.178 403.946H275.974V384.461H258.178Z" fill="#263238" stroke="#263238" stroke-width="1.2565" stroke-miterlimit="10" stroke-linecap="round" stroke-linejoin="round"/>
<path d="M258.178 426.975L256.56 431.402H182.375L180.757 426.975H165.042V446.459H180.757L182.375 442.031H256.56L258.178 446.459H275.974V426.975H258.178Z" fill="#263238" stroke="#263238" stroke-width="1.2565" stroke-miterlimit="10" stroke-linecap="round" stroke-linejoin="round"/>
<path d="M258.178 448.23L256.56 452.659H182.375L180.757 448.23H165.042V467.716H180.757L182.375 463.287H256.56L258.178 467.716H275.974V448.23H258.178Z" fill="#263238" stroke="#263238" stroke-width="1.2565" stroke-miterlimit="10" stroke-linecap="round" stroke-linejoin="round"/>
<path d="M258.178 469.488L256.56 473.917H182.375L180.757 469.488H165.042V488.974H180.757L182.375 484.545H256.56L258.178 488.974H275.974V469.488H258.178Z" fill="#263238" stroke="#263238" stroke-width="1.2565" stroke-miterlimit="10" stroke-linecap="round" stroke-linejoin="round"/>
<path d="M258.178 490.744L256.56 495.172H182.375L180.757 490.744H165.042V510.228H180.757L182.375 505.801H256.56L258.178 510.228H275.974V490.744H258.178Z" fill="#263238" stroke="#263238" stroke-width="1.2565" stroke-miterlimit="10" stroke-linecap="round" stroke-linejoin="round"/>
<path d="M258.178 512L256.56 516.429H182.375L180.757 512H165.042V531.485H180.757L182.375 527.057H256.56L258.178 531.485H275.974V512H258.178Z" fill="#263238" stroke="#263238" stroke-width="1.2565" stroke-miterlimit="10" stroke-linecap="round" stroke-linejoin="round"/>
<path d="M275.939 409.633H134.739V422.943H275.939V409.633Z" fill="white"/>
<path d="M146.65 416.144C146.65 414.089 144.984 412.424 142.928 412.424C140.872 412.424 139.207 414.089 139.207 416.144C139.207 418.199 140.872 419.866 142.928 419.866C144.984 419.866 146.65 418.199 146.65 416.144Z" fill="#263238" stroke="#263238" stroke-width="1.2565" stroke-miterlimit="10" stroke-linecap="round" stroke-linejoin="round"/>
<path d="M155.326 419.865C157.381 419.865 159.047 418.199 159.047 416.144C159.047 414.09 157.381 412.424 155.326 412.424C153.272 412.424 151.606 414.09 151.606 416.144C151.606 418.199 153.272 419.865 155.326 419.865Z" fill="#38BDF8" stroke="#263238" stroke-width="1.2565" stroke-miterlimit="10" stroke-linecap="round" stroke-linejoin="round"/>
<path d="M171.443 416.144C171.443 414.089 169.778 412.424 167.723 412.424C165.668 412.424 164.001 414.089 164.001 416.144C164.001 418.199 165.667 419.866 167.723 419.866C169.779 419.866 171.443 418.199 171.443 416.144Z" fill="#263238" stroke="#263238" stroke-width="1.2565" stroke-miterlimit="10" stroke-linecap="round" stroke-linejoin="round"/>
<path d="M275.939 282.084H134.739V295.394H275.939V282.084Z" fill="white"/>
<path d="M146.65 288.597C146.65 286.542 144.984 284.875 142.928 284.875C140.872 284.875 139.207 286.541 139.207 288.597C139.207 290.653 140.872 292.319 142.928 292.319C144.984 292.319 146.65 290.652 146.65 288.597Z" fill="white" stroke="#263238" stroke-width="1.2565" stroke-miterlimit="10" stroke-linecap="round" stroke-linejoin="round"/>
<path d="M159.047 288.597C159.047 286.542 157.381 284.875 155.325 284.875C153.269 284.875 151.603 286.541 151.603 288.597C151.603 290.653 153.269 292.319 155.325 292.319C157.381 292.319 159.047 290.652 159.047 288.597Z" fill="#38BDF8" stroke="#263238" stroke-width="1.2565" stroke-miterlimit="10" stroke-linecap="round" stroke-linejoin="round"/>
<path d="M171.443 288.597C171.443 286.542 169.778 284.875 167.723 284.875C165.668 284.875 164.001 286.541 164.001 288.597C164.001 290.653 165.667 292.319 167.723 292.319C169.779 292.319 171.443 290.652 171.443 288.597Z" fill="white" stroke="#263238" stroke-width="1.2565" stroke-miterlimit="10" stroke-linecap="round" stroke-linejoin="round"/>
<path d="M275.939 264.971H134.739V278.281H275.939V264.971Z" fill="white"/>
<path d="M146.65 271.482C146.65 269.427 144.984 267.76 142.928 267.76C140.872 267.76 139.207 269.425 139.207 271.482C139.207 273.536 140.872 275.203 142.928 275.203C144.984 275.203 146.65 273.538 146.65 271.482Z" fill="#38BDF8" stroke="#263238" stroke-width="1.2565" stroke-miterlimit="10" stroke-linecap="round" stroke-linejoin="round"/>
<path d="M159.047 271.482C159.047 269.427 157.381 267.76 155.325 267.76C153.269 267.76 151.603 269.425 151.603 271.482C151.603 273.536 153.269 275.203 155.325 275.203C157.381 275.203 159.047 273.538 159.047 271.482Z" fill="#263238" stroke="#263238" stroke-width="1.2565" stroke-miterlimit="10" stroke-linecap="round" stroke-linejoin="round"/>
<path d="M171.443 271.482C171.443 269.427 169.778 267.76 167.723 267.76C165.668 267.76 164.001 269.425 164.001 271.482C164.001 273.536 165.667 275.203 167.723 275.203C169.779 275.203 171.443 273.538 171.443 271.482Z" fill="#263238" stroke="#263238" stroke-width="1.2565" stroke-miterlimit="10" stroke-linecap="round" stroke-linejoin="round"/>
<path d="M158.388 299.766H135.097V309.747H158.388V299.766Z" fill="#263238" stroke="#263238" stroke-width="1.2565" stroke-miterlimit="10" stroke-linecap="round" stroke-linejoin="round"/>
<path d="M158.388 321.393H135.097V331.374H158.388V321.393Z" fill="#263238" stroke="#263238" stroke-width="1.2565" stroke-miterlimit="10" stroke-linecap="round" stroke-linejoin="round"/>
<path d="M158.388 343.021H135.097V353.003H158.388V343.021Z" fill="#38BDF8" stroke="#263238" stroke-width="1.2565" stroke-miterlimit="10" stroke-linecap="round" stroke-linejoin="round"/>
<path d="M158.388 364.648H135.097V374.63H158.388V364.648Z" fill="#38BDF8" stroke="#263238" stroke-width="1.2565" stroke-miterlimit="10" stroke-linecap="round" stroke-linejoin="round"/>
<path d="M158.388 386.275H135.097V396.257H158.388V386.275Z" fill="#38BDF8" stroke="#263238" stroke-width="1.2565" stroke-miterlimit="10" stroke-linecap="round" stroke-linejoin="round"/>
<path d="M158.388 426.758H135.097V436.739H158.388V426.758Z" fill="#38BDF8" stroke="#263238" stroke-width="1.2565" stroke-miterlimit="10" stroke-linecap="round" stroke-linejoin="round"/>
<path d="M158.388 448.387H135.097V458.368H158.388V448.387Z" fill="#263238" stroke="#263238" stroke-width="1.2565" stroke-miterlimit="10" stroke-linecap="round" stroke-linejoin="round"/>
<path d="M158.388 470.014H135.097V479.995H158.388V470.014Z" fill="#38BDF8" stroke="#263238" stroke-width="1.2565" stroke-miterlimit="10" stroke-linecap="round" stroke-linejoin="round"/>
<path d="M158.388 491.641H135.097V501.622H158.388V491.641Z" fill="#263238" stroke="#263238" stroke-width="1.2565" stroke-miterlimit="10" stroke-linecap="round" stroke-linejoin="round"/>
<path d="M158.388 513.268H135.097V523.249H158.388V513.268Z" fill="#38BDF8" stroke="#263238" stroke-width="1.2565" stroke-miterlimit="10" stroke-linecap="round" stroke-linejoin="round"/>
<path d="M353.443 193.777C353.443 193.777 331.127 199.464 324.931 207.943C318.735 216.422 293.622 274.147 293.622 274.147C293.622 274.147 285.469 283.278 294.275 292.084C303.081 300.889 320.691 304.151 327.213 296.324C333.736 288.496 343.193 251.644 344.498 247.405C345.802 243.165 355.587 207.291 356.565 205.335C357.544 203.376 358.474 194.94 353.443 193.777Z" fill="#BDBDBD" stroke="#263238" stroke-width="1.2565" stroke-miterlimit="10" stroke-linecap="round" stroke-linejoin="round"/>
<path d="M353.443 193.777C353.443 193.777 331.127 199.464 324.931 207.943C321.181 213.075 310.506 236.237 302.658 253.729C306.467 252.958 322.355 250.605 340.958 259.98C342.756 253.727 344.069 248.797 344.498 247.403C345.802 243.164 355.586 207.29 356.565 205.333C357.543 203.376 358.474 194.94 353.443 193.777Z" fill="#263238" stroke="#263238" stroke-width="1.2565" stroke-miterlimit="10" stroke-linecap="round" stroke-linejoin="round"/>
<path d="M418.855 118.586C418.855 118.586 425.052 121.847 427.661 128.043C430.27 134.239 430.27 143.697 430.27 143.697C430.27 143.697 472.014 142.393 487.993 142.066C503.974 141.74 514.736 145.654 515.061 153.48C515.387 161.307 511.8 176.635 502.994 182.505C494.188 188.375 466.795 178.918 452.771 175.004C438.747 171.09 433.856 172.394 423.746 171.09C413.636 169.786 410.701 165.872 409.071 159.676C407.44 153.48 410.701 141.74 410.701 132.281C410.702 122.825 409.397 116.629 418.855 118.586Z" fill="#BDBDBD" stroke="#263238" stroke-width="1.2565" stroke-miterlimit="10" stroke-linecap="round" stroke-linejoin="round"/>
<path d="M479.84 158.698C479.84 158.698 473.97 173.7 463.208 181.852C455.484 187.704 445.072 191.035 439.81 192.451C421.006 187.184 394.441 184.667 378.91 188.119C378.91 188.119 357.217 193.306 353.443 193.777C349.67 194.249 340.71 224.432 338.824 245.183C336.937 265.934 343.068 317.34 343.068 321.112C343.068 324.885 345.426 387.608 349.2 405.059C352.973 422.509 357.217 446.089 357.689 449.39C358.161 452.691 361.463 477.215 361.463 485.232C361.463 493.249 357.689 512.586 357.689 512.586C357.689 512.586 340.712 523.905 334.109 530.508C327.506 537.11 338.967 544.056 347.314 545.599C361.541 548.227 378.44 534.28 378.44 534.28C378.44 534.28 397.09 526.82 397.303 526.734C402.325 524.726 403.808 519.333 403.93 514.499C404.224 502.86 404.519 491.221 404.813 479.581C407.779 491.954 410.214 504.453 412.111 517.033C412.888 522.193 413.673 527.611 416.791 531.795C418.368 533.909 420.914 536.476 423.337 537.607C425.215 538.483 427.211 538.298 429.098 539.385C432.58 541.392 434.015 545.744 437.397 547.92C444.039 552.192 453.637 554.399 461.443 554.087C461.443 554.087 480.308 555.029 481.25 544.655C482.193 534.28 456.727 517.301 456.727 517.301C456.727 517.301 452.954 448.446 450.124 425.808C447.295 403.171 439.749 366.386 439.749 350.351C439.749 334.316 447.295 258.859 447.295 258.859C447.295 258.859 448.064 256.869 449.244 253.633C449.657 253.414 450.071 253.188 450.49 252.947C461.253 246.751 491.256 222.617 501.039 207.289C510.406 192.615 513.794 165.086 514.066 157.043" fill="#BDBDBD"/>
<path d="M479.84 158.698C479.84 158.698 473.97 173.7 463.208 181.852C455.484 187.704 445.072 191.035 439.81 192.451C421.006 187.184 394.441 184.667 378.91 188.119C378.91 188.119 357.217 193.306 353.443 193.777C349.67 194.249 340.71 224.432 338.824 245.183C336.937 265.934 343.068 317.34 343.068 321.112C343.068 324.885 345.426 387.608 349.2 405.059C352.973 422.509 357.217 446.089 357.689 449.39C358.161 452.691 361.463 477.215 361.463 485.232C361.463 493.249 357.689 512.586 357.689 512.586C357.689 512.586 340.712 523.905 334.109 530.508C327.506 537.11 338.967 544.056 347.314 545.599C361.541 548.227 378.44 534.28 378.44 534.28C378.44 534.28 397.09 526.82 397.303 526.734C402.325 524.726 403.808 519.333 403.93 514.499C404.224 502.86 404.519 491.221 404.813 479.581C407.779 491.954 410.214 504.453 412.111 517.033C412.888 522.193 413.673 527.611 416.791 531.795C418.368 533.909 420.914 536.476 423.337 537.607C425.215 538.483 427.211 538.298 429.098 539.385C432.58 541.392 434.015 545.744 437.397 547.92C444.039 552.192 453.637 554.399 461.443 554.087C461.443 554.087 480.308 555.029 481.25 544.655C482.193 534.28 456.727 517.301 456.727 517.301C456.727 517.301 452.954 448.446 450.124 425.808C447.295 403.171 439.749 366.386 439.749 350.351C439.749 334.316 447.295 258.859 447.295 258.859C447.295 258.859 448.064 256.869 449.244 253.633C449.657 253.414 450.071 253.188 450.49 252.947C461.253 246.751 491.256 222.617 501.039 207.289C510.406 192.615 513.794 165.086 514.066 157.043" stroke="#263238" stroke-width="1.2565" stroke-miterlimit="10" stroke-linecap="round" stroke-linejoin="round"/>
<path d="M481.249 544.654C482.192 534.279 456.726 517.3 456.726 517.3C456.726 517.3 456.434 511.996 455.955 503.865C439.99 507.739 424.673 509.147 410.831 509.131C411.275 511.762 411.711 514.394 412.108 517.032C412.887 522.192 413.671 527.61 416.789 531.794C418.365 533.908 420.912 536.475 423.334 537.606C425.213 538.483 427.208 538.297 429.095 539.384C432.577 541.391 434.013 545.743 437.394 547.919C444.037 552.191 453.634 554.398 461.44 554.086C461.44 554.086 480.306 555.029 481.249 544.654Z" fill="#263238" stroke="#263238" stroke-width="1.2565" stroke-miterlimit="10" stroke-linecap="round" stroke-linejoin="round"/>
<path d="M397.301 526.733C402.322 524.725 403.805 519.332 403.927 514.498C403.974 512.674 404.02 510.848 404.066 509.024C385.085 508.376 369.424 505.228 359.455 502.641C358.554 508.144 357.688 512.584 357.688 512.584C357.688 512.584 340.71 523.903 334.107 530.506C327.505 537.108 338.965 544.054 347.313 545.596C361.539 548.225 378.439 534.278 378.439 534.278C378.439 534.278 397.089 526.818 397.301 526.733Z" fill="#263238" stroke="#263238" stroke-width="1.2565" stroke-miterlimit="10" stroke-linecap="round" stroke-linejoin="round"/>
<path d="M481.249 544.654C481.263 544.502 481.253 544.345 481.254 544.191C478.338 546.385 473.87 548.697 467.2 549.883C452.294 552.532 438.714 544.914 435.07 541.603C431.426 538.29 429.108 535.641 423.477 531.997C417.846 528.353 412.736 519.396 412.736 519.396L412.526 519.721C413.229 524.027 414.207 528.333 416.787 531.796C418.364 533.91 420.91 536.477 423.333 537.608C425.212 538.485 427.207 538.299 429.094 539.386C432.576 541.393 434.011 545.745 437.392 547.921C444.035 552.193 453.633 554.4 461.439 554.088C461.442 554.087 480.306 555.029 481.249 544.654Z" fill="white" stroke="#263238" stroke-width="1.2565" stroke-miterlimit="10" stroke-linecap="round" stroke-linejoin="round"/>
<path d="M397.301 526.735C401.678 524.984 403.365 520.661 403.807 516.381C399.476 518.965 389.428 524.816 383.069 527.361C374.789 530.673 369.158 540.61 352.927 540.61C341.354 540.61 335.021 536.074 332.329 533.464C330.894 539.061 340.21 544.288 347.312 545.6C361.538 548.228 378.438 534.281 378.438 534.281C378.438 534.281 397.089 526.819 397.301 526.735Z" fill="white" stroke="#263238" stroke-width="1.2565" stroke-miterlimit="10" stroke-linecap="round" stroke-linejoin="round"/>
<path d="M458.568 184.918C451.713 188.899 444.072 191.305 439.81 192.45C421.006 187.183 394.441 184.666 378.91 188.118C378.91 188.118 357.217 193.306 353.443 193.777C349.67 194.248 340.71 224.431 338.824 245.182C337.66 257.99 339.549 282.465 341.166 300.221C380.466 314.625 422.383 309.686 442.881 305.761C444.954 282.256 447.294 258.859 447.294 258.859C447.294 258.859 448.063 256.869 449.243 253.634C449.656 253.415 450.07 253.189 450.489 252.948C457.8 248.737 473.988 236.249 486.688 223.867C461.201 216.472 458.111 196.372 458.568 184.918Z" fill="#263238" stroke="#263238" stroke-width="1.2565" stroke-miterlimit="10" stroke-linecap="round" stroke-linejoin="round"/>
<path d="M422.017 207.42C422.017 199.377 417.85 192.184 411.292 187.3C399.247 186.136 387.421 186.226 378.91 188.116C378.91 188.116 372.915 189.55 366.68 190.978C362.533 195.507 360.039 201.208 360.039 207.419C360.039 222.129 373.913 234.054 391.027 234.054C408.141 234.054 422.017 222.13 422.017 207.42Z" fill="#616161" stroke="#263238" stroke-width="1.2565" stroke-miterlimit="10" stroke-linecap="round" stroke-linejoin="round"/>
<path d="M412.737 519.395C416.778 520.904 424.305 522.944 434.795 522.487C451.065 521.78 456.724 517.3 456.724 517.3C456.724 517.3 452.951 448.445 450.121 425.808C447.292 403.17 439.747 366.385 439.747 350.35C439.747 340.9 442.367 310.81 444.52 287.691C444.183 287.732 443.846 287.773 443.508 287.811C431.996 289.142 421.977 279.957 422.321 268.373L422.769 253.316C422.769 253.316 407.914 254.731 385.983 252.255C364.053 249.779 341.416 242.352 341.416 242.352L339.034 243.085C338.956 243.793 338.884 244.494 338.822 245.182C336.935 265.933 343.067 317.339 343.067 321.111C343.067 324.884 345.425 387.608 349.198 405.058C352.972 422.507 357.215 446.087 357.686 449.389C358.158 452.69 361.46 477.215 361.46 485.231C361.46 493.104 357.824 511.877 357.693 512.552C360.524 513.431 366.459 515.225 377.141 518.244C393.412 522.842 403.905 517.301 403.905 517.301C403.905 511.643 404.847 479.573 404.847 479.573C404.847 479.573 410.804 506.707 412.737 519.395Z" fill="white" stroke="#263238" stroke-width="1.2565" stroke-miterlimit="10" stroke-linecap="round" stroke-linejoin="round"/>
<path d="M358.859 262.219L401.223 269.182V295.296L377.43 319.09L358.279 295.877L358.859 262.219Z" stroke="#263238" stroke-width="1.2565" stroke-miterlimit="10" stroke-linecap="round" stroke-linejoin="round"/>
<path d="M389.434 409.042C386.381 391.799 384.097 374.818 384.097 362.614L367.12 351.295" stroke="#263238" stroke-width="1.2565" stroke-miterlimit="10" stroke-linecap="round" stroke-linejoin="round"/>
<path d="M404.849 479.571C404.849 479.571 397.698 451.943 391.792 421.682" stroke="#263238" stroke-width="1.2565" stroke-miterlimit="10" stroke-linecap="round" stroke-linejoin="round"/>
<path d="M417.458 333.295C417.824 334.726 418.388 336.193 419.214 337.662C424.437 346.947 431.981 348.108 431.981 348.108L433.143 323.734" stroke="#263238" stroke-width="1.2565" stroke-miterlimit="10" stroke-linecap="round" stroke-linejoin="round"/>
<path d="M419.214 319.09C419.214 319.09 417.964 321.313 417.298 324.67" stroke="#263238" stroke-width="1.2565" stroke-miterlimit="10" stroke-linecap="round" stroke-linejoin="round"/>
<path d="M440.015 393.258C440.627 396.471 441.241 399.633 441.846 402.658" stroke="#263238" stroke-width="1.2565" stroke-miterlimit="10" stroke-linecap="round" stroke-linejoin="round"/>
<path d="M431.98 348.107C431.98 348.107 434.96 365.989 438.42 384.743" stroke="#263238" stroke-width="1.2565" stroke-miterlimit="10" stroke-linecap="round" stroke-linejoin="round"/>
<path d="M376.147 178.083L375.907 191.985C375.907 191.985 371.113 195.82 370.155 205.887C369.196 215.954 378.783 225.301 389.57 225.301C400.355 225.301 409.704 216.912 411.381 209.242C413.059 201.572 410.902 190.547 410.902 190.547L410.183 173.77C410.183 173.77 399.637 180.481 389.57 178.564C379.502 176.647 376.626 173.051 376.626 173.051L376.147 178.083Z" fill="#BDBDBD" stroke="#263238" stroke-width="1.2565" stroke-miterlimit="10" stroke-linecap="round" stroke-linejoin="round"/>
<path d="M368.637 141.799C368.637 141.799 367.993 149.758 369.713 151.694C371.434 153.629 373.8 155.135 374.23 153.415C374.66 151.694 374.875 142.66 375.305 140.724C375.735 138.787 368.852 136.421 368.637 141.799Z" fill="#BDBDBD" stroke="#263238" stroke-width="1.2565" stroke-miterlimit="10" stroke-linecap="round" stroke-linejoin="round"/>
<path d="M372.841 141.682C372.841 141.682 370.85 157.611 370.85 165.242C370.85 172.875 367.863 175.861 377.487 180.839C387.11 185.817 395.407 186.48 402.043 184.158C408.68 181.835 412.331 176.193 412.662 171.548C412.994 166.902 412.994 159.602 412.994 159.602C412.994 159.602 422.286 151.306 420.295 145.001C418.303 138.696 413.99 146.66 413.99 146.66C413.99 146.66 416.977 138.364 416.644 129.735C416.312 121.107 409.676 120.111 407.02 120.111C404.365 120.111 388.105 115.133 380.473 120.111C372.841 125.089 372.841 141.682 372.841 141.682Z" fill="#BDBDBD" stroke="#263238" stroke-width="1.2565" stroke-miterlimit="10" stroke-linecap="round" stroke-linejoin="round"/>
<path d="M413.991 146.659C413.991 146.659 416.978 138.363 416.646 129.734C416.313 121.106 409.677 120.11 407.022 120.11C406.975 120.11 406.896 120.098 406.842 120.096C405.438 122.458 403.704 126.084 403.704 126.084L405.032 126.747C405.032 126.747 403.704 134.048 406.36 135.044C409.014 136.039 407.686 138.362 407.686 142.344C407.686 146.327 410.01 149.312 411.336 149.312C412.381 149.312 414.037 146.649 414.698 145.51C414.261 146.16 413.991 146.659 413.991 146.659Z" fill="#263238" stroke="#263238" stroke-width="1.2565" stroke-miterlimit="10" stroke-linecap="round" stroke-linejoin="round"/>
<path d="M387.781 147.607C387.781 147.607 384.985 150.189 386.276 152.125C387.567 154.061 392.299 155.136 393.59 152.77C394.881 150.404 393.374 148.252 392.729 147.822" stroke="#263238" stroke-width="1.2565" stroke-miterlimit="10" stroke-linecap="round" stroke-linejoin="round"/>
<path d="M384.769 145.026C384.769 146.333 384.24 147.392 383.586 147.392C382.933 147.392 382.403 146.333 382.403 145.026C382.403 143.719 382.933 142.66 383.586 142.66C384.24 142.66 384.769 143.719 384.769 145.026Z" fill="#263238"/>
<path d="M399.074 145.671C399.074 146.977 398.544 148.037 397.89 148.037C397.237 148.037 396.708 146.977 396.708 145.671C396.708 144.364 397.237 143.305 397.89 143.305C398.544 143.305 399.074 144.364 399.074 145.671Z" fill="#263238"/>
<path d="M395.524 139.217C395.524 139.217 400.041 136.207 404.343 140.939" stroke="#263238" stroke-width="1.2565" stroke-miterlimit="10" stroke-linecap="round" stroke-linejoin="round"/>
<path d="M388.67 160.393C388.67 160.393 386.786 159.379 384.986 160.232C383.188 161.086 382.845 162.533 382.845 162.533C382.845 162.533 380.089 164.752 382.992 165.72C385.896 166.688 392.222 166.617 393.853 166.542C395.483 166.467 396.019 164.79 395.974 163.801C395.929 162.812 395.303 162.51 395.303 162.51C395.303 162.51 393.081 158.648 388.67 160.393Z" fill="#666666" stroke="#263238" stroke-width="0.9227" stroke-miterlimit="10" stroke-linecap="round" stroke-linejoin="round"/>
<path d="M382.218 163.364C382.218 163.364 388.136 162.119 395.581 164.161" stroke="#263238" stroke-width="1.0733" stroke-miterlimit="10" stroke-linecap="round" stroke-linejoin="round"/>
<path d="M367.201 123.429L402.708 128.408C402.708 128.408 417.641 124.425 418.968 121.439C420.296 118.452 415.317 103.519 412.663 99.8688C410.008 96.2185 384.456 102.523 376.491 103.851C368.527 105.179 362.553 107.169 362.886 111.152C363.218 115.133 367.201 123.429 367.201 123.429Z" fill="#38BDF8" stroke="#263238" stroke-width="1.2565" stroke-miterlimit="10" stroke-linecap="round" stroke-linejoin="round"/>
<path d="M367.201 123.43C367.201 123.43 346.958 140.022 346.626 141.681C346.293 143.34 376.16 144.005 385.452 142.013C394.744 140.022 402.708 128.408 402.708 128.408L367.201 123.43Z" fill="white" stroke="#263238" stroke-width="1.2565" stroke-miterlimit="10" stroke-linecap="round" stroke-linejoin="round"/>
<path d="M345.083 343.392L400.756 310.783C404.183 313.35 408.952 313.771 412.879 311.471C417.313 308.874 419.235 303.645 417.849 298.928L406.236 305.729L403.555 301.151L415.168 294.349C411.731 290.833 406.231 289.951 401.795 292.549C397.868 294.848 395.902 299.214 396.466 303.458L340.793 336.067C337.367 333.5 332.598 333.079 328.671 335.379C324.237 337.976 322.314 343.205 323.701 347.922L335.007 341.3L337.689 345.878L326.382 352.501C329.819 356.017 335.319 356.899 339.754 354.301C343.681 352 345.647 347.636 345.083 343.392Z" fill="#38BDF8" stroke="#263238" stroke-width="1.2565" stroke-miterlimit="10" stroke-linecap="round" stroke-linejoin="round"/>
<path d="M392.439 319.15C392.439 319.15 399.288 324.043 399.288 328.608C399.288 333.173 391.135 338.065 385.591 338.392C380.048 338.718 379.069 332.521 380.048 329.26C381.025 325.999 392.439 319.15 392.439 319.15Z" fill="#BDBDBD" stroke="#263238" stroke-width="1.2565" stroke-miterlimit="10" stroke-linecap="round" stroke-linejoin="round"/>
<path d="M320.691 278.385C320.691 278.385 358.522 299.584 363.74 298.931C368.958 298.278 376.132 293.713 380.046 295.017C383.96 296.321 394.721 312.955 395.7 315.889C396.678 318.824 387.872 329.26 385.917 330.891C383.96 332.522 377.764 339.044 376.46 339.697C375.155 340.35 366.676 347.85 362.436 347.85C358.196 347.85 351.022 344.589 350.369 342.958C349.716 341.328 351.347 339.044 351.347 339.044L331.454 329.913C331.454 329.913 293.623 309.367 287.101 298.931C280.579 288.495 296.884 269.906 296.884 269.906" fill="#BDBDBD"/>
<path d="M320.691 278.385C320.691 278.385 358.522 299.584 363.74 298.931C368.958 298.278 376.132 293.713 380.046 295.017C383.96 296.321 394.721 312.955 395.7 315.889C396.678 318.824 387.872 329.26 385.917 330.891C383.96 332.522 377.764 339.044 376.46 339.697C375.155 340.35 366.676 347.85 362.436 347.85C358.196 347.85 351.022 344.589 350.369 342.958C349.716 341.328 351.347 339.044 351.347 339.044L331.454 329.913C331.454 329.913 293.623 309.367 287.101 298.931C280.579 288.495 296.884 269.906 296.884 269.906" stroke="#263238" stroke-width="1.2565" stroke-miterlimit="10" stroke-linecap="round" stroke-linejoin="round"/>
<path d="M364.393 329.586C364.393 329.586 368.306 329.912 368.958 334.151C369.61 338.391 367.979 345.891 367.979 345.891" stroke="#263238" stroke-width="1.2565" stroke-miterlimit="10" stroke-linecap="round" stroke-linejoin="round"/>
<path d="M371.893 323.391C371.893 323.391 376.458 323.716 376.458 327.956C376.458 332.195 376.458 339.696 376.458 339.696" stroke="#263238" stroke-width="1.2565" stroke-miterlimit="10" stroke-linecap="round" stroke-linejoin="round"/>
<path d="M376.785 311.65C376.785 311.65 385.264 317.847 385.917 321.433C386.568 325.021 385.917 330.891 385.917 330.891" stroke="#263238" stroke-width="1.2565" stroke-miterlimit="10" stroke-linecap="round" stroke-linejoin="round"/>
<path d="M414.597 289.294C416.492 289.294 421.546 276.662 421.546 271.925C421.546 267.187 423.757 232.448 428.809 216.342C432.434 204.785 435.564 195.856 437.047 191.719C433.191 190.732 429.08 189.854 424.833 189.119C422.309 196.782 414.588 220.704 411.439 235.923C407.65 254.24 408.597 276.03 408.913 277.925C409.228 279.82 412.701 289.294 414.597 289.294Z" fill="white" stroke="#263238" stroke-width="1.2565" stroke-miterlimit="10" stroke-linecap="round" stroke-linejoin="round"/>
<path d="M420.03 263.75L409.165 262.308C408.275 262.19 407.649 261.373 407.768 260.482L408.919 251.809C409.036 250.919 409.855 250.293 410.744 250.411L421.609 251.853C422.499 251.97 423.125 252.787 423.007 253.677L421.857 262.351C421.736 263.243 420.919 263.869 420.03 263.75Z" fill="white" stroke="#263238" stroke-width="1.2565" stroke-miterlimit="10" stroke-linecap="round" stroke-linejoin="round"/>
<path d="M417.699 261.186L412.084 260.441C411.195 260.323 410.568 259.506 410.686 258.616L411.249 254.375C411.367 253.486 412.184 252.859 413.073 252.977L418.69 253.723C419.579 253.84 420.206 254.657 420.086 255.548L419.524 259.789C419.406 260.679 418.589 261.305 417.699 261.186Z" fill="white" stroke="#263238" stroke-width="1.2565" stroke-miterlimit="10" stroke-linecap="round" stroke-linejoin="round"/>
<path d="M343.856 284.557C345.751 284.557 350.804 271.925 350.804 267.187C350.804 262.45 353.016 227.711 358.068 211.605C361.277 201.375 363.463 194.852 364.634 191.445C359.703 192.563 355.016 193.58 353.443 193.776C352.285 193.92 350.636 196.874 348.856 201.488C346.764 207.969 344.202 216.411 342.188 224.627C340.639 231.615 339.4 238.838 338.824 245.181C338.338 250.529 338.388 257.921 338.724 265.997C338.755 266.237 338.781 266.429 338.802 266.555C339.119 268.45 341.96 284.557 343.856 284.557Z" fill="white" stroke="#263238" stroke-width="1.2565" stroke-miterlimit="10" stroke-linecap="round" stroke-linejoin="round"/>
<path d="M349.773 253.839L338.874 252.676C337.981 252.58 337.335 251.779 337.431 250.887L338.359 242.187C338.454 241.294 339.255 240.648 340.148 240.744L351.047 241.906C351.939 242.002 352.585 242.803 352.49 243.695L351.562 252.395C351.466 253.287 350.665 253.935 349.773 253.839Z" fill="white" stroke="#263238" stroke-width="1.2565" stroke-miterlimit="10" stroke-linecap="round" stroke-linejoin="round"/>
<path d="M347.378 251.335L341.744 250.733C340.852 250.638 340.206 249.837 340.301 248.945L340.755 244.691C340.851 243.798 341.652 243.152 342.544 243.248L348.178 243.849C349.07 243.944 349.716 244.745 349.621 245.637L349.167 249.891C349.071 250.784 348.27 251.43 347.378 251.335Z" fill="white" stroke="#263238" stroke-width="1.2565" stroke-miterlimit="10" stroke-linecap="round" stroke-linejoin="round"/>
</g>
<defs>
<clipPath id="clip0_535_386">
<rect width="800" height="600" fill="white"/>
</clipPath>
</defs>
</svg>
