<svg width="25" height="24" viewBox="0 0 25 24" fill="none" xmlns="http://www.w3.org/2000/svg">
<g id="Frame" clip-path="url(#clip0_154_2531)">
<g id="Group">
<path id="Vector" d="M21.875 3.75H3.125C1.67759 3.75 0.5 4.92759 0.5 6.375V17.625C0.5 19.0724 1.67759 20.25 3.125 20.25H21.875C23.3224 20.25 24.5 19.0724 24.5 17.625V6.375C24.5 4.92759 23.3224 3.75 21.875 3.75ZM3.125 5.25H21.875C22.4953 5.25 23 5.7547 23 6.375V7.875H2V6.375C2 5.7547 2.5047 5.25 3.125 5.25ZM21.875 18.75H3.125C2.5047 18.75 2 18.2453 2 17.625V9.375H23V17.625C23 18.2453 22.4953 18.75 21.875 18.75Z" fill="#2E84E3"/>
<path id="Vector_2" d="M5.75 16.5H5C4.58581 16.5 4.25 16.1642 4.25 15.75V15C4.25 14.5858 4.58581 14.25 5 14.25H5.75C6.16419 14.25 6.5 14.5858 6.5 15V15.75C6.5 16.1642 6.16419 16.5 5.75 16.5Z" fill="#2E84E3"/>
</g>
</g>
<defs>
<clipPath id="clip0_154_2531">
<rect width="24" height="24" fill="white" transform="translate(0.5)"/>
</clipPath>
</defs>
</svg>
