<svg width="24" height="24" viewBox="0 0 24 24" fill="none" xmlns="http://www.w3.org/2000/svg">
<g id="Frame" clip-path="url(#clip0_154_1106)">
<g id="Group">
<path id="Vector" d="M23.9663 13.3586L23.9662 13.3583L19.4349 1.98057C19.412 1.92308 19.3781 1.87066 19.3349 1.8263C19.2918 1.78194 19.2404 1.74651 19.1835 1.72203C19.1267 1.69755 19.0656 1.68451 19.0038 1.68364C18.9419 1.68277 18.8805 1.6941 18.823 1.71697L18.8224 1.71721L0.439561 9.0371C0.3646 9.06949 0.299573 9.12119 0.25111 9.18692C0.176087 9.22588 0.113081 9.28452 0.0688447 9.35656C0.0246085 9.4286 0.000809981 9.51132 0 9.59585L0 21.8451C0 21.9701 0.0496364 22.0899 0.13799 22.1783C0.226343 22.2666 0.346176 22.3163 0.471126 22.3163H20.2584C20.3834 22.3163 20.5032 22.2666 20.5916 22.1783C20.6799 22.0899 20.7296 21.9701 20.7296 21.8451V15.1551L23.7033 13.9707C23.7608 13.9478 23.8132 13.9138 23.8575 13.8706C23.9018 13.8274 23.9372 13.776 23.9616 13.7191C23.986 13.6623 23.999 13.6012 23.9998 13.5393C24.0006 13.4774 23.9892 13.416 23.9663 13.3586ZM19.7873 21.374H0.942253V10.067H19.7873V21.374ZM7.86074 9.12708L15.7493 5.98373C16.0977 6.34994 16.5166 6.6419 16.9808 6.84205C17.4449 7.04219 17.9448 7.14638 18.4502 7.14835L19.237 9.12708H7.86074ZM20.7296 14.1432V9.59585C20.7296 9.4709 20.6799 9.35107 20.5916 9.26272C20.5032 9.17436 20.3834 9.12473 20.2584 9.12473H20.2509L19.2526 6.61739C19.2415 6.59648 19.2286 6.57661 19.2139 6.55803C19.1895 6.44831 19.1262 6.35113 19.0357 6.28445C18.9452 6.21777 18.8337 6.18609 18.7216 6.19526C18.2538 6.23791 17.7828 6.16293 17.3514 5.97714C16.92 5.79134 16.5419 5.50064 16.2515 5.13146C16.1805 5.04383 16.0802 4.98487 15.969 4.96547C15.8579 4.94607 15.7436 4.96755 15.647 5.02593C15.6247 5.02859 15.6025 5.03269 15.5806 5.03818L5.94985 8.87315C5.89217 8.89575 5.83957 8.92965 5.79516 8.97285C5.75074 9.01605 5.7154 9.06769 5.69121 9.12473H2.76645L18.7339 2.76688L22.917 13.2706L20.7296 14.1432Z" fill="#43CEC9"/>
<path id="Vector_2" d="M2.22091 18.1935C2.6711 18.3266 3.08091 18.57 3.41307 18.9018C3.74523 19.2335 3.98921 19.643 4.12284 20.0931C4.15185 20.1902 4.21144 20.2755 4.29275 20.3361C4.37407 20.3967 4.47277 20.4294 4.57418 20.4294C4.59863 20.4279 4.6229 20.4243 4.64674 20.4186C4.66788 20.4246 4.68949 20.429 4.71128 20.4318H16.0183C16.0377 20.4293 16.0569 20.4253 16.0758 20.42C16.1888 20.4475 16.3081 20.429 16.4075 20.3685C16.5069 20.308 16.5782 20.2106 16.6057 20.0975L16.6063 20.0949C16.7396 19.6445 16.9834 19.2345 17.3156 18.9023C17.6477 18.5701 18.0577 18.3263 18.5082 18.193C18.6156 18.1602 18.7074 18.0896 18.7668 17.9944C18.8262 17.8991 18.8492 17.7856 18.8314 17.6748C18.8377 17.6519 18.8423 17.6286 18.8451 17.605V13.836C18.8423 13.8124 18.8376 13.7891 18.8309 13.7663C18.8488 13.6555 18.8259 13.5419 18.7665 13.4466C18.7071 13.3513 18.6152 13.2808 18.5077 13.2481C18.0573 13.1148 17.6473 12.871 17.3153 12.5387C16.9832 12.2064 16.7396 11.7962 16.6067 11.3457C16.5738 11.2376 16.5026 11.1453 16.4066 11.0858C16.3105 11.0263 16.1962 11.0038 16.0847 11.0225C16.063 11.0164 16.0408 11.012 16.0183 11.0093H4.71128C4.68754 11.0121 4.66406 11.0168 4.64108 11.0234C4.53025 11.0058 4.41677 11.0287 4.32154 11.0881C4.22632 11.1475 4.15575 11.2393 4.12284 11.3466C3.98949 11.797 3.74563 12.2069 3.41346 12.539C3.08128 12.8711 2.67133 13.1148 2.22091 13.2481C2.11356 13.2809 2.02171 13.3515 1.96231 13.4467C1.90291 13.5419 1.87997 13.6555 1.89771 13.7663C1.89159 13.7892 1.88718 13.8125 1.88452 13.836V17.605C1.88723 17.6272 1.89165 17.6491 1.89771 17.6705C1.87903 17.7821 1.90151 17.8966 1.96096 17.9928C2.02041 18.089 2.11279 18.1603 2.22091 18.1935ZM2.82677 14.0273C3.29494 13.8393 3.7202 13.5584 4.07694 13.2017C4.43368 12.845 4.71453 12.4197 4.90256 11.9515H15.8266C16.0147 12.4197 16.2956 12.845 16.6525 13.2017C17.0093 13.5584 17.4346 13.8393 17.9028 14.0273V17.4138C17.4348 17.602 17.0096 17.8829 16.6529 18.2397C16.2962 18.5964 16.0153 19.0215 15.827 19.4896H4.90256C4.71431 19.0215 4.43339 18.5964 4.07667 18.2397C3.71996 17.8829 3.29481 17.602 2.82677 17.4138V14.0273Z" fill="#43CEC9"/>
<path id="Vector_3" d="M10.3648 18.5471C11.926 18.5471 13.1915 17.2815 13.1915 15.7203C13.1915 14.1591 11.926 12.8936 10.3648 12.8936C8.80359 12.8936 7.53803 14.1591 7.53803 15.7203C7.53956 17.2809 8.80424 18.5455 10.3648 18.5471ZM10.3648 13.8358C11.4056 13.8358 12.2493 14.6795 12.2493 15.7203C12.2493 16.7611 11.4056 17.6048 10.3648 17.6048C9.32401 17.6048 8.48028 16.7611 8.48028 15.7203C8.48028 14.6795 9.32401 13.8358 10.3648 13.8358ZM5.1824 16.427C5.57267 16.427 5.88909 16.1106 5.88909 15.7203C5.88909 15.33 5.57267 15.0136 5.1824 15.0136C4.79213 15.0136 4.47571 15.33 4.47571 15.7203C4.47571 16.1106 4.79213 16.427 5.1824 16.427ZM5.1824 15.4847C5.24487 15.4847 5.30479 15.5096 5.34897 15.5537C5.39314 15.5979 5.41796 15.6578 5.41796 15.7203C5.41796 15.7828 5.39314 15.8427 5.34897 15.8869C5.30479 15.9311 5.24487 15.9559 5.1824 15.9559C5.11992 15.9559 5.06001 15.9311 5.01583 15.8869C4.97165 15.8427 4.94683 15.7828 4.94683 15.7203C4.94683 15.6578 4.97165 15.5979 5.01583 15.5537C5.06001 15.5096 5.11992 15.4847 5.1824 15.4847ZM15.5472 16.427C15.9374 16.427 16.2539 16.1106 16.2539 15.7203C16.2539 15.33 15.9374 15.0136 15.5472 15.0136C15.1569 15.0136 14.8405 15.33 14.8405 15.7203C14.8405 16.1106 15.1569 16.427 15.5472 16.427ZM15.5472 15.4847C15.6097 15.4847 15.6696 15.5096 15.7137 15.5537C15.7579 15.5979 15.7827 15.6578 15.7827 15.7203C15.7827 15.7828 15.7579 15.8427 15.7137 15.8869C15.6696 15.9311 15.6097 15.9559 15.5472 15.9559C15.4847 15.9559 15.4248 15.9311 15.3806 15.8869C15.3364 15.8427 15.3116 15.7828 15.3116 15.7203C15.3116 15.6578 15.3364 15.5979 15.3806 15.5537C15.4248 15.5096 15.4847 15.4847 15.5472 15.4847Z" fill="#43CEC9"/>
</g>
</g>
<defs>
<clipPath id="clip0_154_1106">
<rect width="24" height="24" fill="white"/>
</clipPath>
</defs>
</svg>
