<svg width="25" height="24" viewBox="0 0 25 24" fill="none" xmlns="http://www.w3.org/2000/svg">
<g id="Frame" clip-path="url(#clip0_154_1789)">
<g id="Group">
<g id="Group_2">
<path id="Vector" d="M1.47876 5.59229H23.5246C23.6533 5.59185 23.7807 5.61686 23.8997 5.66589C24.0186 5.71492 24.1267 5.78699 24.2177 5.87797C24.3087 5.96895 24.3807 6.07702 24.4298 6.19597C24.4788 6.31492 24.5038 6.4424 24.5034 6.57106V17.432C24.5038 17.5606 24.4788 17.6881 24.4298 17.8071C24.3807 17.926 24.3087 18.0341 24.2177 18.1251C24.1267 18.216 24.0186 18.2881 23.8997 18.3371C23.7807 18.3862 23.6533 18.4112 23.5246 18.4107H1.47538C1.34672 18.4107 1.21933 18.3853 1.10055 18.3359C0.98177 18.2864 0.873943 18.214 0.78328 18.1227C0.692618 18.0314 0.620913 17.9231 0.572294 17.8039C0.523674 17.6848 0.499102 17.5573 0.499993 17.4286V6.56768C0.499992 6.43931 0.525333 6.31219 0.574562 6.19363C0.62379 6.07507 0.695939 5.9674 0.78687 5.87678C0.877801 5.78616 0.985726 5.71439 1.10446 5.66557C1.22319 5.61675 1.35038 5.59185 1.47876 5.59229ZM23.5246 6.1458H1.47538C1.41986 6.14535 1.36479 6.15596 1.31341 6.177C1.26202 6.19804 1.21533 6.2291 1.17607 6.26836C1.1368 6.30763 1.10574 6.35432 1.0847 6.4057C1.06366 6.45709 1.05305 6.51215 1.0535 6.56768V17.432C1.05305 17.4875 1.06366 17.5426 1.0847 17.594C1.10574 17.6453 1.1368 17.692 1.17607 17.7313C1.21533 17.7706 1.26202 17.8016 1.31341 17.8227C1.36479 17.8437 1.41986 17.8543 1.47538 17.8539H23.5246C23.5801 17.8543 23.6352 17.8437 23.6866 17.8227C23.738 17.8016 23.7847 17.7706 23.8239 17.7313C23.8632 17.692 23.8942 17.6453 23.9153 17.594C23.9363 17.5426 23.9469 17.4875 23.9465 17.432V6.56768C23.9469 6.51215 23.9363 6.45709 23.9153 6.4057C23.8942 6.35432 23.8632 6.30763 23.8239 6.26836C23.7847 6.2291 23.738 6.19804 23.6866 6.177C23.6352 6.15596 23.5801 6.14535 23.5246 6.1458Z" fill="#F77273"/>
<path id="Vector_2" d="M1.93102 6.61475H23.069C23.2209 6.61475 23.3457 6.73962 23.3457 6.89488V17.1044C23.3457 17.1778 23.3166 17.2482 23.2647 17.3001C23.2128 17.352 23.1424 17.3812 23.069 17.3812H1.93102C1.89468 17.3812 1.85869 17.374 1.82511 17.3601C1.79153 17.3462 1.76102 17.3258 1.73533 17.3001C1.70963 17.2744 1.68924 17.2439 1.67533 17.2103C1.66142 17.1767 1.65427 17.1408 1.65427 17.1044V6.89488C1.65427 6.73962 1.77914 6.61475 1.93102 6.61475ZM22.7888 7.17163H2.21115V16.8277H22.7888V7.17163Z" fill="#F77273"/>
<path id="Vector_3" d="M3.12578 9.90553C3.05238 9.90553 2.98199 9.93468 2.93009 9.98659C2.87819 10.0385 2.84903 10.1089 2.84903 10.1823C2.84903 10.2557 2.87819 10.3261 2.93009 10.378C2.98199 10.4299 3.05238 10.459 3.12578 10.459H21.8742C21.9476 10.459 22.018 10.4299 22.0699 10.378C22.1218 10.3261 22.151 10.2557 22.151 10.1823C22.151 10.1089 22.1218 10.0385 22.0699 9.98659C22.018 9.93468 21.9476 9.90553 21.8742 9.90553H3.12578ZM3.12578 8.00537C3.05238 8.00537 2.98199 8.03453 2.93009 8.08643C2.87819 8.13833 2.84903 8.20873 2.84903 8.28213C2.84903 8.35553 2.87819 8.42592 2.93009 8.47782C2.98199 8.52972 3.05238 8.55888 3.12578 8.55888H15.249C15.3224 8.55888 15.3928 8.52972 15.4447 8.47782C15.4966 8.42592 15.5257 8.35553 15.5257 8.28213C15.5257 8.20873 15.4966 8.13833 15.4447 8.08643C15.3928 8.03453 15.3224 8.00537 15.249 8.00537H3.12578ZM3.43629 13.6923H10.1628C10.2978 13.6923 10.4159 13.7463 10.5003 13.8341C10.5453 13.8787 10.5843 13.9318 10.6087 13.9903C10.633 14.0488 10.6455 14.1116 10.6454 14.175V15.5115C10.6454 15.6395 10.5946 15.7623 10.504 15.8528C10.4135 15.9433 10.2908 15.9941 10.1628 15.9941H3.43629C3.30954 15.993 3.18831 15.9421 3.09878 15.8524C3.05379 15.8077 3.0181 15.7546 2.99377 15.6961C2.96944 15.6376 2.95695 15.5749 2.95703 15.5115V14.175C2.95703 14.0433 3.00766 13.9252 3.09541 13.8375C3.14003 13.7925 3.19314 13.7568 3.25165 13.7324C3.31016 13.7081 3.37292 13.6923 3.43629 13.6923ZM10.0919 14.2492H3.50379V15.4406H10.0851L10.0919 14.2492Z" fill="#F77273"/>
<path id="Vector_4" d="M7.0746 13.9725C7.0746 13.9361 7.06744 13.9001 7.05353 13.8666C7.03962 13.833 7.01924 13.8025 6.99354 13.7768C6.96784 13.7511 6.93733 13.7307 6.90375 13.7168C6.87017 13.7029 6.83419 13.6957 6.79784 13.6957C6.7615 13.6957 6.72551 13.7029 6.69193 13.7168C6.65836 13.7307 6.62785 13.7511 6.60215 13.7768C6.57645 13.8025 6.55606 13.833 6.54215 13.8666C6.52825 13.9001 6.52109 13.9361 6.52109 13.9725V15.7174C6.52109 15.7908 6.55025 15.8612 6.60215 15.9131C6.65405 15.965 6.72444 15.9941 6.79784 15.9941C6.87124 15.9941 6.94164 15.965 6.99354 15.9131C7.04544 15.8612 7.0746 15.7908 7.0746 15.7174V13.9725ZM14.6415 14.9749C14.6249 15.0465 14.6375 15.1217 14.6764 15.1841C14.7153 15.2464 14.7774 15.2907 14.849 15.3073C14.9206 15.3239 14.9959 15.3113 15.0582 15.2724C15.1206 15.2334 15.1649 15.1713 15.1815 15.0997C15.1882 15.0896 15.9577 11.7753 16.5686 12.0284H16.5754C16.8217 12.1803 16.4944 12.8418 16.2581 13.3211C16.1299 13.581 16.0219 13.8003 16.0016 13.959C15.9751 14.1294 15.9797 14.3032 16.0151 14.472C16.0289 14.5314 16.0549 14.5873 16.0915 14.6361C16.1281 14.685 16.1745 14.7256 16.2277 14.7555C16.3391 14.8162 16.4741 14.823 16.6327 14.7453C16.8743 14.5933 17.0822 14.3935 17.2436 14.1581C17.3206 14.0519 17.3916 13.9414 17.4563 13.8273C17.6149 13.5641 17.8208 13.2165 17.9153 13.1962C17.9423 13.1895 17.8883 13.2738 17.9321 13.4662C18.2831 15.0862 19.6872 14.499 19.6939 14.499C19.7624 14.4712 19.817 14.4174 19.8458 14.3494C19.8746 14.2813 19.8752 14.2046 19.8475 14.1362C19.8197 14.0677 19.7659 14.013 19.6979 13.9842C19.6298 13.9554 19.5531 13.9548 19.4847 13.9826C19.4847 13.9826 18.6848 14.3201 18.4721 13.3481C18.3439 12.7574 18.0975 12.5887 17.7971 12.6528C17.4698 12.7237 17.193 13.1894 16.9804 13.5438C16.9129 13.6586 16.8521 13.7598 16.8116 13.8138C16.7002 13.9488 16.6125 14.0501 16.5416 14.121C16.5416 14.0872 16.5484 14.0535 16.5517 14.0231C16.5585 13.9556 16.6496 13.7801 16.7542 13.5675C17.0918 12.8823 17.5643 11.9339 16.8386 11.5424C16.8257 11.5346 16.8122 11.5278 16.7981 11.5222C15.5629 10.9754 14.6448 14.9647 14.6415 14.9749ZM15.4009 15.4406C15.3275 15.4406 15.2571 15.4698 15.2052 15.5217C15.1533 15.5736 15.1241 15.644 15.1241 15.7174C15.1241 15.7908 15.1533 15.8612 15.2052 15.9131C15.2571 15.965 15.3275 15.9941 15.4009 15.9941H21.6548C21.7282 15.9941 21.7986 15.965 21.8505 15.9131C21.9024 15.8612 21.9316 15.7908 21.9316 15.7174C21.9316 15.644 21.9024 15.5736 21.8505 15.5217C21.7986 15.4698 21.7282 15.4406 21.6548 15.4406H15.4009ZM20.4364 13.9556C20.3626 13.9556 20.2918 13.9849 20.2395 14.0371C20.1873 14.0894 20.158 14.1602 20.158 14.234C20.158 14.3079 20.1873 14.3787 20.2395 14.4309C20.2918 14.4831 20.3626 14.5125 20.4364 14.5125H21.4624C21.5363 14.5125 21.6071 14.4831 21.6593 14.4309C21.7116 14.3787 21.7409 14.3079 21.7409 14.234C21.7409 14.1602 21.7116 14.0894 21.6593 14.0371C21.6071 13.9849 21.5363 13.9556 21.4624 13.9556H20.4364Z" fill="#F77273"/>
</g>
</g>
</g>
<defs>
<clipPath id="clip0_154_1789">
<rect width="24" height="24" fill="white" transform="translate(0.5)"/>
</clipPath>
</defs>
</svg>
