<svg width="24" height="24" viewBox="0 0 24 24" fill="none" xmlns="http://www.w3.org/2000/svg">
<path d="M20.949 6.97299C20.291 6.49899 19.431 6.48301 18.757 6.93301L16.441 8.47699C16.365 8.52799 16.29 8.51799 16.253 8.50699C16.215 8.49699 16.147 8.46701 16.108 8.38501L13.737 3.354C13.416 2.673 12.75 2.25 11.997 2.25C11.997 2.25 11.997 2.25 11.996 2.25C11.243 2.25 10.577 2.67401 10.256 3.35501L7.89205 8.384C7.85305 8.467 7.784 8.49599 7.746 8.50699C7.709 8.51799 7.63501 8.52799 7.55801 8.47699L5.24203 6.93301C4.56803 6.48401 3.70701 6.49999 3.05001 6.97299C2.39301 7.44699 2.10604 8.258 2.31704 9.03L4.13601 16.062C4.39201 17.055 5.28805 17.749 6.31405 17.749H17.684C18.71 17.749 19.606 17.055 19.862 16.062L21.678 9.039C21.893 8.259 21.606 7.44699 20.949 6.97299ZM20.23 8.655L18.411 15.688C18.326 16.019 18.027 16.25 17.685 16.25H6.31503C5.97303 16.25 5.67401 16.019 5.58901 15.688L3.76803 8.646C3.69803 8.39 3.85704 8.24301 3.92904 8.19101C3.97304 8.15901 4.06404 8.10699 4.17904 8.10699C4.24904 8.10699 4.32801 8.12701 4.41201 8.18201L6.72805 9.72601C7.14705 10.006 7.66805 10.088 8.15005 9.953C8.63505 9.818 9.036 9.47901 9.251 9.02301L11.615 3.99399C11.718 3.77499 11.917 3.75101 11.998 3.75101C12.079 3.75101 12.278 3.77499 12.381 3.99399L14.752 9.02499C14.966 9.47999 15.367 9.818 15.852 9.953C16.337 10.087 16.855 10.005 17.274 9.72601L19.5901 8.18201C19.8111 8.03501 20.001 8.13901 20.073 8.19101C20.143 8.24201 20.302 8.39 20.23 8.655ZM19.25 20C19.25 20.414 18.914 20.75 18.5 20.75H5.50002C5.08602 20.75 4.75002 20.414 4.75002 20C4.75002 19.586 5.08602 19.25 5.50002 19.25H18.5C18.914 19.25 19.25 19.586 19.25 20Z" fill="#25314C"/>
</svg>
