<svg width="25" height="24" viewBox="0 0 25 24" fill="none" xmlns="http://www.w3.org/2000/svg">
<path d="M8.31 2H16.69C20.33 2 22.5 4.17 22.5 7.81V16.18C22.5 19.83 20.33 22 16.69 22H8.32C4.68 22 2.51 19.83 2.51 16.19V7.81C2.5 4.17 4.67 2 8.31 2ZM6.97 7.53L14.69 15.25H11.67C11.26 15.25 10.92 15.59 10.92 16C10.92 16.41 11.26 16.75 11.67 16.75H16.5C16.91 16.75 17.25 16.41 17.25 16V11.17C17.25 10.76 16.91 10.42 16.5 10.42C16.09 10.42 15.75 10.76 15.75 11.17V14.19L8.03 6.47C7.88 6.32 7.69 6.25 7.5 6.25C7.31 6.25 7.12 6.32 6.97 6.47C6.68 6.76 6.68 7.24 6.97 7.53Z" fill="#29AAE1"/>
</svg>
