<svg width="25" height="24" viewBox="0 0 25 24" fill="none" xmlns="http://www.w3.org/2000/svg">
<g id="Frame" clip-path="url(#clip0_154_980)">
<g id="Group">
<g id="Group_2">
<path id="Vector" d="M22.625 19.875H2.375C1.75368 19.875 1.25 19.3713 1.25 18.75V5.25C1.25 4.62868 1.75368 4.125 2.375 4.125H22.625C23.2463 4.125 23.75 4.62868 23.75 5.25V18.75C23.75 19.3713 23.2463 19.875 22.625 19.875Z" stroke="#5E29CD" stroke-width="0.75" stroke-linecap="round" stroke-linejoin="round"/>
<path id="Vector_2" d="M8.375 11.625C8.99632 11.625 9.5 12.1287 9.5 12.75C9.5 13.3713 8.99632 13.875 8.375 13.875C7.75368 13.875 7.25 13.3713 7.25 12.75C7.25 12.1287 7.75368 11.625 8.375 11.625Z" stroke="#5E29CD" stroke-width="0.75" stroke-linecap="round" stroke-linejoin="round"/>
<path id="Vector_3" d="M9.05375 13.6462C9.69125 13.95 11.1688 14.625 11.75 14.625C12.5 14.625 12.5 13.5 12.5 12.75C12.5 12 12.5 10.875 11.75 10.875C11.1688 10.875 9.69125 11.55 9.05375 11.8538M7.69625 13.6462C7.05875 13.95 5.58125 14.625 5 14.625C4.25 14.625 4.25 13.5 4.25 12.75C4.25 12 4.25 10.875 5 10.875C5.58125 10.875 7.05875 11.55 7.69625 11.8538" stroke="#5E29CD" stroke-width="0.75" stroke-linecap="round" stroke-linejoin="round"/>
<path id="Vector_4" d="M9.86 11.4825C11 10.125 12.125 9 12.125 9C11.6087 8.53559 10.9442 8.26977 10.25 8.25C9.3349 9.18743 8.68748 10.3528 8.375 11.625C8.06252 10.3528 7.4151 9.18743 6.5 8.25C5.80584 8.26977 5.1413 8.53559 4.625 9C4.625 9 5.75 10.125 6.89 11.4825M9.5 15.375V19.875M9.5 7.125V4.125M7.25 15.375V19.875M7.25 7.125V4.125M14.375 13.875H23.75M14.375 11.625H23.75M1.25 13.875H2.75M1.25 11.625H2.75" stroke="#5E29CD" stroke-width="0.75" stroke-linecap="round" stroke-linejoin="round"/>
</g>
</g>
</g>
<defs>
<clipPath id="clip0_154_980">
<rect width="24" height="24" fill="white" transform="matrix(1 0 0 -1 0.5 24)"/>
</clipPath>
</defs>
</svg>
