<svg width="41" height="40" viewBox="0 0 41 40" fill="none" xmlns="http://www.w3.org/2000/svg">
<rect x="0.5" width="40" height="40" rx="20" fill="#E8E8EB"/>
<path d="M29.5 30.75H11.5C11.09 30.75 10.75 30.41 10.75 30C10.75 29.59 11.09 29.25 11.5 29.25H29.5C29.91 29.25 30.25 29.59 30.25 30C30.25 30.41 29.91 30.75 29.5 30.75Z" fill="#121730"/>
<path d="M14.1 16.38H12.5C11.95 16.38 11.5 16.83 11.5 17.38V26C11.5 26.55 11.95 27 12.5 27H14.1C14.65 27 15.1 26.55 15.1 26V17.38C15.1 16.82 14.65 16.38 14.1 16.38Z" fill="#121730"/>
<path d="M21.3 13.19H19.7C19.15 13.19 18.7 13.64 18.7 14.19V26C18.7 26.55 19.15 27 19.7 27H21.3C21.85 27 22.3 26.55 22.3 26V14.19C22.3 13.64 21.85 13.19 21.3 13.19Z" fill="#121730"/>
<path d="M28.5 10H26.9C26.35 10 25.9 10.45 25.9 11V26C25.9 26.55 26.35 27 26.9 27H28.5C29.05 27 29.5 26.55 29.5 26V11C29.5 10.45 29.05 10 28.5 10Z" fill="#121730"/>
</svg>
