<svg width="24" height="24" viewBox="0 0 24 24" fill="none" xmlns="http://www.w3.org/2000/svg">
<g clip-path="url(#clip0_525_19661)">
<path d="M22.9237 13.5787L22.0424 13.2863C22.0979 12.8598 22.1255 12.4301 22.1249 12C22.1253 11.5687 22.0978 11.1378 22.0424 10.71L22.9237 10.4213C23.1125 10.3595 23.2692 10.2252 23.3592 10.0481C23.4492 9.87088 23.4652 9.66522 23.4037 9.47625L22.7099 7.33875C22.6795 7.24448 22.6307 7.15716 22.5663 7.08186C22.5019 7.00655 22.4233 6.94474 22.3349 6.9C22.2454 6.85357 22.1475 6.82565 22.047 6.81792C21.9465 6.81019 21.8454 6.8228 21.7499 6.855L20.8799 7.125C20.4718 6.36831 19.9676 5.66751 19.3799 5.04L19.9237 4.29C19.982 4.2103 20.024 4.11986 20.0472 4.02389C20.0705 3.92791 20.0746 3.82829 20.0593 3.73073C20.0439 3.63317 20.0095 3.5396 19.9579 3.45538C19.9063 3.37117 19.8386 3.29798 19.7587 3.24L17.9212 1.935C17.7604 1.81841 17.5601 1.77031 17.3639 1.80124C17.1678 1.83217 16.9919 1.93961 16.8749 2.1L16.3274 2.85C15.5481 2.47822 14.7237 2.2097 13.8749 2.05125V1.125C13.8749 0.926088 13.7959 0.735322 13.6552 0.59467C13.5146 0.454018 13.3238 0.375 13.1249 0.375H10.8749C10.676 0.375 10.4852 0.454018 10.3446 0.59467C10.2039 0.735322 10.1249 0.926088 10.1249 1.125V2.05125C9.27474 2.20889 8.44894 2.47743 7.66866 2.85L7.12491 2.1C7.00788 1.93961 6.83202 1.83217 6.6359 1.80124C6.43977 1.77031 6.23938 1.81841 6.07866 1.935L4.25617 3.255C4.17622 3.31298 4.10851 3.38617 4.05692 3.47038C4.00533 3.5546 3.97089 3.64817 3.95556 3.74573C3.94023 3.84329 3.94431 3.94291 3.96758 4.03889C3.99086 4.13486 4.03285 4.2253 4.09116 4.305L4.63117 5.055C4.04356 5.68396 3.53941 6.38599 3.13117 7.14375L2.24992 6.855C2.15611 6.82462 2.05723 6.81304 1.95894 6.82092C1.86064 6.82879 1.76487 6.85598 1.6771 6.90091C1.58932 6.94584 1.51127 7.00764 1.44741 7.08277C1.38355 7.1579 1.33512 7.24489 1.30491 7.33875L0.611165 9.47625C0.549648 9.66522 0.565645 9.87088 0.655643 10.0481C0.745641 10.2252 0.902282 10.3595 1.09116 10.4213L1.97242 10.7137C1.91191 11.1399 1.87934 11.5696 1.87492 12C1.8745 12.4313 1.90205 12.8622 1.95741 13.29L1.07616 13.5787C0.887282 13.6405 0.730641 13.7748 0.640643 13.9519C0.550645 14.1291 0.534648 14.3348 0.596165 14.5237L1.28991 16.6613C1.32035 16.7555 1.36916 16.8428 1.43352 16.9181C1.49788 16.9934 1.57653 17.0553 1.66492 17.1C1.7544 17.1464 1.85232 17.1743 1.95283 17.1821C2.05335 17.1898 2.15439 17.1772 2.24992 17.145L3.11991 16.875C3.52804 17.6317 4.03222 18.3325 4.61991 18.96L4.07616 19.71C4.01785 19.7897 3.97586 19.8801 3.95258 19.9761C3.92931 20.0721 3.92523 20.1717 3.94056 20.2693C3.95589 20.3668 3.99033 20.4604 4.04192 20.5446C4.09351 20.6288 4.16122 20.702 4.24117 20.76L6.06367 22.08C6.14464 22.1393 6.23669 22.1818 6.33438 22.2049C6.43207 22.228 6.53339 22.2312 6.63236 22.2145C6.73133 22.1977 6.82592 22.1612 6.91052 22.1072C6.99513 22.0532 7.06804 21.9827 7.12491 21.9L7.67241 21.15C8.4517 21.5218 9.27615 21.7903 10.1249 21.9487V22.875C10.1249 23.0739 10.2039 23.2647 10.3446 23.4053C10.4852 23.546 10.676 23.625 10.8749 23.625H13.1249C13.3238 23.625 13.5146 23.546 13.6552 23.4053C13.7959 23.2647 13.8749 23.0739 13.8749 22.875V21.9487C14.7238 21.7908 15.5483 21.5223 16.3274 21.15L16.8712 21.9C16.9882 22.0604 17.1641 22.1678 17.3602 22.1988C17.5563 22.2297 17.7567 22.1816 17.9174 22.065L19.7399 20.745C19.8199 20.687 19.8876 20.6138 19.9392 20.5296C19.9907 20.4454 20.0252 20.3518 20.0405 20.2543C20.0559 20.1567 20.0518 20.0571 20.0285 19.9611C20.0052 19.8651 19.9632 19.7747 19.9049 19.695L19.3649 18.945C19.9525 18.316 20.4567 17.614 20.8649 16.8563L21.7499 17.145C21.8437 17.1754 21.9426 17.187 22.0409 17.1791C22.1392 17.1712 22.235 17.144 22.3227 17.0991C22.4105 17.0542 22.4886 16.9924 22.5524 16.9172C22.6163 16.8421 22.6647 16.7551 22.6949 16.6613L23.3887 14.5237C23.4509 14.3367 23.437 14.1327 23.3499 13.9559C23.2629 13.7791 23.1098 13.6436 22.9237 13.5787ZM21.9937 16.4288L21.1124 16.1437C20.9438 16.0917 20.7623 16.1008 20.5998 16.1694C20.4372 16.238 20.304 16.3617 20.2237 16.5187C19.8394 17.219 19.3681 17.8679 18.8212 18.45C18.7042 18.5747 18.6334 18.7357 18.6204 18.9062C18.6074 19.0767 18.6531 19.2465 18.7499 19.3875L19.2937 20.1375L17.4749 21.4575L16.9312 20.7075C16.8275 20.5654 16.6772 20.4643 16.5065 20.4218C16.3358 20.3793 16.1556 20.3981 15.9974 20.475C15.2829 20.821 14.5266 21.0731 13.7474 21.225C13.5727 21.2569 13.415 21.3499 13.3024 21.4872C13.1897 21.6246 13.1295 21.7974 13.1324 21.975V22.875H10.8749V21.9487C10.8778 21.7712 10.8176 21.5983 10.705 21.461C10.5923 21.3236 10.4346 21.2307 10.2599 21.1987C9.47452 21.0475 8.71195 20.7954 7.99116 20.4487C7.83381 20.3739 7.65528 20.3561 7.48625 20.3985C7.31722 20.441 7.16825 20.5409 7.06491 20.6813L6.51741 21.4313L4.69866 20.1375L5.24241 19.3875C5.34504 19.2457 5.39484 19.0725 5.3832 18.8979C5.37156 18.7232 5.2992 18.5582 5.17867 18.4313C4.6317 17.8491 4.16047 17.2002 3.77616 16.5C3.69579 16.3429 3.56262 16.2192 3.40008 16.1507C3.23753 16.0821 3.056 16.073 2.88741 16.125L2.00616 16.4138L1.30866 14.2913L2.18992 14.0025C2.35598 13.9481 2.49782 13.8373 2.59093 13.6894C2.68405 13.5415 2.72259 13.3658 2.69991 13.1925C2.59991 12.4006 2.59991 11.5994 2.69991 10.8075C2.72259 10.6342 2.68405 10.4585 2.59093 10.3106C2.49782 10.1627 2.35598 10.0519 2.18992 9.9975L1.30866 9.70875L2.00616 7.57125L2.88741 7.875C3.056 7.92701 3.23753 7.91792 3.40008 7.84934C3.56262 7.78075 3.69579 7.65706 3.77616 7.5C4.16047 6.79976 4.6317 6.15087 5.17867 5.56875C5.30033 5.44276 5.37406 5.27816 5.38707 5.1035C5.40009 4.92884 5.35156 4.75513 5.24992 4.6125L4.70617 3.8625L6.52491 2.5425L7.06866 3.2925C7.17234 3.4346 7.32265 3.53574 7.49334 3.57824C7.66402 3.62074 7.84422 3.60189 8.00241 3.525C8.71694 3.17903 9.47321 2.92694 10.2524 2.775C10.4271 2.74305 10.5848 2.65014 10.6975 2.51279C10.8101 2.37545 10.8703 2.20259 10.8674 2.025V1.125H13.1174V2.05125C13.1145 2.22884 13.1747 2.4017 13.2874 2.53904C13.4 2.67639 13.5577 2.7693 13.7324 2.80125C14.5114 2.95404 15.2676 3.2061 15.9824 3.55125C16.1398 3.62614 16.3183 3.6439 16.4873 3.60147C16.6564 3.55905 16.8053 3.45908 16.9087 3.31875L17.4562 2.56875L19.2749 3.8925L18.7499 4.6125C18.6473 4.75428 18.5975 4.9275 18.6091 5.10214C18.6208 5.27677 18.6931 5.44184 18.8137 5.56875C19.3633 6.15043 19.837 6.79934 20.2237 7.5C20.304 7.65706 20.4372 7.78075 20.5998 7.84934C20.7623 7.91792 20.9438 7.92701 21.1124 7.875L21.9937 7.58625L22.6912 9.7275L21.8099 10.0162C21.6439 10.0707 21.502 10.1814 21.4089 10.3293C21.3158 10.4772 21.2772 10.653 21.2999 10.8263C21.3999 11.6181 21.3999 12.4194 21.2999 13.2112C21.2772 13.3845 21.3158 13.5603 21.4089 13.7082C21.502 13.8561 21.6439 13.9668 21.8099 14.0212L22.6912 14.31L21.9937 16.4288Z" fill="#9395A2"/>
<path d="M6.96007 6.95993C8.15905 5.77221 9.73875 5.04575 11.4208 4.90855C13.1029 4.77135 14.7795 5.23221 16.1551 6.20993H15.1126V6.95993H17.4001C17.4603 6.95991 17.5196 6.94539 17.573 6.9176C17.6264 6.88981 17.6723 6.84958 17.7069 6.80029C17.7415 6.751 17.7637 6.69412 17.7716 6.63444C17.7796 6.57476 17.773 6.51405 17.7526 6.45743L16.9726 4.30493L16.2676 4.56368L16.6426 5.64743C15.1734 4.56791 13.3753 4.03155 11.5548 4.12987C9.73435 4.2282 8.0044 4.9551 6.66008 6.18658C5.31576 7.41806 4.44037 9.07782 4.18323 10.8827C3.92609 12.6876 4.30315 14.5258 5.25007 16.0837L5.89132 15.7087C5.06218 14.3419 4.71677 12.736 4.91061 11.1492C5.10446 9.56242 5.8263 8.08691 6.96007 6.95993Z" fill="#9395A2"/>
<path d="M18.0937 8.30626C18.9311 9.70768 19.2618 11.3542 19.0305 12.9702C18.7992 14.5863 18.0199 16.0739 16.8231 17.1842C15.6263 18.2945 14.0845 18.9601 12.4557 19.0697C10.8268 19.1793 9.20974 18.7262 7.87497 17.7863H8.91372V17.0363H6.62622C6.56556 17.0361 6.50576 17.0506 6.45195 17.0786C6.39813 17.1066 6.35192 17.1472 6.31725 17.197C6.28259 17.2468 6.26052 17.3042 6.25294 17.3644C6.24536 17.4246 6.25249 17.4857 6.27372 17.5425L7.05372 19.6913L7.75872 19.4363L7.36122 18.345C8.83011 19.4191 10.6256 19.9513 12.4425 19.8512C14.2595 19.7511 15.9856 19.0249 17.3277 17.796C18.6697 16.5671 19.5447 14.9113 19.804 13.1102C20.0633 11.3091 19.6908 9.47381 18.75 7.91626L18.0937 8.30626Z" fill="#9395A2"/>
<path d="M6.75 12.7501V14.6251C6.75 14.7246 6.78951 14.82 6.85983 14.8903C6.93016 14.9606 7.02554 15.0001 7.125 15.0001H9.75C9.75 15.0996 9.78951 15.195 9.85983 15.2653C9.93016 15.3356 10.0255 15.3751 10.125 15.3751H13.875C13.9745 15.3751 14.0698 15.3356 14.1402 15.2653C14.2105 15.195 14.25 15.0996 14.25 15.0001H16.875C16.9745 15.0001 17.0698 14.9606 17.1402 14.8903C17.2105 14.82 17.25 14.7246 17.25 14.6251V12.7501C17.2487 12.4319 17.1463 12.1224 16.9576 11.8662C16.7688 11.6101 16.5035 11.4206 16.2 11.3251C16.4111 11.1545 16.5641 10.9227 16.638 10.6615C16.7118 10.4003 16.7029 10.1227 16.6124 9.86679C16.522 9.61091 16.3544 9.38936 16.1328 9.23266C15.9112 9.07596 15.6464 8.99182 15.375 8.99182C15.1036 8.99182 14.8388 9.07596 14.6172 9.23266C14.3956 9.38936 14.228 9.61091 14.1376 9.86679C14.0471 10.1227 14.0382 10.4003 14.112 10.6615C14.1859 10.9227 14.3389 11.1545 14.55 11.3251C14.3149 11.3972 14.1011 11.526 13.9275 11.7001C13.6791 11.3352 13.31 11.0696 12.885 10.9501C13.1405 10.7634 13.3304 10.5007 13.4275 10.1996C13.5247 9.89847 13.5241 9.57433 13.4259 9.27353C13.3278 8.97274 13.137 8.7107 12.8808 8.52488C12.6247 8.33907 12.3164 8.23901 12 8.23901C11.6836 8.23901 11.3753 8.33907 11.1192 8.52488C10.863 8.7107 10.6722 8.97274 10.5741 9.27353C10.4759 9.57433 10.4753 9.89847 10.5725 10.1996C10.6696 10.5007 10.8595 10.7634 11.115 10.9501C10.69 11.0696 10.3209 11.3352 10.0725 11.7001C9.89888 11.526 9.6851 11.3972 9.45 11.3251C9.66109 11.1545 9.8141 10.9227 9.88796 10.6615C9.96183 10.4003 9.9529 10.1227 9.86243 9.86679C9.77195 9.61091 9.60437 9.38936 9.38276 9.23266C9.16115 9.07596 8.89641 8.99182 8.625 8.99182C8.35359 8.99182 8.08885 9.07596 7.86724 9.23266C7.64563 9.38936 7.47805 9.61091 7.38757 9.86679C7.2971 10.1227 7.28817 10.4003 7.36204 10.6615C7.4359 10.9227 7.58891 11.1545 7.8 11.3251C7.49647 11.4206 7.23115 11.6101 7.0424 11.8662C6.85366 12.1224 6.75125 12.4319 6.75 12.7501ZM15.375 9.75012C15.4863 9.75012 15.595 9.78311 15.6875 9.84492C15.78 9.90673 15.8521 9.99458 15.8947 10.0974C15.9373 10.2001 15.9484 10.3132 15.9267 10.4224C15.905 10.5315 15.8514 10.6317 15.7727 10.7104C15.6941 10.789 15.5939 10.8426 15.4847 10.8643C15.3756 10.886 15.2625 10.8749 15.1597 10.8323C15.057 10.7897 14.9691 10.7176 14.9073 10.6251C14.8455 10.5326 14.8125 10.4239 14.8125 10.3126C14.8125 10.1634 14.8718 10.0204 14.9773 9.91487C15.0827 9.80938 15.2258 9.75012 15.375 9.75012ZM14.25 12.7501C14.25 12.5512 14.329 12.3604 14.4697 12.2198C14.6103 12.0791 14.8011 12.0001 15 12.0001H15.75C15.9489 12.0001 16.1397 12.0791 16.2803 12.2198C16.421 12.3604 16.5 12.5512 16.5 12.7501V14.2501H14.25V12.7501ZM12 9.00012C12.1483 9.00012 12.2933 9.04411 12.4167 9.12652C12.54 9.20893 12.6361 9.32606 12.6929 9.46311C12.7497 9.60015 12.7645 9.75095 12.7356 9.89644C12.7067 10.0419 12.6352 10.1756 12.5303 10.2804C12.4254 10.3853 12.2918 10.4568 12.1463 10.4857C12.0008 10.5146 11.85 10.4998 11.713 10.443C11.5759 10.3863 11.4588 10.2901 11.3764 10.1668C11.294 10.0435 11.25 9.89845 11.25 9.75012C11.25 9.55121 11.329 9.36044 11.4697 9.21979C11.6103 9.07914 11.8011 9.00012 12 9.00012ZM10.5 12.7501C10.5 12.4518 10.6185 12.1656 10.8295 11.9546C11.0405 11.7436 11.3266 11.6251 11.625 11.6251H12.375C12.6734 11.6251 12.9595 11.7436 13.1705 11.9546C13.3815 12.1656 13.5 12.4518 13.5 12.7501V14.6251H10.5V12.7501ZM8.625 9.75012C8.73625 9.75012 8.84501 9.78311 8.93751 9.84492C9.03001 9.90673 9.10211 9.99458 9.14468 10.0974C9.18726 10.2001 9.1984 10.3132 9.17669 10.4224C9.15499 10.5315 9.10141 10.6317 9.02275 10.7104C8.94408 10.789 8.84385 10.8426 8.73474 10.8643C8.62562 10.886 8.51252 10.8749 8.40974 10.8323C8.30696 10.7897 8.21911 10.7176 8.1573 10.6251C8.09549 10.5326 8.0625 10.4239 8.0625 10.3126C8.0625 10.1634 8.12176 10.0204 8.22725 9.91487C8.33274 9.80938 8.47582 9.75012 8.625 9.75012ZM7.5 12.7501C7.5 12.5512 7.57902 12.3604 7.71967 12.2198C7.86032 12.0791 8.05109 12.0001 8.25 12.0001H9C9.19891 12.0001 9.38968 12.0791 9.53033 12.2198C9.67098 12.3604 9.75 12.5512 9.75 12.7501V14.2501H7.5V12.7501Z" fill="#9395A2"/>
</g>
<defs>
<clipPath id="clip0_525_19661">
<rect width="24" height="24" fill="white"/>
</clipPath>
</defs>
</svg>
