<svg width="24" height="24" viewBox="0 0 24 24" fill="none" xmlns="http://www.w3.org/2000/svg">
<g id="Frame">
<g id="Group">
<path id="Vector" d="M19.7177 6.06572C19.416 2.66822 16.5553 0 13.0803 0H5.20239C4.95826 0 4.7514 0.174703 4.71742 0.416484L1.96398 20.0055C1.94415 20.1462 1.9862 20.292 2.07924 20.3992C2.17229 20.5064 2.30715 20.5714 2.44899 20.5714H4.90248C4.67129 22.1738 4.42065 23.3958 4.41826 23.4083C4.40362 23.4797 4.40501 23.5536 4.42234 23.6244C4.43967 23.6952 4.47251 23.7614 4.51848 23.818C4.61153 23.9323 4.7507 24 4.89803 24H9.95288C10.1964 24 10.403 23.796 10.4377 23.5549L11.3574 17.1428H15.6035C19.1531 17.1428 22.0409 14.3475 22.0409 10.881C22.0408 8.99606 21.1947 7.26581 19.7177 6.06572ZM5.62815 0.979594H13.0803C16.2155 0.979594 18.7661 3.53859 18.7661 6.678C18.7661 9.81028 16.2155 12.3673 13.0803 12.3673H8.3641C8.11993 12.3673 7.91307 12.5385 7.87909 12.7806L6.92078 19.5918H3.01248L5.62815 0.979594ZM15.6034 16.1632H10.9331C10.6897 16.1632 10.483 16.3673 10.4484 16.6083L9.52853 23.0204H5.49128C5.5884 22.5306 5.73404 21.6708 5.87251 20.7104C5.87945 20.662 5.87682 20.5714 5.86998 20.5714H7.3464C7.59057 20.5714 7.79743 20.4002 7.83142 20.1582L8.78973 13.347H13.0802C16.5067 13.347 19.3363 10.736 19.704 7.4048C20.5749 8.36686 21.0612 9.57502 21.0612 10.8854C21.0612 13.8118 18.613 16.1632 15.6034 16.1632Z" fill="#1F3071"/>
</g>
</g>
</svg>
