<svg width="24" height="24" viewBox="0 0 24 24" fill="none" xmlns="http://www.w3.org/2000/svg">
<g id="Frame" clip-path="url(#clip0_146_3137)">
<g id="Group">
<path id="Vector" d="M14.686 24C14.212 23.9994 13.7576 23.8108 13.4224 23.4756C13.0872 23.1404 12.8986 22.686 12.898 22.212V17.6448C12.898 17.6127 12.8913 17.5809 12.8786 17.5515C12.8658 17.522 12.8471 17.4955 12.8236 17.4736L11.4624 16.2068L10.6168 18.0028C10.5872 18.0655 10.5514 18.1252 10.51 18.1808L7.33361 22.4308C7.20173 22.641 7.02786 22.8217 6.82288 22.9616C6.6179 23.1015 6.38623 23.1975 6.14241 23.2436C5.79198 23.3115 5.42933 23.2752 5.09933 23.1391C4.76933 23.0031 4.48647 22.7732 4.28576 22.4781C4.08505 22.1829 3.97529 21.8353 3.97007 21.4784C3.96486 21.1215 4.06441 20.7709 4.25641 20.47L7.18841 16.2836C7.20343 16.2622 7.21466 16.2384 7.22161 16.2132L9.14441 9.418C9.15564 9.3796 9.15668 9.33893 9.14742 9.30001C9.13816 9.26108 9.11893 9.22523 9.09161 9.196C9.07854 9.18186 9.06392 9.16924 9.04801 9.1584L7.66001 12.2704C7.58007 12.4638 7.46238 12.6394 7.31381 12.7868C7.16524 12.9342 6.98878 13.0506 6.79473 13.129C6.60069 13.2074 6.39295 13.2464 6.18367 13.2436C5.9744 13.2408 5.76777 13.1964 5.57588 13.1128C5.38398 13.0292 5.21067 12.9083 5.06607 12.757C4.92147 12.6056 4.80848 12.427 4.73371 12.2315C4.65894 12.036 4.62389 11.8276 4.6306 11.6184C4.63731 11.4092 4.68566 11.2035 4.77281 11.0132L6.60721 6.9292C6.75731 6.63461 6.99238 6.39187 7.28201 6.2324C7.29845 6.22365 7.31542 6.2159 7.33281 6.2092L11.126 4.78C11.3797 4.68353 11.6612 4.6913 11.9092 4.8016L14.2572 5.8416C14.4692 5.9359 14.6434 6.09858 14.752 6.3036L15.4172 7.5604C15.4397 7.60217 15.4741 7.63629 15.516 7.6584L19.1496 9.5704C19.3442 9.66809 19.5173 9.80353 19.659 9.96882C19.8006 10.1341 19.908 10.326 19.9747 10.5332C20.0415 10.7404 20.0663 10.9588 20.0477 11.1757C20.0292 11.3926 19.9677 11.6037 19.8667 11.7965C19.7658 11.9894 19.6274 12.1602 19.4598 12.2991C19.2921 12.438 19.0985 12.542 18.8902 12.6053C18.6819 12.6685 18.463 12.6897 18.2465 12.6675C18.0299 12.6453 17.8199 12.5802 17.6288 12.476C17.6268 12.4748 15.382 11.28 14.2148 10.656C14.1841 10.6397 14.1502 10.6304 14.1154 10.6289C14.0807 10.6274 14.0461 10.6336 14.014 10.6471C13.982 10.6606 13.9534 10.6811 13.9303 10.7071C13.9072 10.733 13.8901 10.7638 13.8804 10.7972L13.43 12.3348C13.4201 12.3692 13.4181 12.4055 13.4244 12.4408C13.4306 12.4761 13.4449 12.5095 13.466 12.5384L16.24 16.3384C16.3927 16.5468 16.4748 16.7985 16.4744 17.0568V22.2112C16.474 22.6854 16.2855 23.14 15.9503 23.4753C15.6151 23.8107 15.1602 23.9994 14.686 24ZM11.334 15.1412C11.435 15.1411 11.5324 15.1792 11.6064 15.248L13.3684 16.888C13.4722 16.9849 13.5551 17.1022 13.6117 17.2324C13.6684 17.3627 13.6978 17.5032 13.698 17.6452V22.212C13.698 22.4741 13.8021 22.7254 13.9874 22.9108C14.1728 23.0961 14.4241 23.2002 14.6862 23.2002C14.9483 23.2002 15.1996 23.0961 15.385 22.9108C15.5703 22.7254 15.6744 22.4741 15.6744 22.212V17.0572C15.6745 16.9683 15.6462 16.8817 15.5936 16.81L12.8196 13.0104C12.7266 12.8823 12.6641 12.7346 12.6369 12.5786C12.6096 12.4226 12.6184 12.2625 12.6624 12.1104L13.1128 10.5728C13.1559 10.4253 13.2314 10.2892 13.3338 10.1745C13.4361 10.0599 13.5628 9.96948 13.7045 9.90993C13.8462 9.85039 13.9994 9.82319 14.1529 9.83033C14.3064 9.83747 14.4564 9.87876 14.592 9.9512C15.7285 10.558 16.8654 11.164 18.0028 11.7692C18.1045 11.8222 18.216 11.8539 18.3304 11.8621C18.4449 11.8704 18.5597 11.8551 18.668 11.8173C18.7763 11.7794 18.8757 11.7198 18.96 11.642C19.0444 11.5643 19.1119 11.4701 19.1584 11.3652C19.2447 11.1699 19.2534 10.949 19.183 10.7474C19.1125 10.5459 18.968 10.3786 18.7788 10.2796L18.7772 10.2788L15.1428 8.3664C14.9587 8.26962 14.8081 8.11946 14.7108 7.9356L14.0448 6.678C14.0204 6.63177 13.981 6.59512 13.9332 6.574L11.5852 5.5336C11.5292 5.50881 11.4657 5.50708 11.4084 5.5288L7.6436 6.9472C7.5087 7.02625 7.39867 7.14155 7.32601 7.28L5.50401 11.3384C5.46111 11.4323 5.4374 11.5338 5.43427 11.637C5.43114 11.7401 5.44866 11.8429 5.48579 11.9392C5.52293 12.0355 5.57893 12.1234 5.65051 12.1978C5.72209 12.2721 5.80781 12.3314 5.90263 12.3722C5.99746 12.413 6.09947 12.4344 6.20268 12.4352C6.3059 12.436 6.40823 12.4162 6.50367 12.3769C6.59912 12.3376 6.68575 12.2796 6.75848 12.2064C6.83121 12.1332 6.88858 12.0461 6.92721 11.9504L8.43481 8.5688C8.46112 8.50984 8.50131 8.45813 8.55195 8.41807C8.60259 8.37802 8.66217 8.35082 8.72561 8.3388C8.89882 8.30583 9.07758 8.31768 9.24492 8.37323C9.41226 8.42879 9.56263 8.52619 9.68174 8.6562C9.80085 8.78621 9.88474 8.94451 9.92547 9.11606C9.96619 9.28762 9.96238 9.46673 9.91441 9.6364L7.99161 16.4316C7.96006 16.5428 7.91002 16.6478 7.84361 16.7424L4.92081 20.9152C4.78693 21.1333 4.73938 21.3936 4.78748 21.645C4.83558 21.8964 4.97586 22.1207 5.18081 22.274C5.29533 22.3596 5.4265 22.4203 5.56588 22.4522C5.70526 22.4841 5.84977 22.4865 5.99013 22.4592C6.13049 22.4319 6.26359 22.3756 6.38088 22.2938C6.49818 22.2121 6.59707 22.1067 6.67121 21.9844L9.86881 17.7032C9.87815 17.6907 9.88619 17.6773 9.89281 17.6632L10.972 15.3708C10.9988 15.3138 11.0386 15.2639 11.0883 15.2253C11.138 15.1866 11.1962 15.1603 11.258 15.1484C11.283 15.1435 11.3085 15.1411 11.334 15.1412ZM14.0008 4.8656C13.5196 4.8656 13.0493 4.72292 12.6492 4.4556C12.2491 4.18828 11.9373 3.80833 11.7532 3.36379C11.5691 2.91926 11.5209 2.4301 11.6148 1.95819C11.7086 1.48627 11.9403 1.05279 12.2806 0.712552C12.6208 0.372319 13.0543 0.140617 13.5262 0.0467467C13.9981 -0.0471235 14.4873 0.0010541 14.9318 0.185187C15.3763 0.36932 15.7563 0.681138 16.0236 1.08121C16.2909 1.48128 16.4336 1.95164 16.4336 2.4328C16.4328 3.07776 16.1762 3.69606 15.7201 4.15212C15.2641 4.60817 14.6458 4.86475 14.0008 4.8656ZM14.0008 0.800001C13.6779 0.800001 13.3622 0.895763 13.0937 1.07518C12.8252 1.25459 12.6159 1.5096 12.4923 1.80796C12.3687 2.10631 12.3364 2.43461 12.3994 2.75134C12.4624 3.06808 12.6179 3.35901 12.8462 3.58737C13.0746 3.81572 13.3655 3.97123 13.6823 4.03423C13.999 4.09723 14.3273 4.06489 14.6257 3.94131C14.924 3.81773 15.179 3.60845 15.3584 3.33994C15.5378 3.07142 15.6336 2.75574 15.6336 2.4328C15.6332 1.99989 15.461 1.58482 15.1549 1.27871C14.8488 0.972587 14.4337 0.800425 14.0008 0.800001Z" fill="#96A8B4"/>
</g>
</g>
<defs>
<clipPath id="clip0_146_3137">
<rect width="24" height="24" fill="white"/>
</clipPath>
</defs>
</svg>
