<svg width="16" height="16" viewBox="0 0 16 16" fill="none" xmlns="http://www.w3.org/2000/svg">
<g id="Frame" clip-path="url(#clip0_146_3223)">
<g id="Group">
<path id="Vector" d="M9.41502 8.00032L15.7068 1.70852C16.0977 1.31795 16.0977 0.684235 15.7068 0.293665C15.3159 -0.0972374 14.6829 -0.0972374 14.292 0.293665L8.00017 6.58547L1.70803 0.293665C1.31713 -0.0972374 0.68408 -0.0972374 0.293177 0.293665C-0.0977257 0.684235 -0.0977257 1.31795 0.293177 1.70852L6.58531 8.00032L0.293177 14.2921C-0.0977257 14.6827 -0.0977257 15.3164 0.293177 15.707C0.488629 15.9021 0.744783 15.9998 1.0006 15.9998C1.25643 15.9998 1.51258 15.9021 1.70803 15.7066L8.00017 9.41484L14.292 15.7066C14.4874 15.9021 14.7436 15.9998 14.9994 15.9998C15.2552 15.9998 15.5114 15.9021 15.7068 15.7066C16.0977 15.3161 16.0977 14.6824 15.7068 14.2918L9.41502 8.00032Z" fill="#fff"/>
</g>
</g>
<defs>
<clipPath id="clip0_146_3223">
<rect width="16" height="16" fill="white"/>
</clipPath>
</defs>
</svg>
