<svg version="1.1" id="Layer_1" xmlns="http://www.w3.org/2000/svg" xmlns:xlink="http://www.w3.org/1999/xlink" x="0px" y="0px"
	 width="100%" viewBox="0 0 512 512" enable-background="new 0 0 512 512" xml:space="preserve">
<path fill="#9395A2" opacity="1.000000" stroke="none" 
	d="
M87.468658,513.000000 
	C86.199806,510.953125 84.064560,510.959869 82.492607,510.259613 
	C67.495438,503.578857 58.477489,492.136414 54.610085,476.277069 
	C51.980675,465.494507 48.954628,454.808411 46.086601,444.084351 
	C44.214848,437.085480 46.504044,432.557343 52.473808,431.529846 
	C57.468037,430.670258 60.863571,432.959564 62.265503,438.321350 
	C65.033661,448.908356 67.674072,459.528870 70.457664,470.111755 
	C73.827026,482.921722 80.436928,492.839874 94.248802,496.102600 
	C100.054192,497.473969 105.861763,496.715912 111.528915,495.456543 
	C125.764267,492.293030 140.010010,489.130890 154.121780,485.468140 
	C171.738220,480.895752 182.272125,461.294312 176.060165,444.241394 
	C165.334778,414.798279 154.152359,385.521515 143.145081,356.181213 
	C139.068161,345.313995 134.886307,334.485687 130.889374,323.589355 
	C130.057632,321.321899 129.207657,320.289490 126.573784,321.061554 
	C106.077118,327.070007 85.332230,332.324493 65.099243,339.109650 
	C49.622341,344.299927 42.391022,359.811768 46.202362,375.735413 
	C48.324764,384.602753 50.428360,393.476227 52.724617,402.299042 
	C53.243275,404.291870 53.246269,406.231201 53.348419,408.213959 
	C53.536652,411.867615 51.963646,414.404205 48.388741,415.228912 
	C44.533955,416.118195 40.722324,416.334259 38.597034,411.865021 
	C35.292671,404.916290 34.212383,397.293457 32.058460,390.002258 
	C28.445904,377.773407 26.507313,365.234558 30.685593,352.765289 
	C35.284233,339.041534 43.894630,328.563965 57.856533,323.551270 
	C80.826561,315.304413 104.665375,309.925903 127.971794,302.773010 
	C137.314163,299.905731 145.175369,294.167816 153.774979,289.865723 
	C156.239594,288.632812 155.629074,286.168243 155.632065,284.071777 
	C155.660797,263.906311 155.823120,243.738831 155.600800,223.575760 
	C155.390533,204.505493 167.379852,190.644730 187.645706,189.776123 
	C196.072144,189.414963 204.544525,189.218765 213.028793,190.541840 
	C226.646729,192.665482 238.260269,205.370407 238.312012,219.095810 
	C238.343170,227.359665 238.317749,235.623703 238.317749,244.046936 
	C248.731750,241.533142 250.650177,239.153900 250.651993,229.505402 
	C250.656189,207.173340 250.612213,184.841110 250.683548,162.509247 
	C250.734879,146.434769 261.798401,131.982269 277.616974,129.396729 
	C288.177399,127.670639 299.289703,127.016129 309.788879,130.085968 
	C323.918884,134.217438 333.331390,147.724640 333.339233,162.475891 
	C333.365753,212.473053 333.314789,262.470337 333.450409,312.467163 
	C333.457367,315.027161 331.213959,319.405975 336.797455,319.610107 
	C342.972107,319.835846 345.642273,317.490509 345.643005,311.831512 
	C345.652313,238.335663 345.937012,164.837860 345.435638,91.345428 
	C345.319702,74.353737 359.622498,57.412357 376.270691,56.363220 
	C385.992676,55.750561 395.528015,55.184376 404.816254,58.089401 
	C418.872803,62.485798 428.044830,75.234642 428.298645,90.007195 
	C428.424622,97.337967 428.375061,104.673111 428.309143,112.005409 
	C428.256653,117.843994 425.263275,121.194595 420.199860,121.302734 
	C414.932556,121.415222 411.740662,117.958206 411.668274,111.912804 
	C411.602478,106.413872 411.648743,100.913589 411.647705,95.413902 
	C411.645020,81.036476 407.472748,75.262527 393.444580,72.939644 
	C384.297363,71.424988 374.756195,70.971474 367.340302,78.689949 
	C364.087189,82.075859 362.325043,86.024246 362.326172,90.785889 
	C362.343140,162.781815 362.335266,234.777725 362.349304,306.773651 
	C362.349487,307.722290 362.557770,308.670837 362.722595,310.077698 
	C368.903381,308.215820 373.587677,304.418030 378.420563,301.099213 
	C388.000366,294.520630 397.236420,287.443726 406.730316,280.736694 
	C410.148315,278.322052 411.742889,275.525391 411.729187,271.178558 
	C411.597351,229.348007 411.644043,187.516876 411.661102,145.685913 
	C411.663574,139.620667 414.055786,136.168610 418.428162,135.689728 
	C424.581665,135.015732 428.202454,138.154221 428.289581,144.549164 
	C428.407593,153.213791 428.329773,161.881119 428.331055,170.547287 
	C428.335327,199.878952 428.337433,229.210632 428.340302,258.542297 
	C428.340454,260.187012 428.340302,261.831726 428.340302,263.476410 
	C431.129059,264.429993 432.714111,262.530640 434.501434,261.628448 
	C458.240906,249.645279 483.215271,261.031830 488.789154,286.992218 
	C491.728271,300.681274 487.484894,312.571838 476.533691,321.714996 
	C460.107910,335.428894 443.731201,349.202698 427.211548,362.802734 
	C414.924774,372.917999 402.694305,383.130676 389.977570,392.686218 
	C378.115265,401.599701 364.074707,405.815643 349.802002,409.278992 
	C313.589081,418.066162 277.405792,426.975342 241.211929,435.840912 
	C226.896988,439.347290 212.584122,442.862091 198.275391,446.393707 
	C197.323166,446.628662 196.414200,447.038940 195.295456,447.434753 
	C195.065598,453.562225 195.846237,459.664734 194.392838,465.713776 
	C190.017624,483.923462 179.056320,496.056976 161.102524,501.257385 
	C147.281219,505.260803 133.299896,508.762085 119.151421,511.506836 
	C118.543655,511.624756 118.009422,512.121704 117.220474,512.721069 
	C107.312439,513.000000 97.624878,513.000000 87.468658,513.000000 
M433.113190,282.736664 
	C417.764954,293.489471 402.226288,303.982666 387.119080,315.064087 
	C370.170227,327.496307 351.917694,336.585663 330.604523,337.206879 
	C310.464050,337.793915 290.292847,337.349030 270.135223,337.309967 
	C262.431763,337.295044 257.100037,333.111786 254.159363,326.510742 
	C251.058090,319.549164 252.481812,312.668488 257.902496,307.234894 
	C261.869659,303.258301 266.317291,299.712494 270.810883,296.319092 
	C282.581116,287.430603 288.778107,275.332825 291.620361,261.204895 
	C292.765533,255.512558 290.610901,251.036285 286.142395,247.725845 
	C281.531586,244.309982 276.314453,244.439117 271.488373,246.937515 
	C259.547791,253.119003 247.826202,259.721710 235.941132,266.012543 
	C210.842361,279.297424 185.687469,292.476257 160.574829,305.735016 
	C155.623581,308.349182 150.758896,311.127289 145.986404,313.756989 
	C146.089752,314.507080 146.075638,314.852722 146.187256,315.151398 
	C160.175064,352.579346 174.208481,389.990356 188.099777,427.454041 
	C189.213318,430.457184 190.554306,430.591187 193.326691,429.909332 
	C216.491943,424.211975 239.716629,418.756714 262.890503,413.093842 
	C290.570618,406.329895 318.179169,399.269135 345.895996,392.661133 
	C360.280334,389.231720 373.751282,384.285980 385.302551,374.649872 
	C398.795502,363.394073 412.633545,352.553009 426.232788,341.423126 
	C438.932190,331.029694 451.649994,320.651093 464.103180,309.966980 
	C472.895782,302.423462 474.991699,292.911072 470.388062,284.680481 
	C465.420563,275.799377 455.855621,271.642426 446.349121,274.522156 
	C441.512299,275.987305 437.651276,279.285431 433.113190,282.736664 
M316.662140,221.500061 
	C316.660553,202.351303 316.725098,183.202209 316.625793,164.053955 
	C316.584290,156.052582 313.146759,150.033157 305.551361,146.724655 
	C299.290680,143.997543 292.727814,145.946915 286.332367,145.353973 
	C274.930206,144.296814 267.119476,154.967926 267.259949,164.401337 
	C267.557434,184.378281 267.339447,204.362778 267.370850,224.344116 
	C267.373383,225.954758 266.922089,227.695999 268.129150,229.076065 
	C269.139008,229.689865 270.056152,229.265366 271.043976,229.155594 
	C277.151337,228.477051 283.211060,227.998505 289.231354,230.185287 
	C301.200195,234.532776 311.228363,246.110687 308.337494,263.763641 
	C305.355865,281.970428 297.218872,297.242950 282.509491,308.771912 
	C278.194489,312.153961 274.116211,315.838043 269.846466,319.453979 
	C271.666138,321.134491 273.239960,320.624664 274.665161,320.630005 
	C286.653839,320.674866 298.648407,320.439758 310.628784,320.757812 
	C315.589691,320.889496 316.771606,319.084564 316.745270,314.413940 
	C316.572601,283.776825 316.659363,253.138199 316.662140,221.500061 
M221.645935,250.000488 
	C221.645874,240.337204 221.708160,230.673370 221.623688,221.010834 
	C221.568115,214.654694 216.674225,208.836090 210.581360,207.317978 
	C203.667282,205.595230 196.657501,206.461243 189.698730,206.447556 
	C178.732605,206.425995 172.370636,212.965195 172.345566,223.908264 
	C172.306641,240.902191 172.324265,257.896301 172.365448,274.890228 
	C172.368881,276.304291 171.825073,277.913391 173.176712,279.068817 
	C173.560684,279.097229 173.951797,279.253418 174.192612,279.125885 
	C189.318939,271.113495 204.429932,263.072144 219.552383,255.052460 
	C221.282013,254.135223 221.715256,252.649353 221.645935,250.000488 
z"/>
<path fill="#9395A2" opacity="1.000000" stroke="none" 
	d="
M316.531342,1.000000 
	C323.130371,4.432384 329.229797,7.959327 330.744843,15.644131 
	C331.478821,19.366905 332.224762,23.165216 332.256500,26.935293 
	C332.407867,44.930843 332.489197,62.930756 332.248444,80.924477 
	C332.094360,92.439171 328.488037,102.850250 316.661407,106.831833 
	C300.640137,112.225609 287.386658,105.204437 284.688660,86.162735 
	C284.527222,85.023201 284.547455,83.857925 284.470367,82.475288 
	C281.397125,82.540802 279.638336,84.482590 277.802917,86.273857 
	C262.317719,101.386673 246.780090,116.446327 231.375000,131.640350 
	C223.963669,138.950134 215.811234,144.372025 204.845474,142.224915 
	C197.083420,140.705109 190.597778,135.995239 183.592392,132.600952 
	C182.998535,132.313217 182.494400,131.846237 181.921356,131.508804 
	C175.329819,127.627411 175.345581,127.646965 169.845276,133.149521 
	C134.974792,168.034332 100.099419,202.914291 65.217194,237.787369 
	C58.626072,244.376770 49.121624,246.181534 40.373714,242.562881 
	C30.711405,238.565964 25.993103,231.402481 25.563782,221.562912 
	C25.185150,212.885056 28.598885,206.140594 34.496578,200.247665 
	C64.669258,170.099335 95.022102,140.127335 124.876686,109.667068 
	C133.721207,100.643120 142.567490,91.605164 151.413651,82.575630 
	C159.850647,73.963760 170.639389,72.123703 181.526062,77.352898 
	C189.456375,81.162064 197.292877,85.166565 205.607605,89.300980 
	C218.586136,75.462723 233.700104,63.658154 246.213959,49.424221 
	C245.850174,47.608299 244.694443,47.511948 243.496613,47.367554 
	C228.576752,45.569084 224.112885,34.342426 224.271225,22.958031 
	C224.411041,12.906016 230.213013,6.830555 237.820221,1.279723 
	C264.020905,1.000000 290.041779,1.000000 316.531342,1.000000 
M257.754730,82.255035 
	C266.960663,73.345215 276.162231,64.430855 285.375000,55.528069 
	C288.586395,52.424713 292.368958,51.812096 296.421112,53.409382 
	C300.243469,54.916080 300.361206,58.346771 300.345612,61.778946 
	C300.318359,67.776649 300.315735,73.774666 300.343506,79.772369 
	C300.375031,86.579979 303.457367,91.397476 307.854370,91.595215 
	C312.297546,91.795036 315.607452,87.055779 315.628906,80.132774 
	C315.682037,62.972454 315.700409,45.811623 315.625854,28.651463 
	C315.584564,19.150953 312.852203,16.412535 303.463654,16.381561 
	C286.470001,16.325495 269.475891,16.403557 252.482193,16.350634 
	C250.086990,16.343176 247.839142,16.810160 245.698380,17.719711 
	C242.816086,18.944315 241.312103,21.227068 241.400177,24.399752 
	C241.484680,27.443865 243.292435,29.342936 245.958786,30.348627 
	C248.121429,31.164337 250.363297,31.733637 252.763565,31.681179 
	C257.759338,31.571997 262.759277,31.664087 267.757385,31.646633 
	C271.320648,31.634192 274.962311,31.554180 276.584290,35.640892 
	C278.291168,39.941467 277.429260,43.738274 274.044403,46.989048 
	C268.768707,52.055756 263.461456,57.088181 258.140717,62.105770 
	C243.614670,75.804184 229.461929,89.898369 215.155914,103.830238 
	C210.017166,108.834625 206.985275,109.407257 200.426315,106.118645 
	C192.110062,101.948929 183.921143,97.526093 175.633545,93.298180 
	C169.646027,90.243652 167.522919,90.588768 162.820572,95.253059 
	C155.380219,102.633217 148.325470,110.398926 140.970291,117.846527 
	C109.947556,149.259048 78.618256,180.368790 47.404850,211.593048 
	C45.645573,213.352921 43.643047,214.949860 42.824432,217.427246 
	C41.656715,220.961151 42.327179,223.883011 45.536781,226.173462 
	C48.630280,228.381042 51.103306,227.488068 53.496193,225.120499 
	C54.561642,224.066330 55.698402,223.083420 56.749691,222.015884 
	C92.270447,185.946274 128.920990,150.997040 163.681229,114.172791 
	C168.579773,108.983376 172.924438,108.102394 179.351501,111.268776 
	C187.552612,115.309135 195.924438,119.021759 203.773636,123.762222 
	C207.634018,126.093681 211.117416,126.666245 214.958282,122.933594 
	C228.902756,109.381973 243.127655,96.118889 257.754730,82.255035 
z"/>
<path fill="#9395A2" opacity="1.000000" stroke="none" 
	d="
M146.399841,464.008820 
	C141.156967,472.454437 134.397812,477.852203 124.589867,479.549316 
	C108.840591,482.274506 93.712097,472.868683 89.990944,457.522003 
	C85.897362,440.639374 94.871880,424.069794 112.424789,420.239594 
	C131.425461,416.093536 149.672882,429.323395 149.434677,448.672150 
	C149.369980,453.927185 148.702621,458.889069 146.399841,464.008820 
M117.246422,463.105133 
	C123.488129,463.932373 129.050430,460.749725 131.538620,454.927338 
	C134.049500,449.051849 132.617325,443.044525 127.615074,439.370605 
	C123.149628,436.090973 118.301102,435.108795 113.180321,437.874207 
	C108.379021,440.467102 105.660156,444.811798 105.905228,450.007629 
	C106.212616,456.524689 110.005638,461.023224 117.246422,463.105133 
z"/>
</svg>