<svg width="24" height="24" viewBox="0 0 24 24" fill="none" xmlns="http://www.w3.org/2000/svg">
<path d="M22 22H2M20 22V11M4 22V11" stroke="#9395A2" stroke-width="1.5" stroke-linecap="round"/>
<path d="M16.5281 2H7.47207C6.26907 2 5.66807 2 5.18507 2.299C4.70107 2.597 4.43207 3.135 3.89507 4.211L2.49007 7.76C2.16607 8.58 1.88207 9.546 2.42807 10.239C2.68529 10.566 3.03809 10.8047 3.43734 10.9218C3.83659 11.0388 4.26241 11.0285 4.65549 10.8921C5.04857 10.7558 5.38935 10.5002 5.63036 10.1611C5.87136 9.82192 6.0006 9.41606 6.00007 9C6.00007 9.53043 6.21078 10.0391 6.58586 10.4142C6.96093 10.7893 7.46964 11 8.00007 11C8.5305 11 9.03921 10.7893 9.41428 10.4142C9.78935 10.0391 10.0001 9.53043 10.0001 9C10.0001 9.53043 10.2108 10.0391 10.5859 10.4142C10.9609 10.7893 11.4696 11 12.0001 11C12.5305 11 13.0392 10.7893 13.4143 10.4142C13.7894 10.0391 14.0001 9.53043 14.0001 9C14.0001 9.53043 14.2108 10.0391 14.5859 10.4142C14.9609 10.7893 15.4696 11 16.0001 11C16.5305 11 17.0392 10.7893 17.4143 10.4142C17.7894 10.0391 18.0001 9.53043 18.0001 9C18 9.41573 18.1295 9.82114 18.3705 10.1599C18.6116 10.4986 18.9522 10.7538 19.345 10.8899C19.7377 11.0261 20.1632 11.0365 20.5622 10.9197C20.9611 10.8028 21.3138 10.5646 21.5711 10.238C22.1171 9.545 21.8331 8.579 21.5091 7.759L20.1051 4.211C19.5681 3.135 19.2991 2.597 18.8151 2.299C18.3321 2 17.7311 2 16.5281 2Z" stroke="#9395A2" stroke-width="1.5" stroke-linejoin="round"/>
<path d="M9.5 21.5V18.5C9.5 17.565 9.5 17.098 9.701 16.75C9.83265 16.522 10.022 16.3326 10.25 16.201C10.598 16 11.065 16 12 16C12.935 16 13.402 16 13.75 16.201C13.978 16.3326 14.1674 16.522 14.299 16.75C14.5 17.098 14.5 17.565 14.5 18.5V21.5" stroke="#9395A2" stroke-width="1.5" stroke-linecap="round"/>
</svg>
