<svg width="24" height="24" viewBox="0 0 24 24" fill="none" xmlns="http://www.w3.org/2000/svg">
<path d="M22.29 9.90007C22.43 10.5851 22.5 11.291 22.5 12C22.5 17.79 17.79 22.5 12 22.5C6.21 22.5 1.5 17.79 1.5 12C1.5 6.21004 6.21 1.50004 12 1.50004C13.074 1.50004 14.134 1.66307 15.15 1.98307C15.413 2.06607 15.56 2.34703 15.477 2.61003C15.394 2.87403 15.113 3.01905 14.85 2.93705C13.932 2.64705 12.973 2.50004 12 2.50004C6.762 2.50004 2.5 6.76204 2.5 12C2.5 17.238 6.762 21.5 12 21.5C17.238 21.5 21.5 17.238 21.5 12C21.5 11.358 21.436 10.719 21.31 10.1C21.255 9.82902 21.429 9.56503 21.7 9.51103C21.971 9.45703 22.235 9.62907 22.29 9.90007ZM18.354 4.35405L19.5 3.20805V7.00004C19.5 7.27604 19.724 7.50004 20 7.50004C20.276 7.50004 20.5 7.27604 20.5 7.00004V3.20707L21.646 4.35307C21.744 4.45107 21.872 4.49907 22 4.49907C22.128 4.49907 22.256 4.45007 22.354 4.35307C22.549 4.15807 22.549 3.84104 22.354 3.64604L20.355 1.64604C20.309 1.60004 20.253 1.56301 20.192 1.53801C20.07 1.48701 19.932 1.48701 19.81 1.53801C19.748 1.56301 19.693 1.60004 19.647 1.64604L17.648 3.64604C17.453 3.84104 17.453 4.15807 17.648 4.35307C17.843 4.54807 18.158 4.54905 18.354 4.35405ZM11.978 17.5C12.254 17.5 12.478 17.276 12.478 17V16.376C13.061 16.345 13.608 16.1111 14.026 15.6921C14.475 15.2431 14.722 14.648 14.722 14.016C14.722 12.929 13.984 11.982 12.926 11.714L11.317 11.314C11.02 11.239 10.754 11.0651 10.565 10.8221C10.38 10.5881 10.278 10.2901 10.278 9.9821C10.278 9.2261 10.894 8.61003 11.65 8.61003H12.35C13.049 8.61003 13.636 9.13507 13.714 9.83207C13.745 10.1071 13.998 10.302 14.267 10.273C14.541 10.242 14.739 9.99501 14.708 9.72001C14.578 8.56001 13.629 7.68301 12.478 7.62101V7.00004C12.478 6.72404 12.254 6.50004 11.978 6.50004C11.702 6.50004 11.478 6.72404 11.478 7.00004V7.62907C10.252 7.71907 9.278 8.73407 9.278 9.98307C9.278 10.5151 9.456 11.033 9.778 11.44C10.1 11.855 10.559 12.1551 11.074 12.2851L12.683 12.6851C13.295 12.8401 13.722 13.388 13.722 14.017C13.722 14.382 13.579 14.725 13.319 14.986C13.059 15.247 12.715 15.3891 12.35 15.3891H11.65C10.951 15.3891 10.364 14.864 10.286 14.167C10.255 13.893 10.004 13.697 9.733 13.726C9.459 13.757 9.26101 14.0041 9.29201 14.2791C9.42101 15.4241 10.347 16.2911 11.478 16.3741V17C11.478 17.276 11.701 17.5 11.978 17.5Z" fill="#9395A2"/>
</svg>
