<svg width="24" height="24" viewBox="0 0 24 24" fill="none" xmlns="http://www.w3.org/2000/svg">
<path d="M7.81 2H16.19C19.83 2 22 4.17 22 7.81V16.18C22 19.83 19.83 22 16.19 22H7.82C4.18 22 2.01 19.83 2.01 16.19V7.81C2 4.17 4.17 2 7.81 2ZM6.75 12.33C6.75 12.74 7.09 13.08 7.5 13.08C7.91 13.08 8.25 12.74 8.25 12.33V9.31L15.97 17.03C16.12 17.18 16.31 17.25 16.5 17.25C16.69 17.25 16.88 17.18 17.03 17.03C17.32 16.74 17.32 16.26 17.03 15.97L9.31 8.25H12.33C12.74 8.25 13.08 7.91 13.08 7.5C13.08 7.09 12.74 6.75 12.33 6.75H7.5C7.09 6.75 6.75 7.09 6.75 7.5V12.33Z" fill="#6200EE"/>
</svg>
