<svg width="616" height="235" viewBox="0 0 616 235" fill="none" xmlns="http://www.w3.org/2000/svg">
<rect x="0.21875" width="615.227" height="234.286" rx="10" fill="white"/>
<path d="M281.09 117.057L273.541 103.358H271.425V117.057H262.582V80.7812H277.41C280.267 80.7812 282.713 81.2751 284.724 82.2746C286.735 83.2741 288.251 84.6381 289.251 86.3784C290.25 88.1187 290.744 90.0589 290.744 92.1873C290.744 94.5978 290.062 96.7497 288.698 98.6429C287.334 100.536 285.335 101.888 282.678 102.676L291.05 117.045H281.079L281.09 117.057ZM271.425 97.1025H276.904C278.527 97.1025 279.738 96.7027 280.549 95.9148C281.361 95.127 281.761 93.9981 281.761 92.5518C281.761 91.1055 281.361 90.0942 280.549 89.2946C279.738 88.5068 278.527 88.107 276.904 88.107H271.425V97.1025Z" fill="#1A1A1A"/>
<path d="M321.86 104.745H301.858C301.999 106.533 302.575 107.908 303.587 108.849C304.598 109.802 305.856 110.272 307.338 110.272C309.537 110.272 311.077 109.343 311.935 107.485H321.342C320.86 109.378 319.99 111.083 318.732 112.6C317.474 114.117 315.898 115.305 314.005 116.163C312.112 117.021 309.995 117.457 307.643 117.457C304.821 117.457 302.305 116.857 300.094 115.646C297.884 114.435 296.167 112.718 294.92 110.472C293.686 108.238 293.062 105.615 293.062 102.617C293.062 99.6185 293.674 96.9962 294.897 94.7621C296.12 92.5279 297.837 90.7994 300.035 89.5882C302.234 88.377 304.774 87.7773 307.632 87.7773C310.489 87.7773 312.9 88.3653 315.075 89.5294C317.25 90.7053 318.944 92.375 320.167 94.5386C321.389 96.714 322.001 99.2422 322.001 102.135C322.001 102.958 321.954 103.828 321.848 104.722L321.86 104.745ZM312.97 99.8301C312.97 98.3132 312.453 97.1138 311.418 96.2084C310.383 95.3147 309.09 94.8679 307.538 94.8679C305.985 94.8679 304.81 95.303 303.787 96.1614C302.775 97.0198 302.14 98.2427 301.905 99.8301H312.97Z" fill="#1A1A1A"/>
<path d="M325.928 94.7738C327.045 92.5396 328.573 90.8111 330.502 89.5999C332.43 88.3888 334.582 87.7891 336.957 87.7891C338.992 87.7891 340.767 88.2006 342.308 89.0237C343.836 89.8469 345.024 90.9404 345.847 92.2809V88.2006H354.69V117.045H345.847V112.965C344.989 114.305 343.789 115.399 342.261 116.222C340.732 117.045 338.945 117.457 336.91 117.457C334.57 117.457 332.43 116.845 330.502 115.622C328.573 114.399 327.045 112.659 325.928 110.401C324.811 108.144 324.246 105.533 324.246 102.57C324.246 99.6067 324.811 97.008 325.928 94.762V94.7738ZM344.013 97.4078C342.79 96.1378 341.296 95.4911 339.544 95.4911C337.792 95.4911 336.299 96.1143 335.076 97.3725C333.853 98.6307 333.242 100.359 333.242 102.57C333.242 104.781 333.853 106.521 335.076 107.814C336.299 109.108 337.792 109.754 339.544 109.754C341.296 109.754 342.79 109.12 344.013 107.838C345.236 106.568 345.847 104.828 345.847 102.617C345.847 100.406 345.236 98.6777 344.013 97.396V97.4078Z" fill="#1A1A1A"/>
<path d="M360.322 94.7731C361.439 92.539 362.968 90.8104 364.896 89.5993C366.825 88.3881 368.977 87.7884 371.352 87.7884C373.245 87.7884 374.974 88.1882 376.549 88.976C378.113 89.7639 379.348 90.8339 380.242 92.1862V78.8047H389.084V117.056H380.242V112.917C379.418 114.293 378.231 115.398 376.702 116.221C375.174 117.044 373.386 117.456 371.352 117.456C368.977 117.456 366.825 116.844 364.896 115.621C362.968 114.399 361.439 112.658 360.322 110.401C359.205 108.143 358.641 105.532 358.641 102.569C358.641 99.606 359.205 97.0073 360.322 94.7614V94.7731ZM378.407 97.4071C377.184 96.1372 375.691 95.4904 373.939 95.4904C372.187 95.4904 370.693 96.1136 369.47 97.3718C368.248 98.63 367.636 100.359 367.636 102.569C367.636 104.78 368.248 106.52 369.47 107.814C370.693 109.107 372.187 109.754 373.939 109.754C375.691 109.754 377.184 109.119 378.407 107.837C379.63 106.567 380.242 104.827 380.242 102.616C380.242 100.406 379.63 98.6771 378.407 97.3953V97.4071Z" fill="#1A1A1A"/>
<path d="M424.029 88.2109L405.944 130.743H396.431L403.052 116.068L391.316 88.2109H401.194L407.861 106.249L414.481 88.2109H424.041H424.029Z" fill="#1A1A1A"/>
<path d="M464.398 98.2078C463.434 99.9481 461.952 101.347 459.953 102.417C457.954 103.488 455.473 104.017 452.51 104.017H447.03V117.045H438.188V80.7695H452.498C455.391 80.7695 457.836 81.2634 459.835 82.2629C461.834 83.2624 463.328 84.6382 464.327 86.402C465.327 88.1541 465.821 90.1766 465.821 92.446C465.821 94.5508 465.339 96.4675 464.374 98.2078H464.398ZM455.614 95.809C456.437 95.0212 456.849 93.8924 456.849 92.446C456.849 90.9997 456.437 89.8826 455.614 89.083C454.791 88.2952 453.533 87.8954 451.839 87.8954H447.03V96.9967H451.839C453.533 96.9967 454.791 96.5969 455.614 95.809Z" fill="#1A1A1A"/>
<path d="M477.332 115.033C474.487 113.445 472.229 111.234 470.559 108.389C468.89 105.543 468.055 102.357 468.055 98.8054C468.055 95.2542 468.89 92.0676 470.559 89.2455C472.229 86.4234 474.487 84.2127 477.332 82.6253C480.178 81.0378 483.306 80.25 486.716 80.25C490.126 80.25 493.254 81.0378 496.099 82.6253C498.945 84.2127 501.179 86.4116 502.814 89.2455C504.448 92.0676 505.271 95.2542 505.271 98.8054C505.271 102.357 504.448 105.555 502.79 108.389C501.132 111.234 498.898 113.445 496.076 115.033C493.254 116.62 490.138 117.408 486.716 117.408C483.294 117.408 480.178 116.62 477.332 115.033ZM493.665 106.449C495.406 104.52 496.276 101.968 496.276 98.8054C496.276 95.6423 495.406 93.0436 493.665 91.1269C491.925 89.2102 489.609 88.2577 486.716 88.2577C483.823 88.2577 481.448 89.2102 479.708 91.1034C477.967 92.9965 477.097 95.56 477.097 98.8054C477.097 102.051 477.967 104.567 479.708 106.484C481.448 108.401 483.776 109.353 486.716 109.353C489.656 109.353 491.925 108.389 493.665 106.46V106.449Z" fill="#1A1A1A"/>
<path d="M515.055 116.114C512.95 115.256 511.269 113.974 510.011 112.293C508.752 110.599 508.094 108.577 508.023 106.19H517.43C517.572 107.53 518.03 108.553 518.83 109.271C519.618 109.976 520.652 110.329 521.934 110.329C523.216 110.329 524.274 110.023 525.038 109.424C525.791 108.824 526.179 107.989 526.179 106.919C526.179 106.025 525.873 105.285 525.274 104.697C524.674 104.109 523.933 103.627 523.051 103.25C522.169 102.874 520.923 102.439 519.3 101.957C516.96 101.228 515.043 100.51 513.562 99.7814C512.08 99.0524 510.81 97.9941 509.74 96.5713C508.67 95.1602 508.141 93.3141 508.141 91.0446C508.141 87.6698 509.364 85.0241 511.81 83.1074C514.256 81.1907 517.442 80.2383 521.37 80.2383C525.297 80.2383 528.59 81.1907 531.035 83.1074C533.481 85.0241 534.786 87.6816 534.963 91.0917H525.403C525.332 89.9158 524.897 88.9986 524.109 88.3283C523.322 87.6581 522.299 87.3171 521.064 87.3171C519.994 87.3171 519.135 87.5993 518.477 88.1755C517.818 88.7399 517.501 89.563 517.501 90.6331C517.501 91.8089 518.054 92.7144 519.159 93.3729C520.264 94.0314 521.981 94.7369 524.333 95.4894C526.673 96.2773 528.578 97.0416 530.048 97.7589C531.506 98.4879 532.776 99.5345 533.846 100.91C534.916 102.286 535.445 104.062 535.445 106.237C535.445 108.412 534.916 110.188 533.869 111.869C532.823 113.563 531.294 114.903 529.295 115.903C527.296 116.902 524.933 117.396 522.216 117.396C519.5 117.396 517.184 116.961 515.079 116.103L515.055 116.114Z" fill="#1A1A1A"/>
<path d="M272.177 149.63C271.237 150.535 269.814 150.982 267.897 150.982H264.734V157.849H262.582V141.398H267.897C269.755 141.398 271.166 141.845 272.13 142.739C273.094 143.633 273.577 144.797 273.577 146.208C273.577 147.619 273.106 148.712 272.177 149.618V149.63ZM270.543 148.442C271.107 147.925 271.389 147.184 271.389 146.22C271.389 144.185 270.225 143.174 267.897 143.174H264.734V149.218H267.897C269.096 149.218 269.978 148.959 270.543 148.442Z" fill="#1A1A1A"/>
<path d="M278.597 157.238C277.609 156.685 276.845 155.909 276.28 154.886C275.716 153.875 275.445 152.699 275.445 151.359C275.445 150.018 275.728 148.866 276.304 147.854C276.88 146.843 277.656 146.055 278.655 145.514C279.655 144.974 280.76 144.703 281.983 144.703C283.206 144.703 284.323 144.974 285.311 145.514C286.299 146.055 287.087 146.831 287.663 147.843C288.239 148.854 288.521 150.018 288.521 151.359C288.521 152.699 288.227 153.875 287.639 154.886C287.051 155.898 286.252 156.685 285.24 157.238C284.229 157.791 283.112 158.061 281.889 158.061C280.666 158.061 279.584 157.791 278.597 157.238ZM284.065 155.639C284.735 155.274 285.287 154.733 285.699 154.016C286.111 153.287 286.322 152.417 286.322 151.37C286.322 150.324 286.122 149.454 285.711 148.725C285.299 147.996 284.77 147.466 284.112 147.114C283.453 146.761 282.736 146.585 281.96 146.585C281.184 146.585 280.455 146.761 279.796 147.114C279.149 147.466 278.62 148.007 278.232 148.725C277.844 149.454 277.644 150.324 277.644 151.37C277.644 152.417 277.832 153.311 278.22 154.04C278.608 154.769 279.126 155.298 279.761 155.651C280.408 156.003 281.113 156.18 281.889 156.18C282.665 156.18 283.383 156.003 284.065 155.639Z" fill="#1A1A1A"/>
<path d="M308.583 144.914L304.55 157.849H302.328L299.212 147.583L296.096 157.849H293.873L289.816 144.914H292.015L294.99 155.767L298.2 144.914H300.399L303.539 155.791L306.467 144.914H308.595H308.583Z" fill="#1A1A1A"/>
<path d="M322.433 152.193H312.097C312.18 153.463 312.615 154.463 313.403 155.18C314.202 155.898 315.155 156.25 316.295 156.25C317.224 156.25 318 156.039 318.623 155.604C319.247 155.168 319.682 154.592 319.929 153.863H322.245C321.904 155.11 321.21 156.121 320.164 156.897C319.117 157.673 317.836 158.061 316.295 158.061C315.072 158.061 313.967 157.791 313.003 157.238C312.039 156.685 311.274 155.909 310.722 154.886C310.169 153.875 309.898 152.699 309.898 151.359C309.898 150.018 310.169 148.854 310.698 147.843C311.227 146.831 311.98 146.055 312.956 145.514C313.92 144.974 315.037 144.703 316.295 144.703C317.553 144.703 318.612 144.974 319.552 145.503C320.493 146.044 321.222 146.773 321.74 147.713C322.245 148.654 322.504 149.712 322.504 150.888C322.504 151.3 322.48 151.735 322.433 152.182V152.193ZM319.741 148.337C319.376 147.749 318.882 147.302 318.271 146.996C317.647 146.69 316.965 146.538 316.201 146.538C315.119 146.538 314.19 146.879 313.426 147.572C312.662 148.266 312.227 149.219 312.121 150.453H320.281C320.281 149.63 320.105 148.936 319.741 148.337Z" fill="#1A1A1A"/>
<path d="M329.103 145.303C329.808 144.891 330.655 144.691 331.666 144.691V146.914H331.102C328.691 146.914 327.492 148.219 327.492 150.829V157.861H325.34V144.927H327.492V147.031C327.868 146.291 328.409 145.714 329.103 145.315V145.303Z" fill="#1A1A1A"/>
<path d="M334.205 142.399C333.922 142.117 333.781 141.776 333.781 141.364C333.781 140.953 333.922 140.612 334.205 140.33C334.487 140.047 334.84 139.906 335.239 139.906C335.639 139.906 335.968 140.047 336.239 140.33C336.509 140.612 336.65 140.965 336.65 141.364C336.65 141.764 336.509 142.117 336.239 142.399C335.968 142.681 335.627 142.822 335.239 142.822C334.851 142.822 334.487 142.681 334.205 142.399ZM336.286 144.927V157.862H334.134V144.927H336.286Z" fill="#1A1A1A"/>
<path d="M350.066 146.114C351.042 147.067 351.524 148.442 351.524 150.23V157.849H349.396V150.536C349.396 149.242 349.078 148.254 348.431 147.572C347.785 146.89 346.903 146.549 345.786 146.549C344.668 146.549 343.751 146.902 343.081 147.608C342.411 148.313 342.082 149.348 342.082 150.7V157.849H339.93V144.915H342.082V146.761C342.505 146.102 343.081 145.585 343.81 145.232C344.539 144.868 345.351 144.691 346.232 144.691C347.808 144.691 349.078 145.162 350.054 146.114H350.066Z" fill="#1A1A1A"/>
<path d="M363.32 145.444C364.167 145.926 364.79 146.549 365.201 147.29V144.926H367.377V158.143C367.377 159.319 367.13 160.378 366.624 161.295C366.119 162.212 365.401 162.929 364.461 163.458C363.52 163.976 362.438 164.234 361.192 164.234C359.487 164.234 358.076 163.835 356.947 163.035C355.818 162.235 355.148 161.142 354.936 159.754H357.064C357.299 160.542 357.793 161.177 358.522 161.659C359.263 162.141 360.145 162.377 361.192 162.377C362.368 162.377 363.332 162.012 364.084 161.271C364.837 160.53 365.201 159.496 365.201 158.155V155.439C364.778 156.191 364.143 156.826 363.308 157.332C362.473 157.838 361.497 158.085 360.38 158.085C359.263 158.085 358.193 157.802 357.252 157.238C356.312 156.673 355.583 155.874 355.042 154.851C354.501 153.828 354.242 152.664 354.242 151.359C354.242 150.053 354.513 148.877 355.042 147.878C355.571 146.878 356.312 146.102 357.252 145.55C358.193 144.997 359.228 144.727 360.38 144.727C361.533 144.727 362.473 144.973 363.32 145.456V145.444ZM364.602 148.819C364.214 148.09 363.673 147.537 363.014 147.161C362.344 146.773 361.615 146.584 360.804 146.584C359.992 146.584 359.275 146.773 358.605 147.149C357.934 147.525 357.417 148.078 357.029 148.795C356.641 149.524 356.441 150.371 356.441 151.347C356.441 152.323 356.641 153.205 357.029 153.934C357.417 154.663 357.946 155.227 358.605 155.603C359.263 155.98 359.992 156.18 360.804 156.18C361.615 156.18 362.344 155.991 363.014 155.603C363.684 155.215 364.214 154.663 364.602 153.934C364.99 153.205 365.19 152.346 365.19 151.37C365.19 150.394 364.99 149.548 364.602 148.819Z" fill="#1A1A1A"/>
<path d="M388.813 141.398L383.463 151.64V157.849H381.311V151.64L375.926 141.398H378.313L382.37 149.724L386.426 141.398H388.813Z" fill="#1A1A1A"/>
<path d="M393.421 157.238C392.433 156.685 391.669 155.909 391.104 154.886C390.54 153.875 390.27 152.699 390.27 151.359C390.27 150.018 390.552 148.866 391.128 147.854C391.704 146.843 392.48 146.055 393.48 145.514C394.479 144.974 395.585 144.703 396.807 144.703C398.03 144.703 399.147 144.974 400.135 145.514C401.123 146.055 401.911 146.831 402.487 147.843C403.063 148.854 403.345 150.018 403.345 151.359C403.345 152.699 403.051 153.875 402.463 154.886C401.875 155.898 401.076 156.685 400.065 157.238C399.053 157.791 397.936 158.061 396.713 158.061C395.49 158.061 394.409 157.791 393.421 157.238ZM398.889 155.639C399.559 155.274 400.112 154.733 400.523 154.016C400.935 153.287 401.146 152.417 401.146 151.37C401.146 150.324 400.947 149.454 400.535 148.725C400.123 147.996 399.594 147.466 398.936 147.114C398.277 146.761 397.56 146.585 396.784 146.585C396.008 146.585 395.279 146.761 394.62 147.114C393.974 147.466 393.444 148.007 393.056 148.725C392.668 149.454 392.468 150.324 392.468 151.37C392.468 152.417 392.657 153.311 393.045 154.04C393.433 154.769 393.95 155.298 394.585 155.651C395.232 156.003 395.937 156.18 396.713 156.18C397.489 156.18 398.207 156.003 398.889 155.639Z" fill="#1A1A1A"/>
<path d="M417.645 144.914V157.849H415.493V155.932C415.082 156.591 414.517 157.108 413.776 157.472C413.047 157.837 412.236 158.025 411.354 158.025C410.343 158.025 409.437 157.813 408.638 157.402C407.838 156.99 407.203 156.355 406.733 155.521C406.274 154.686 406.039 153.674 406.039 152.475V144.902H408.167V152.193C408.167 153.463 408.485 154.45 409.132 155.132C409.778 155.815 410.66 156.156 411.777 156.156C412.894 156.156 413.835 155.803 414.494 155.097C415.152 154.392 415.481 153.357 415.481 152.005V144.902H417.633L417.645 144.914Z" fill="#1A1A1A"/>
<path d="M425.04 145.303C425.746 144.891 426.592 144.691 427.604 144.691V146.914H427.039C424.629 146.914 423.429 148.219 423.429 150.829V157.861H421.277V144.927H423.429V147.031C423.806 146.291 424.346 145.714 425.04 145.315V145.303Z" fill="#1A1A1A"/>
<path d="M446.256 150.112C446.75 150.5 447.15 150.994 447.432 151.57C447.726 152.158 447.867 152.769 447.867 153.439C447.867 154.274 447.656 155.027 447.232 155.697C446.809 156.367 446.186 156.897 445.374 157.273C444.563 157.661 443.611 157.849 442.505 157.849H436.367V141.398H442.27C443.387 141.398 444.34 141.587 445.127 141.951C445.915 142.316 446.503 142.821 446.903 143.444C447.291 144.079 447.491 144.785 447.491 145.573C447.491 146.549 447.232 147.36 446.703 147.995C446.174 148.63 445.48 149.089 444.61 149.371C445.21 149.465 445.751 149.712 446.245 150.1L446.256 150.112ZM438.531 148.513H442.141C443.152 148.513 443.928 148.277 444.481 147.807C445.033 147.337 445.304 146.678 445.304 145.843C445.304 145.008 445.033 144.362 444.481 143.88C443.928 143.409 443.14 143.174 442.094 143.174H438.531V148.513ZM444.834 155.333C445.433 154.827 445.727 154.133 445.727 153.228C445.727 152.322 445.41 151.593 444.786 151.064C444.152 150.535 443.317 150.276 442.258 150.276H438.531V156.085H442.329C443.399 156.085 444.234 155.838 444.834 155.333Z" fill="#1A1A1A"/>
<path d="M462.317 144.914V157.849H460.165V155.932C459.753 156.591 459.189 157.108 458.448 157.472C457.719 157.837 456.908 158.025 456.026 158.025C455.015 158.025 454.109 157.813 453.31 157.402C452.51 156.99 451.875 156.355 451.405 155.521C450.946 154.686 450.711 153.674 450.711 152.475V144.902H452.839V152.193C452.839 153.463 453.157 154.45 453.804 155.132C454.45 155.815 455.332 156.156 456.449 156.156C457.566 156.156 458.507 155.803 459.166 155.097C459.824 154.392 460.153 153.357 460.153 152.005V144.902H462.305L462.317 144.914Z" fill="#1A1A1A"/>
<path d="M467.868 157.555C467.08 157.214 466.457 156.744 465.999 156.144C465.54 155.545 465.293 154.839 465.246 154.051H467.468C467.527 154.698 467.833 155.227 468.374 155.627C468.915 156.039 469.632 156.238 470.514 156.238C471.337 156.238 471.972 156.062 472.454 155.698C472.925 155.333 473.16 154.874 473.16 154.334C473.16 153.793 472.913 153.346 472.407 153.075C471.902 152.805 471.126 152.534 470.067 152.264C469.103 152.017 468.327 151.758 467.715 151.5C467.104 151.241 466.587 150.853 466.163 150.347C465.728 149.842 465.517 149.16 465.517 148.325C465.517 147.666 465.716 147.055 466.104 146.502C466.493 145.95 467.057 145.514 467.774 145.197C468.492 144.879 469.326 144.715 470.255 144.715C471.69 144.715 472.842 145.079 473.724 145.797C474.606 146.526 475.076 147.513 475.135 148.772H472.983C472.936 148.101 472.666 147.549 472.172 147.149C471.678 146.737 471.008 146.537 470.173 146.537C469.397 146.537 468.785 146.702 468.327 147.031C467.868 147.361 467.645 147.796 467.645 148.325C467.645 148.748 467.786 149.101 468.056 149.371C468.327 149.642 468.68 149.865 469.091 150.03C469.503 150.194 470.091 150.383 470.82 150.582C471.749 150.829 472.501 151.076 473.089 151.323C473.665 151.57 474.171 151.935 474.583 152.417C474.994 152.899 475.218 153.546 475.229 154.334C475.229 155.039 475.029 155.674 474.641 156.25C474.253 156.815 473.689 157.261 472.983 157.579C472.266 157.896 471.443 158.061 470.514 158.061C469.526 158.061 468.633 157.896 467.845 157.555H467.868Z" fill="#1A1A1A"/>
<path d="M478.345 142.399C478.063 142.117 477.922 141.776 477.922 141.364C477.922 140.953 478.063 140.612 478.345 140.33C478.627 140.047 478.98 139.906 479.38 139.906C479.78 139.906 480.109 140.047 480.379 140.33C480.65 140.612 480.791 140.965 480.791 141.364C480.791 141.764 480.65 142.117 480.379 142.399C480.109 142.681 479.768 142.822 479.38 142.822C478.992 142.822 478.627 142.681 478.345 142.399ZM480.427 144.927V157.862H478.275V144.927H480.427Z" fill="#1A1A1A"/>
<path d="M494.195 146.114C495.171 147.067 495.653 148.442 495.653 150.23V157.849H493.524V150.536C493.524 149.242 493.207 148.254 492.56 147.572C491.913 146.89 491.032 146.549 489.914 146.549C488.797 146.549 487.88 146.902 487.21 147.608C486.54 148.313 486.21 149.348 486.21 150.7V157.849H484.059V144.915H486.21V146.761C486.634 146.102 487.21 145.585 487.939 145.232C488.668 144.868 489.479 144.691 490.361 144.691C491.937 144.691 493.207 145.162 494.183 146.114H494.195Z" fill="#1A1A1A"/>
<path d="M510.906 152.193H500.57C500.652 153.463 501.087 154.463 501.875 155.18C502.675 155.898 503.627 156.25 504.768 156.25C505.697 156.25 506.473 156.039 507.096 155.604C507.719 155.168 508.154 154.592 508.401 153.863H510.718C510.377 155.11 509.683 156.121 508.637 156.897C507.59 157.673 506.308 158.061 504.768 158.061C503.545 158.061 502.44 157.791 501.475 157.238C500.511 156.685 499.747 155.909 499.194 154.886C498.642 153.875 498.371 152.699 498.371 151.359C498.371 150.018 498.642 148.854 499.171 147.843C499.7 146.831 500.452 146.055 501.428 145.514C502.393 144.974 503.51 144.703 504.768 144.703C506.026 144.703 507.084 144.974 508.025 145.503C508.966 146.044 509.695 146.773 510.212 147.713C510.718 148.654 510.976 149.712 510.976 150.888C510.976 151.3 510.953 151.735 510.906 152.182V152.193ZM508.213 148.337C507.849 147.749 507.355 147.302 506.743 146.996C506.12 146.69 505.438 146.538 504.674 146.538C503.592 146.538 502.663 146.879 501.899 147.572C501.134 148.266 500.699 149.219 500.593 150.453H508.754C508.754 149.63 508.578 148.936 508.213 148.337Z" fill="#1A1A1A"/>
<path d="M515.712 157.555C514.924 157.214 514.301 156.744 513.842 156.144C513.384 155.545 513.137 154.839 513.09 154.051H515.312C515.371 154.698 515.677 155.227 516.218 155.627C516.759 156.039 517.476 156.238 518.358 156.238C519.181 156.238 519.816 156.062 520.298 155.698C520.768 155.333 521.004 154.874 521.004 154.334C521.004 153.793 520.757 153.346 520.251 153.075C519.745 152.805 518.969 152.534 517.911 152.264C516.947 152.017 516.171 151.758 515.559 151.5C514.948 151.241 514.43 150.853 514.007 150.347C513.572 149.842 513.36 149.16 513.36 148.325C513.36 147.666 513.56 147.055 513.948 146.502C514.336 145.95 514.901 145.514 515.618 145.197C516.335 144.879 517.17 144.715 518.099 144.715C519.534 144.715 520.686 145.079 521.568 145.797C522.45 146.526 522.92 147.513 522.979 148.772H520.827C520.78 148.101 520.51 147.549 520.016 147.149C519.522 146.737 518.852 146.537 518.017 146.537C517.241 146.537 516.629 146.702 516.171 147.031C515.712 147.361 515.489 147.796 515.489 148.325C515.489 148.748 515.63 149.101 515.9 149.371C516.171 149.642 516.523 149.865 516.935 150.03C517.347 150.194 517.934 150.383 518.664 150.582C519.592 150.829 520.345 151.076 520.933 151.323C521.509 151.57 522.015 151.935 522.426 152.417C522.838 152.899 523.061 153.546 523.073 154.334C523.073 155.039 522.873 155.674 522.485 156.25C522.097 156.815 521.533 157.261 520.827 157.579C520.11 157.896 519.287 158.061 518.358 158.061C517.37 158.061 516.476 157.896 515.689 157.555H515.712Z" fill="#1A1A1A"/>
<path d="M528.036 157.555C527.248 157.214 526.625 156.744 526.167 156.144C525.708 155.545 525.461 154.839 525.414 154.051H527.636C527.695 154.698 528.001 155.227 528.542 155.627C529.083 156.039 529.8 156.238 530.682 156.238C531.505 156.238 532.14 156.062 532.622 155.698C533.093 155.333 533.328 154.874 533.328 154.334C533.328 153.793 533.081 153.346 532.575 153.075C532.07 152.805 531.293 152.534 530.235 152.264C529.271 152.017 528.495 151.758 527.883 151.5C527.272 151.241 526.755 150.853 526.331 150.347C525.896 149.842 525.684 149.16 525.684 148.325C525.684 147.666 525.884 147.055 526.272 146.502C526.66 145.95 527.225 145.514 527.942 145.197C528.659 144.879 529.494 144.715 530.423 144.715C531.858 144.715 533.01 145.079 533.892 145.797C534.774 146.526 535.244 147.513 535.303 148.772H533.151C533.104 148.101 532.834 147.549 532.34 147.149C531.846 146.737 531.176 146.537 530.341 146.537C529.565 146.537 528.953 146.702 528.495 147.031C528.036 147.361 527.813 147.796 527.813 148.325C527.813 148.748 527.954 149.101 528.224 149.371C528.495 149.642 528.848 149.865 529.259 150.03C529.671 150.194 530.259 150.383 530.988 150.582C531.917 150.829 532.669 151.076 533.257 151.323C533.833 151.57 534.339 151.935 534.751 152.417C535.162 152.899 535.386 153.546 535.397 154.334C535.397 155.039 535.197 155.674 534.809 156.25C534.421 156.815 533.857 157.261 533.151 157.579C532.434 157.896 531.611 158.061 530.682 158.061C529.694 158.061 528.801 157.896 528.013 157.555H528.036Z" fill="#1A1A1A"/>
<path d="M215.367 143.997H190.751L179.326 126.467H147.038V143.997H133.349L126.029 110.592H187.792C190.967 110.592 193.534 108.025 193.534 104.85V99.7643C193.534 96.5993 190.967 94.0221 187.792 94.0221H100.483L95.368 70.7103H85.569C82.6195 70.7103 80.2188 68.3096 80.2188 65.3503C80.2188 63.8706 80.8165 62.5379 81.7866 61.5678C82.7567 60.5977 84.0992 60 85.569 60H103.981L108.107 78.8337H196.268C206.655 78.8337 215.092 87.2608 215.092 97.6576V107.653C215.092 115.639 210.114 122.459 203.088 125.193L215.367 143.997Z" fill="#38BDF8"/>
<path d="M231.438 131.828V157.6C231.438 161.284 228.449 164.273 224.764 164.273H201.041C199.267 161.078 195.877 158.922 191.977 158.922C188.077 158.922 184.677 161.078 182.913 164.273H161.923C160.16 161.078 156.759 158.922 152.859 158.922C148.959 158.922 145.559 161.078 143.795 164.273H121.248C118.112 164.273 115.398 162.087 114.731 159.02L104.109 110.594H115.074L124.109 151.848C124.335 152.857 125.226 153.572 126.255 153.572H218.532C219.747 153.572 220.727 152.592 220.727 151.377V131.828C220.727 128.869 223.128 126.468 226.078 126.468C227.557 126.468 228.9 127.066 229.87 128.036C230.84 129.006 231.438 130.349 231.438 131.828Z" fill="#38BDF8"/>
<path d="M152.859 174.284C155.624 174.284 157.866 172.042 157.866 169.277C157.866 166.511 155.624 164.27 152.859 164.27C150.093 164.27 147.852 166.511 147.852 169.277C147.852 172.042 150.093 174.284 152.859 174.284Z" fill="#38BDF8"/>
<path d="M191.976 174.284C194.741 174.284 196.983 172.042 196.983 169.277C196.983 166.511 194.741 164.27 191.976 164.27C189.211 164.27 186.969 166.511 186.969 169.277C186.969 172.042 189.211 174.284 191.976 174.284Z" fill="#38BDF8"/>
</svg>
